%TF.GenerationSoftware,KiCad,Pcbnew,8.0.6-8.0.6-0~ubuntu24.04.1*%
%TF.CreationDate,2024-10-27T16:32:26+01:00*%
%TF.ProjectId,LoRa,4c6f5261-2e6b-4696-9361-645f70636258,rev?*%
%TF.SameCoordinates,Original*%
%TF.FileFunction,Paste,Top*%
%TF.FilePolarity,Positive*%
%FSLAX46Y46*%
G04 Gerber Fmt 4.6, Leading zero omitted, Abs format (unit mm)*
G04 Created by KiCad (PCBNEW 8.0.6-8.0.6-0~ubuntu24.04.1) date 2024-10-27 16:32:26*
%MOMM*%
%LPD*%
G01*
G04 APERTURE LIST*
G04 Aperture macros list*
%AMRoundRect*
0 Rectangle with rounded corners*
0 $1 Rounding radius*
0 $2 $3 $4 $5 $6 $7 $8 $9 X,Y pos of 4 corners*
0 Add a 4 corners polygon primitive as box body*
4,1,4,$2,$3,$4,$5,$6,$7,$8,$9,$2,$3,0*
0 Add four circle primitives for the rounded corners*
1,1,$1+$1,$2,$3*
1,1,$1+$1,$4,$5*
1,1,$1+$1,$6,$7*
1,1,$1+$1,$8,$9*
0 Add four rect primitives between the rounded corners*
20,1,$1+$1,$2,$3,$4,$5,0*
20,1,$1+$1,$4,$5,$6,$7,0*
20,1,$1+$1,$6,$7,$8,$9,0*
20,1,$1+$1,$8,$9,$2,$3,0*%
G04 Aperture macros list end*
%ADD10C,0.010000*%
%ADD11RoundRect,0.237500X-0.237500X0.300000X-0.237500X-0.300000X0.237500X-0.300000X0.237500X0.300000X0*%
%ADD12RoundRect,0.237500X-0.250000X-0.237500X0.250000X-0.237500X0.250000X0.237500X-0.250000X0.237500X0*%
%ADD13RoundRect,0.237500X0.300000X0.237500X-0.300000X0.237500X-0.300000X-0.237500X0.300000X-0.237500X0*%
%ADD14RoundRect,0.237500X0.237500X-0.300000X0.237500X0.300000X-0.237500X0.300000X-0.237500X-0.300000X0*%
%ADD15RoundRect,0.237500X-0.300000X-0.237500X0.300000X-0.237500X0.300000X0.237500X-0.300000X0.237500X0*%
%ADD16RoundRect,0.237500X0.250000X0.237500X-0.250000X0.237500X-0.250000X-0.237500X0.250000X-0.237500X0*%
%ADD17R,1.200000X0.600000*%
%ADD18R,0.750000X0.950000*%
%ADD19R,0.825000X0.630000*%
%ADD20R,0.700000X0.400000*%
%ADD21R,0.400000X0.700000*%
%ADD22R,4.400000X4.400000*%
%ADD23RoundRect,0.237500X-0.237500X0.250000X-0.237500X-0.250000X0.237500X-0.250000X0.237500X0.250000X0*%
%ADD24RoundRect,0.043750X0.131250X-0.181250X0.131250X0.181250X-0.131250X0.181250X-0.131250X-0.181250X0*%
%ADD25RoundRect,0.043750X0.181250X-0.131250X0.181250X0.131250X-0.181250X0.131250X-0.181250X-0.131250X0*%
%ADD26R,0.300000X0.850000*%
%ADD27R,0.850000X0.300000*%
%ADD28R,2.650000X2.650000*%
%ADD29R,0.550000X0.350000*%
%ADD30R,1.250000X0.550000*%
G04 APERTURE END LIST*
D10*
%TO.C,U1*%
X107317500Y-79305000D02*
X105407500Y-79305000D01*
X105407500Y-77395000D01*
X107317500Y-77395000D01*
X107317500Y-79305000D01*
G36*
X107317500Y-79305000D02*
G01*
X105407500Y-79305000D01*
X105407500Y-77395000D01*
X107317500Y-77395000D01*
X107317500Y-79305000D01*
G37*
X107317500Y-82005000D02*
X105407500Y-82005000D01*
X105407500Y-80095000D01*
X107317500Y-80095000D01*
X107317500Y-82005000D01*
G36*
X107317500Y-82005000D02*
G01*
X105407500Y-82005000D01*
X105407500Y-80095000D01*
X107317500Y-80095000D01*
X107317500Y-82005000D01*
G37*
X110017500Y-79305000D02*
X108107500Y-79305000D01*
X108107500Y-77395000D01*
X110017500Y-77395000D01*
X110017500Y-79305000D01*
G36*
X110017500Y-79305000D02*
G01*
X108107500Y-79305000D01*
X108107500Y-77395000D01*
X110017500Y-77395000D01*
X110017500Y-79305000D01*
G37*
X110017500Y-82005000D02*
X108107500Y-82005000D01*
X108107500Y-80095000D01*
X110017500Y-80095000D01*
X110017500Y-82005000D01*
G36*
X110017500Y-82005000D02*
G01*
X108107500Y-82005000D01*
X108107500Y-80095000D01*
X110017500Y-80095000D01*
X110017500Y-82005000D01*
G37*
%TD*%
D11*
%TO.C,C14*%
X115000000Y-80487500D03*
X115000000Y-82212500D03*
%TD*%
D12*
%TO.C,FB2*%
X118487500Y-84450000D03*
X120312500Y-84450000D03*
%TD*%
D13*
%TO.C,C22*%
X125100000Y-82700000D03*
X123375000Y-82700000D03*
%TD*%
D14*
%TO.C,C15*%
X116500000Y-78912500D03*
X116500000Y-77187500D03*
%TD*%
D11*
%TO.C,C13*%
X116600000Y-80500000D03*
X116600000Y-82225000D03*
%TD*%
D15*
%TO.C,C9*%
X119512500Y-70600000D03*
X121237500Y-70600000D03*
%TD*%
D16*
%TO.C,R8*%
X122975000Y-73900000D03*
X121150000Y-73900000D03*
%TD*%
D17*
%TO.C,IC4*%
X113750000Y-72300000D03*
X113750000Y-73250000D03*
X113750000Y-74200000D03*
X116250000Y-74200000D03*
X116250000Y-72300000D03*
%TD*%
D13*
%TO.C,C5*%
X111900000Y-72250000D03*
X110175000Y-72250000D03*
%TD*%
D14*
%TO.C,C26*%
X128900000Y-72362500D03*
X128900000Y-70637500D03*
%TD*%
D18*
%TO.C,ANT1*%
X99150000Y-84600000D03*
X97450000Y-84600000D03*
%TD*%
D19*
%TO.C,Y2*%
X118262500Y-72040000D03*
X118262500Y-73860000D03*
X119487500Y-73860000D03*
X119487500Y-72040000D03*
%TD*%
D12*
%TO.C,FB3*%
X115962500Y-70600000D03*
X117787500Y-70600000D03*
%TD*%
D13*
%TO.C,C18*%
X113712500Y-70650000D03*
X111987500Y-70650000D03*
%TD*%
D20*
%TO.C,IC3*%
X125200000Y-75600000D03*
X125200000Y-76300000D03*
X125200000Y-77000000D03*
X125200000Y-77700000D03*
X125200000Y-78400000D03*
X125200000Y-79100000D03*
X125200000Y-79800000D03*
D21*
X125900000Y-80500000D03*
X126600000Y-80500000D03*
X127300000Y-80500000D03*
X128000000Y-80500000D03*
X128700000Y-80500000D03*
X129400000Y-80500000D03*
X130100000Y-80500000D03*
D20*
X130800000Y-79800000D03*
X130800000Y-79100000D03*
X130800000Y-78400000D03*
X130800000Y-77700000D03*
X130800000Y-77000000D03*
X130800000Y-76300000D03*
X130800000Y-75600000D03*
D21*
X130100000Y-74900000D03*
X129400000Y-74900000D03*
X128700000Y-74900000D03*
X128000000Y-74900000D03*
X127300000Y-74900000D03*
X126600000Y-74900000D03*
X125900000Y-74900000D03*
D22*
X128000000Y-77700000D03*
%TD*%
D15*
%TO.C,C21*%
X126737500Y-82700000D03*
X128462500Y-82700000D03*
%TD*%
D23*
%TO.C,FB1*%
X133450000Y-70587500D03*
X133450000Y-72412500D03*
%TD*%
D14*
%TO.C,C20*%
X124400000Y-72362500D03*
X124400000Y-70637500D03*
%TD*%
D13*
%TO.C,C8*%
X122912500Y-75300000D03*
X121187500Y-75300000D03*
%TD*%
D24*
%TO.C,U1*%
X104962500Y-82965000D03*
X105462500Y-82965000D03*
X105962500Y-82965000D03*
X106462500Y-82965000D03*
X106962500Y-82965000D03*
X107462500Y-82965000D03*
X107962500Y-82965000D03*
X108462500Y-82965000D03*
X108962500Y-82965000D03*
X109462500Y-82965000D03*
X109962500Y-82965000D03*
X110462500Y-82965000D03*
D25*
X110977500Y-82450000D03*
X110977500Y-81950000D03*
X110977500Y-81450000D03*
X110977500Y-80950000D03*
X110977500Y-80450000D03*
X110977500Y-79950000D03*
X110977500Y-79450000D03*
X110977500Y-78950000D03*
X110977500Y-78450000D03*
X110977500Y-77950000D03*
X110977500Y-77450000D03*
X110977500Y-76950000D03*
D24*
X110462500Y-76435000D03*
X109962500Y-76435000D03*
X109462500Y-76435000D03*
X108962500Y-76435000D03*
X108462500Y-76435000D03*
X107962500Y-76435000D03*
X107462500Y-76435000D03*
X106962500Y-76435000D03*
X106462500Y-76435000D03*
X105962500Y-76435000D03*
X105462500Y-76435000D03*
X104962500Y-76435000D03*
D25*
X104447500Y-76950000D03*
X104447500Y-77450000D03*
X104447500Y-77950000D03*
X104447500Y-78450000D03*
X104447500Y-78950000D03*
X104447500Y-79450000D03*
X104447500Y-79950000D03*
X104447500Y-80450000D03*
X104447500Y-80950000D03*
X104447500Y-81450000D03*
X104447500Y-81950000D03*
X104447500Y-82450000D03*
%TD*%
D12*
%TO.C,R2*%
X106675000Y-84500000D03*
X108500000Y-84500000D03*
%TD*%
D26*
%TO.C,IC1*%
X121900000Y-77250000D03*
X121400000Y-77250000D03*
X120900000Y-77250000D03*
X120400000Y-77250000D03*
X119900000Y-77250000D03*
X119400000Y-77250000D03*
D27*
X118700000Y-77950000D03*
X118700000Y-78450000D03*
X118700000Y-78950000D03*
X118700000Y-79450000D03*
X118700000Y-79950000D03*
X118700000Y-80450000D03*
D26*
X119400000Y-81150000D03*
X119900000Y-81150000D03*
X120400000Y-81150000D03*
X120900000Y-81150000D03*
X121400000Y-81150000D03*
X121900000Y-81150000D03*
D27*
X122600000Y-80450000D03*
X122600000Y-79950000D03*
X122600000Y-79450000D03*
X122600000Y-78950000D03*
X122600000Y-78450000D03*
X122600000Y-77950000D03*
D28*
X120650000Y-79200000D03*
%TD*%
D14*
%TO.C,C24*%
X131900000Y-72375000D03*
X131900000Y-70650000D03*
%TD*%
%TO.C,C19*%
X125900000Y-72362500D03*
X125900000Y-70637500D03*
%TD*%
%TO.C,C4*%
X101950000Y-73725000D03*
X101950000Y-72000000D03*
%TD*%
D29*
%TO.C,FL1*%
X134950000Y-77500000D03*
D30*
X135975000Y-78150000D03*
D29*
X137000000Y-77500000D03*
D30*
X135975000Y-76850000D03*
%TD*%
D14*
%TO.C,C17*%
X122850000Y-72362500D03*
X122850000Y-70637500D03*
%TD*%
D13*
%TO.C,C16*%
X120262500Y-82950000D03*
X118537500Y-82950000D03*
%TD*%
D14*
%TO.C,C25*%
X130400000Y-72362500D03*
X130400000Y-70637500D03*
%TD*%
%TO.C,C23*%
X127400000Y-72362500D03*
X127400000Y-70637500D03*
%TD*%
D15*
%TO.C,C3*%
X110137500Y-84500000D03*
X111862500Y-84500000D03*
%TD*%
M02*
