%TF.GenerationSoftware,KiCad,Pcbnew,8.0.6-8.0.6-0~ubuntu24.04.1*%
%TF.CreationDate,2024-10-27T12:08:22+01:00*%
%TF.ProjectId,LoRa,4c6f5261-2e6b-4696-9361-645f70636258,rev?*%
%TF.SameCoordinates,Original*%
%TF.FileFunction,Legend,Bot*%
%TF.FilePolarity,Positive*%
%FSLAX46Y46*%
G04 Gerber Fmt 4.6, Leading zero omitted, Abs format (unit mm)*
G04 Created by KiCad (PCBNEW 8.0.6-8.0.6-0~ubuntu24.04.1) date 2024-10-27 12:08:22*
%MOMM*%
%LPD*%
G01*
G04 APERTURE LIST*
%ADD10C,0.254000*%
%ADD11C,0.200000*%
G04 APERTURE END LIST*
D10*
X107074318Y-57260237D02*
X105804318Y-57260237D01*
X106953365Y-58590714D02*
X107013842Y-58530238D01*
X107013842Y-58530238D02*
X107074318Y-58348809D01*
X107074318Y-58348809D02*
X107074318Y-58227857D01*
X107074318Y-58227857D02*
X107013842Y-58046428D01*
X107013842Y-58046428D02*
X106892889Y-57925476D01*
X106892889Y-57925476D02*
X106771937Y-57864999D01*
X106771937Y-57864999D02*
X106530032Y-57804523D01*
X106530032Y-57804523D02*
X106348603Y-57804523D01*
X106348603Y-57804523D02*
X106106699Y-57864999D01*
X106106699Y-57864999D02*
X105985746Y-57925476D01*
X105985746Y-57925476D02*
X105864794Y-58046428D01*
X105864794Y-58046428D02*
X105804318Y-58227857D01*
X105804318Y-58227857D02*
X105804318Y-58348809D01*
X105804318Y-58348809D02*
X105864794Y-58530238D01*
X105864794Y-58530238D02*
X105925270Y-58590714D01*
X105804318Y-59739761D02*
X105804318Y-59134999D01*
X105804318Y-59134999D02*
X106409080Y-59074523D01*
X106409080Y-59074523D02*
X106348603Y-59134999D01*
X106348603Y-59134999D02*
X106288127Y-59255952D01*
X106288127Y-59255952D02*
X106288127Y-59558333D01*
X106288127Y-59558333D02*
X106348603Y-59679285D01*
X106348603Y-59679285D02*
X106409080Y-59739761D01*
X106409080Y-59739761D02*
X106530032Y-59800238D01*
X106530032Y-59800238D02*
X106832413Y-59800238D01*
X106832413Y-59800238D02*
X106953365Y-59739761D01*
X106953365Y-59739761D02*
X107013842Y-59679285D01*
X107013842Y-59679285D02*
X107074318Y-59558333D01*
X107074318Y-59558333D02*
X107074318Y-59255952D01*
X107074318Y-59255952D02*
X107013842Y-59134999D01*
X107013842Y-59134999D02*
X106953365Y-59074523D01*
D11*
%TO.C,IC5*%
X103430000Y-55850000D02*
X103430000Y-66250000D01*
X103430000Y-66250000D02*
X108030000Y-66250000D01*
X106500000Y-55850000D02*
X103430000Y-55850000D01*
%TD*%
M02*
