M48
; DRILL file {KiCad 8.0.6-8.0.6-0~ubuntu24.04.1} date 2024-10-27T12:08:24+0100
; FORMAT={-:-/ absolute / inch / decimal}
; #@! TF.CreationDate,2024-10-27T12:08:24+01:00
; #@! TF.GenerationSoftware,Kicad,Pcbnew,8.0.6-8.0.6-0~ubuntu24.04.1
; #@! TF.FileFunction,Plated,1,4,PTH
FMAT,2
INCH
; #@! TA.AperFunction,Plated,PTH,ViaDrill
T1C0.0118
; #@! TA.AperFunction,Plated,PTH,ComponentDrill
T2C0.0394
; #@! TA.AperFunction,Plated,PTH,ComponentDrill
T3C0.0520
; #@! TA.AperFunction,Plated,PTH,ComponentDrill
T4C0.0591
; #@! TA.AperFunction,Plated,PTH,ComponentDrill
T5C0.0669
%
G90
G05
T1
X3.9449Y-2.9045
X3.9724Y-2.9045
X4.0039Y-2.9045
X4.0315Y-3.0157
X4.0315Y-3.0591
X4.0433Y-3.0379
X4.0512Y-3.0157
X4.0591Y-3.0379
X4.0787Y-3.0295
X4.0787Y-3.2087
X4.0787Y-3.2362
X4.0814Y-3.2651
X4.1772Y-3.3268
X4.1835Y-3.303
X4.1998Y-3.3268
X4.2406Y-3.1378
X4.3327Y-2.9272
X4.4021Y-2.7815
X4.4035Y-2.8465
X4.4035Y-2.8465
X4.4488Y-2.7638
X4.4488Y-2.7913
X4.5394Y-2.8465
X4.5394Y-2.8701
X4.5669Y-3.185
X4.6882Y-3.0001
X4.7126Y-3.0079
X4.748Y-3.2441
X4.752Y-3.2165
X4.7539Y-2.8703
X4.7618Y-2.8489
X4.7835Y-3.1673
X4.7835Y-3.1949
X4.7933Y-3.0079
X4.7953Y-3.0374
X5.2402Y-2.7795
X5.2402Y-2.8071
X5.2402Y-2.8386
X5.2402Y-2.8701
T2
X3.8858Y-2.8045
X3.8858Y-2.9045
X3.8858Y-3.0132
X3.8858Y-3.1132
X4.4472Y-2.5197
X4.5472Y-2.5197
T3
X4.1929Y-2.3031
X4.1929Y-2.4035
X4.1929Y-2.5039
T4
X5.4409Y-3.063
T5
X5.3409Y-2.963
X5.3409Y-3.163
X5.5409Y-2.963
X5.5409Y-3.163
M30
