%TF.GenerationSoftware,KiCad,Pcbnew,8.0.6-8.0.6-0~ubuntu24.04.1*%
%TF.CreationDate,2024-10-27T16:32:26+01:00*%
%TF.ProjectId,LoRa,4c6f5261-2e6b-4696-9361-645f70636258,rev?*%
%TF.SameCoordinates,Original*%
%TF.FileFunction,Copper,L2,Inr*%
%TF.FilePolarity,Positive*%
%FSLAX46Y46*%
G04 Gerber Fmt 4.6, Leading zero omitted, Abs format (unit mm)*
G04 Created by KiCad (PCBNEW 8.0.6-8.0.6-0~ubuntu24.04.1) date 2024-10-27 16:32:26*
%MOMM*%
%LPD*%
G01*
G04 APERTURE LIST*
%TA.AperFunction,ComponentPad*%
%ADD10R,1.700000X1.700000*%
%TD*%
%TA.AperFunction,ComponentPad*%
%ADD11O,1.700000X1.700000*%
%TD*%
%TA.AperFunction,ViaPad*%
%ADD12C,0.600000*%
%TD*%
%TA.AperFunction,ViaPad*%
%ADD13C,0.450000*%
%TD*%
%TA.AperFunction,Conductor*%
%ADD14C,0.250000*%
%TD*%
G04 APERTURE END LIST*
D10*
%TO.N,+5V*%
%TO.C,J1*%
X98700000Y-73775000D03*
D11*
%TO.N,GND*%
X98700000Y-71235000D03*
%TD*%
D10*
%TO.N,UART0_TX*%
%TO.C,J2*%
X98700000Y-79075000D03*
D11*
%TO.N,UART0_RX*%
X98700000Y-76535000D03*
%TD*%
D12*
%TO.N,+3.3V*%
X114900000Y-70900000D03*
D13*
X116600000Y-79310000D03*
D12*
X135000000Y-72100000D03*
D13*
X106259670Y-83895738D03*
D12*
X135000000Y-70600000D03*
X113750000Y-72300000D03*
D13*
X118487500Y-84450000D03*
X106675000Y-84500000D03*
X103750000Y-76750000D03*
X103667500Y-82932500D03*
D12*
X113750000Y-72300000D03*
X135000000Y-71299997D03*
D13*
X103600000Y-81500000D03*
D12*
X114900000Y-70200000D03*
D13*
X103600000Y-82200000D03*
X106100000Y-84500000D03*
X103700000Y-75950000D03*
D12*
X135000000Y-72900000D03*
X113712500Y-70650000D03*
X112000000Y-79400000D03*
%TO.N,+5V*%
X101800000Y-73762500D03*
X100005000Y-73775000D03*
X100900000Y-73775000D03*
X102900000Y-73800000D03*
D13*
%TO.N,GND*%
X100500000Y-72500000D03*
X130500000Y-83000000D03*
X102500000Y-72500000D03*
X101000000Y-77500000D03*
X102000000Y-75500000D03*
X121150000Y-73900000D03*
X130500000Y-82000000D03*
X136000000Y-79000000D03*
X102500000Y-70000000D03*
X105500000Y-70000000D03*
X104000000Y-70000000D03*
X123500000Y-70000000D03*
X117950000Y-81900000D03*
X131000000Y-70000000D03*
X130500000Y-81000000D03*
X124500000Y-79000000D03*
X106750000Y-70000000D03*
X128000000Y-81500000D03*
X129000000Y-81500000D03*
X98000000Y-80500000D03*
X128000000Y-70000000D03*
X121800000Y-74230000D03*
X101000000Y-75500000D03*
X101500000Y-70000000D03*
X100500000Y-70000000D03*
X139000000Y-82000000D03*
X139000000Y-73000000D03*
X127000000Y-81500000D03*
X106950000Y-72650000D03*
X123500000Y-78000000D03*
X120680000Y-71840000D03*
X102000000Y-77500000D03*
X100000000Y-75500000D03*
X101000000Y-80500000D03*
X117950000Y-81100000D03*
X141500000Y-82000000D03*
X136000000Y-76000000D03*
X106960000Y-71230000D03*
X117250000Y-83670000D03*
X99500000Y-80500000D03*
X102000000Y-76500000D03*
X121610000Y-71890000D03*
X141500000Y-73000000D03*
X124254055Y-79748419D03*
X140250000Y-73000000D03*
X122000000Y-70000000D03*
X126500000Y-84500000D03*
X111560000Y-83630000D03*
X129500000Y-84500000D03*
X100500000Y-76500000D03*
X130000000Y-81500000D03*
X129500000Y-70000000D03*
X125000000Y-70000000D03*
X111862500Y-84500000D03*
X102500000Y-71000000D03*
X105550000Y-72650000D03*
X104150000Y-72450000D03*
X140250000Y-82000000D03*
X116570000Y-84320000D03*
X117270000Y-84560000D03*
X128000000Y-84500000D03*
X130500000Y-84000000D03*
X123000000Y-77374997D03*
X102500000Y-80500000D03*
X126500000Y-70000000D03*
%TO.N,Net-(IC1-DCC_FB)*%
X121600000Y-76400000D03*
X119792308Y-82070874D03*
%TO.N,+2V85*%
X122850000Y-72362500D03*
D12*
%TO.N,CSD*%
X106885000Y-74865000D03*
D13*
X124350000Y-74450000D03*
%TO.N,CRX*%
X124050000Y-77000000D03*
X113400000Y-84600000D03*
%TO.N,CTX*%
X123650000Y-76400000D03*
X119725736Y-75324264D03*
%TO.N,SX_MOSI*%
X122400000Y-81900000D03*
X104550000Y-75700000D03*
%TO.N,SX_MISO*%
X103246750Y-77201346D03*
X122000000Y-82600000D03*
%TO.N,SX_CS*%
X106251410Y-75701410D03*
X123400000Y-80450000D03*
%TO.N,SX_SCK*%
X105550000Y-75625002D03*
X123400000Y-81150000D03*
%TO.N,SX_NRES*%
X120981062Y-76201458D03*
X112950000Y-83650000D03*
%TD*%
D14*
%TO.N,Net-(IC1-DCC_FB)*%
X120220874Y-82070874D02*
X121350000Y-83200000D01*
X123950000Y-80222182D02*
X123627818Y-79900000D01*
X121350000Y-83200000D02*
X122177818Y-83200000D01*
X123950000Y-81427818D02*
X123950000Y-80222182D01*
X123172792Y-79900000D02*
X121600000Y-78327208D01*
X122177818Y-83200000D02*
X123950000Y-81427818D01*
X119792308Y-82070874D02*
X120220874Y-82070874D01*
X123627818Y-79900000D02*
X123172792Y-79900000D01*
X121600000Y-78327208D02*
X121600000Y-76400000D01*
%TO.N,CSD*%
X106885000Y-74715000D02*
X106950000Y-74650000D01*
X119488594Y-74309304D02*
X107440696Y-74309304D01*
X120029290Y-74850000D02*
X119488594Y-74309304D01*
X124350000Y-74450000D02*
X123950000Y-74850000D01*
X123950000Y-74850000D02*
X120029290Y-74850000D01*
X106885000Y-74865000D02*
X106885000Y-74715000D01*
X107440696Y-74309304D02*
X106885000Y-74865000D01*
%TO.N,CRX*%
X122364214Y-83650000D02*
X121163604Y-83650000D01*
X121163604Y-83650000D02*
X120283604Y-82770000D01*
X120283604Y-82770000D02*
X115230000Y-82770000D01*
X126000000Y-80014214D02*
X122364214Y-83650000D01*
X115230000Y-82770000D02*
X113400000Y-84600000D01*
X124050000Y-77000000D02*
X126000000Y-77000000D01*
X126000000Y-77000000D02*
X126000000Y-80014214D01*
%TO.N,CTX*%
X119749999Y-75348528D02*
X121318528Y-75348528D01*
X122370000Y-76400000D02*
X123650000Y-76400000D01*
X121827818Y-75850000D02*
X122150000Y-76172182D01*
X121318528Y-75348528D02*
X121820000Y-75850000D01*
X122150000Y-76172182D02*
X122150000Y-76180000D01*
X122150000Y-76180000D02*
X122370000Y-76400000D01*
X121820000Y-75850000D02*
X121827818Y-75850000D01*
%TO.N,SX_MOSI*%
X113450000Y-77500000D02*
X106350000Y-77500000D01*
X114419015Y-77680000D02*
X114419015Y-77701447D01*
X114869015Y-77680000D02*
X114869015Y-77500000D01*
X114869015Y-77701436D02*
X114869015Y-77680000D01*
X114419015Y-77298553D02*
X114419015Y-77500000D01*
X122400000Y-81900000D02*
X121450000Y-81900000D01*
X115139015Y-77881436D02*
X115049015Y-77881436D01*
X115319015Y-77680000D02*
X115319015Y-77701436D01*
X117050000Y-77500000D02*
X115499015Y-77500000D01*
X106350000Y-77500000D02*
X104550000Y-75700000D01*
X113699015Y-77500000D02*
X113450000Y-77500000D01*
X113789015Y-77500000D02*
X113699015Y-77500000D01*
X114689015Y-77118553D02*
X114599015Y-77118553D01*
X114239015Y-77881447D02*
X114149015Y-77881447D01*
X113969015Y-77701447D02*
X113969015Y-77680000D01*
X114419015Y-77500000D02*
X114419015Y-77680000D01*
X121450000Y-81900000D02*
X117050000Y-77500000D01*
X114869015Y-77500000D02*
X114869015Y-77298553D01*
X114869015Y-77298553D02*
G75*
G03*
X114689015Y-77118585I-180015J-47D01*
G01*
X115049015Y-77881436D02*
G75*
G02*
X114868964Y-77701436I-15J180036D01*
G01*
X115319015Y-77701436D02*
G75*
G02*
X115139015Y-77881415I-180015J36D01*
G01*
X113969015Y-77680000D02*
G75*
G03*
X113789015Y-77499985I-180015J0D01*
G01*
X114419015Y-77701447D02*
G75*
G02*
X114239015Y-77881415I-180015J47D01*
G01*
X114149015Y-77881447D02*
G75*
G02*
X113968953Y-77701447I-15J180047D01*
G01*
X115499015Y-77500000D02*
G75*
G03*
X115319000Y-77680000I-15J-180000D01*
G01*
X114599015Y-77118553D02*
G75*
G03*
X114418953Y-77298553I-15J-180047D01*
G01*
%TO.N,SX_MISO*%
X105000000Y-76950000D02*
X104327818Y-76950000D01*
X121400000Y-82600000D02*
X117400000Y-78600000D01*
X106100000Y-78050000D02*
X105000000Y-76950000D01*
X104327818Y-76950000D02*
X103977818Y-77300000D01*
X111750000Y-78050000D02*
X106100000Y-78050000D01*
X117400000Y-78600000D02*
X114200000Y-78600000D01*
X122000000Y-82600000D02*
X121400000Y-82600000D01*
X103345404Y-77300000D02*
X103246750Y-77201346D01*
X112300000Y-78600000D02*
X112100000Y-78400000D01*
X114200000Y-78600000D02*
X112300000Y-78600000D01*
X112100000Y-78400000D02*
X111750000Y-78050000D01*
X103977818Y-77300000D02*
X103345404Y-77300000D01*
%TO.N,SX_CS*%
X106392820Y-75560000D02*
X106251410Y-75701410D01*
X110580000Y-74954652D02*
X110580000Y-75150000D01*
X110386966Y-75536068D02*
X110233034Y-75536068D01*
X111120000Y-75150000D02*
X111120000Y-74954652D01*
X109710000Y-75150000D02*
X109300000Y-75150000D01*
X111660000Y-74954654D02*
X111660000Y-75150000D01*
X110924652Y-74759304D02*
X110775348Y-74759304D01*
X112200000Y-75343029D02*
X112200000Y-75150000D01*
X123086396Y-80450000D02*
X119497918Y-76861522D01*
X111120000Y-75345346D02*
X111120000Y-75150000D01*
X109846966Y-75150000D02*
X109710000Y-75150000D01*
X109300000Y-75150000D02*
X108890000Y-75560000D01*
X108890000Y-75560000D02*
X106392820Y-75560000D01*
X111464654Y-75540692D02*
X111315346Y-75540692D01*
X119497918Y-76861522D02*
X119497918Y-75874264D01*
X111660000Y-75150000D02*
X111660000Y-75345346D01*
X110580000Y-75150000D02*
X110580000Y-75343034D01*
X118773654Y-75150000D02*
X112950000Y-75150000D01*
X112004654Y-74759308D02*
X111855346Y-74759308D01*
X123400000Y-80450000D02*
X123086396Y-80450000D01*
X119497918Y-75874264D02*
X118773654Y-75150000D01*
X112200000Y-75150000D02*
X112200000Y-74954654D01*
X112563942Y-75536058D02*
X112393029Y-75536058D01*
X111660000Y-75345346D02*
G75*
G02*
X111464654Y-75540600I-195300J46D01*
G01*
X110233034Y-75536068D02*
G75*
G02*
X110039932Y-75343034I-34J193068D01*
G01*
X112756971Y-75343029D02*
G75*
G02*
X112563942Y-75536071I-193071J29D01*
G01*
X111120000Y-74954652D02*
G75*
G03*
X110924652Y-74759400I-195300J-48D01*
G01*
X112393029Y-75536058D02*
G75*
G02*
X112199942Y-75343029I-29J193058D01*
G01*
X112200000Y-74954654D02*
G75*
G03*
X112004654Y-74759400I-195300J-46D01*
G01*
X111855346Y-74759308D02*
G75*
G03*
X111659908Y-74954654I-46J-195392D01*
G01*
X112950000Y-75150000D02*
G75*
G03*
X112757000Y-75343029I0J-193000D01*
G01*
X110040000Y-75343034D02*
G75*
G03*
X109846966Y-75150000I-193000J34D01*
G01*
X110775348Y-74759304D02*
G75*
G03*
X110579904Y-74954652I-48J-195396D01*
G01*
X110580000Y-75343034D02*
G75*
G02*
X110386966Y-75536000I-193000J34D01*
G01*
X111315346Y-75540692D02*
G75*
G02*
X111119908Y-75345346I-46J195392D01*
G01*
%TO.N,SX_SCK*%
X105801410Y-76251410D02*
X105550000Y-76000000D01*
X113375072Y-76251410D02*
X111755607Y-76251410D01*
X113495072Y-76251410D02*
X113375072Y-76251410D01*
X114335072Y-76251410D02*
X114335072Y-76011410D01*
X114335072Y-76394720D02*
X114335072Y-76251410D01*
X114848452Y-76538030D02*
X114478382Y-76538030D01*
X122500000Y-80500000D02*
X118324264Y-76324264D01*
X122500000Y-81000000D02*
X122500000Y-80500000D01*
X118324264Y-76324264D02*
X115207926Y-76324264D01*
X115207926Y-76324264D02*
X115135072Y-76251410D01*
X123400000Y-81150000D02*
X122650000Y-81150000D01*
X113735072Y-75918292D02*
X113735072Y-76011410D01*
X111755607Y-76251410D02*
X105801410Y-76251410D01*
X114095072Y-75678292D02*
X113975072Y-75678292D01*
X114335072Y-76011410D02*
X114335072Y-75918292D01*
X122650000Y-81150000D02*
X122500000Y-81000000D01*
X105550000Y-76000000D02*
X105550000Y-75625002D01*
X114991762Y-76394720D02*
G75*
G02*
X114848452Y-76537962I-143262J20D01*
G01*
X115135072Y-76251410D02*
G75*
G03*
X114991810Y-76394720I28J-143290D01*
G01*
X114335072Y-75918292D02*
G75*
G03*
X114095072Y-75678328I-239972J-8D01*
G01*
X114478382Y-76538030D02*
G75*
G02*
X114335070Y-76394720I18J143330D01*
G01*
X113975072Y-75678292D02*
G75*
G03*
X113735092Y-75918292I28J-240008D01*
G01*
X113735072Y-76011410D02*
G75*
G02*
X113495072Y-76251372I-239972J10D01*
G01*
%TD*%
%TA.AperFunction,Conductor*%
%TO.N,GND*%
G36*
X114390268Y-69772174D02*
G01*
X114411942Y-69824500D01*
X114396650Y-69869548D01*
X114375464Y-69897158D01*
X114314955Y-70043238D01*
X114314955Y-70043239D01*
X114294318Y-70200000D01*
X114294318Y-70203812D01*
X114272644Y-70256138D01*
X114220318Y-70277812D01*
X114167992Y-70256138D01*
X114161610Y-70248861D01*
X114147388Y-70230327D01*
X114140782Y-70221718D01*
X114140781Y-70221717D01*
X114140779Y-70221715D01*
X114015341Y-70125464D01*
X113869261Y-70064955D01*
X113712500Y-70044318D01*
X113555739Y-70064955D01*
X113555738Y-70064955D01*
X113409658Y-70125464D01*
X113284220Y-70221715D01*
X113284215Y-70221720D01*
X113187964Y-70347158D01*
X113127455Y-70493238D01*
X113127455Y-70493239D01*
X113106818Y-70650000D01*
X113127455Y-70806760D01*
X113127455Y-70806761D01*
X113187964Y-70952841D01*
X113284215Y-71078279D01*
X113284220Y-71078284D01*
X113367845Y-71142451D01*
X113409659Y-71174536D01*
X113555738Y-71235044D01*
X113712500Y-71255682D01*
X113869262Y-71235044D01*
X114015341Y-71174536D01*
X114140782Y-71078282D01*
X114183110Y-71023118D01*
X114232158Y-70994799D01*
X114286865Y-71009457D01*
X114311774Y-71052590D01*
X114313700Y-71052075D01*
X114314955Y-71056761D01*
X114375464Y-71202841D01*
X114471715Y-71328279D01*
X114471720Y-71328284D01*
X114555345Y-71392451D01*
X114597159Y-71424536D01*
X114743238Y-71485044D01*
X114900000Y-71505682D01*
X115056762Y-71485044D01*
X115202841Y-71424536D01*
X115328282Y-71328282D01*
X115424536Y-71202841D01*
X115485044Y-71056762D01*
X115505682Y-70900000D01*
X115485044Y-70743238D01*
X115425713Y-70600000D01*
X134394318Y-70600000D01*
X134414955Y-70756760D01*
X134414955Y-70756761D01*
X134475464Y-70902843D01*
X134477082Y-70904951D01*
X134477428Y-70906244D01*
X134477890Y-70907044D01*
X134477675Y-70907167D01*
X134491740Y-70959658D01*
X134477089Y-70995036D01*
X134475467Y-70997149D01*
X134475464Y-70997154D01*
X134414955Y-71143235D01*
X134414955Y-71143236D01*
X134394318Y-71299997D01*
X134414955Y-71456757D01*
X134414955Y-71456758D01*
X134475464Y-71602838D01*
X134515450Y-71654949D01*
X134530109Y-71709656D01*
X134515451Y-71745044D01*
X134475465Y-71797157D01*
X134475464Y-71797157D01*
X134414955Y-71943238D01*
X134414955Y-71943239D01*
X134394318Y-72100000D01*
X134414955Y-72256760D01*
X134414955Y-72256761D01*
X134458754Y-72362500D01*
X134475464Y-72402841D01*
X134515449Y-72454951D01*
X134515450Y-72454952D01*
X134530108Y-72509660D01*
X134515450Y-72545048D01*
X134475463Y-72597160D01*
X134414955Y-72743238D01*
X134414955Y-72743239D01*
X134394318Y-72900000D01*
X134414955Y-73056760D01*
X134414955Y-73056761D01*
X134475464Y-73202841D01*
X134571715Y-73328279D01*
X134571720Y-73328284D01*
X134628384Y-73371763D01*
X134697159Y-73424536D01*
X134843238Y-73485044D01*
X135000000Y-73505682D01*
X135156762Y-73485044D01*
X135302841Y-73424536D01*
X135428282Y-73328282D01*
X135524536Y-73202841D01*
X135585044Y-73056762D01*
X135605682Y-72900000D01*
X135585044Y-72743238D01*
X135524536Y-72597159D01*
X135484549Y-72545048D01*
X135469891Y-72490342D01*
X135484550Y-72454951D01*
X135524536Y-72402841D01*
X135585044Y-72256762D01*
X135605682Y-72100000D01*
X135585044Y-71943238D01*
X135524536Y-71797159D01*
X135507889Y-71775464D01*
X135484549Y-71745046D01*
X135469890Y-71690339D01*
X135484548Y-71654950D01*
X135524536Y-71602838D01*
X135585044Y-71456759D01*
X135605682Y-71299997D01*
X135585044Y-71143235D01*
X135524536Y-70997156D01*
X135522918Y-70995047D01*
X135522570Y-70993751D01*
X135522110Y-70992953D01*
X135522323Y-70992829D01*
X135508258Y-70940340D01*
X135522921Y-70904944D01*
X135524536Y-70902841D01*
X135585044Y-70756762D01*
X135605682Y-70600000D01*
X135585044Y-70443238D01*
X135524536Y-70297159D01*
X135466648Y-70221718D01*
X135428284Y-70171720D01*
X135428279Y-70171715D01*
X135302841Y-70075464D01*
X135156761Y-70014955D01*
X135000000Y-69994318D01*
X134843239Y-70014955D01*
X134843238Y-70014955D01*
X134697158Y-70075464D01*
X134571720Y-70171715D01*
X134571715Y-70171720D01*
X134475464Y-70297158D01*
X134414955Y-70443238D01*
X134414955Y-70443239D01*
X134394318Y-70600000D01*
X115425713Y-70600000D01*
X115424536Y-70597159D01*
X115422918Y-70595050D01*
X115422570Y-70593754D01*
X115422110Y-70592956D01*
X115422323Y-70592832D01*
X115408258Y-70540343D01*
X115422918Y-70504950D01*
X115423310Y-70504437D01*
X115424536Y-70502841D01*
X115485044Y-70356762D01*
X115505682Y-70200000D01*
X115485044Y-70043238D01*
X115424536Y-69897159D01*
X115418666Y-69889509D01*
X115403350Y-69869548D01*
X115388691Y-69814841D01*
X115417010Y-69765792D01*
X115462058Y-69750500D01*
X142025500Y-69750500D01*
X142077826Y-69772174D01*
X142099500Y-69824500D01*
X142099500Y-84775500D01*
X142077826Y-84827826D01*
X142025500Y-84849500D01*
X118993390Y-84849500D01*
X118941064Y-84827826D01*
X118919390Y-84775500D01*
X118934682Y-84730451D01*
X118946522Y-84715020D01*
X118946524Y-84715018D01*
X118999474Y-84587183D01*
X119017535Y-84450000D01*
X118999474Y-84312817D01*
X118946524Y-84184983D01*
X118946522Y-84184980D01*
X118862293Y-84075211D01*
X118862292Y-84075210D01*
X118817680Y-84040977D01*
X118752518Y-83990976D01*
X118751333Y-83990485D01*
X118624682Y-83938025D01*
X118487500Y-83919965D01*
X118350317Y-83938025D01*
X118222484Y-83990975D01*
X118112709Y-84075209D01*
X118028475Y-84184984D01*
X117975525Y-84312817D01*
X117957465Y-84450000D01*
X117975525Y-84587182D01*
X118028475Y-84715016D01*
X118028477Y-84715020D01*
X118040318Y-84730451D01*
X118054977Y-84785159D01*
X118026659Y-84834208D01*
X117981610Y-84849500D01*
X113976199Y-84849500D01*
X113923873Y-84827826D01*
X113902199Y-84775500D01*
X113907832Y-84747182D01*
X113911974Y-84737183D01*
X113915883Y-84707489D01*
X113936923Y-84664823D01*
X115384574Y-83217174D01*
X115436900Y-83195500D01*
X120076704Y-83195500D01*
X120129030Y-83217174D01*
X120902341Y-83990485D01*
X120999367Y-84046503D01*
X121107583Y-84075499D01*
X121107584Y-84075500D01*
X121107586Y-84075500D01*
X122420234Y-84075500D01*
X122420234Y-84075499D01*
X122528451Y-84046503D01*
X122625477Y-83990485D01*
X126340485Y-80275477D01*
X126396503Y-80178451D01*
X126425499Y-80070234D01*
X126425500Y-80070234D01*
X126425500Y-76943980D01*
X126425499Y-76943979D01*
X126423449Y-76936330D01*
X126396503Y-76835763D01*
X126340485Y-76738737D01*
X126261263Y-76659515D01*
X126233566Y-76643524D01*
X126164241Y-76603499D01*
X126164232Y-76603495D01*
X126056020Y-76574500D01*
X126056018Y-76574500D01*
X124383827Y-76574500D01*
X124338779Y-76559208D01*
X124315020Y-76540977D01*
X124315016Y-76540975D01*
X124221875Y-76502395D01*
X124181826Y-76462347D01*
X124176826Y-76424370D01*
X124180035Y-76400000D01*
X124161974Y-76262817D01*
X124109024Y-76134983D01*
X124024791Y-76025209D01*
X123915018Y-75940976D01*
X123904072Y-75936442D01*
X123787182Y-75888025D01*
X123650000Y-75869965D01*
X123512817Y-75888025D01*
X123384984Y-75940975D01*
X123384975Y-75940980D01*
X123361223Y-75959207D01*
X123316174Y-75974500D01*
X122576900Y-75974500D01*
X122524574Y-75952826D01*
X122508052Y-75936304D01*
X122496294Y-75920981D01*
X122490485Y-75910919D01*
X122089081Y-75509515D01*
X122089078Y-75509513D01*
X122089076Y-75509511D01*
X122079021Y-75503706D01*
X122063694Y-75491946D01*
X121973574Y-75401826D01*
X121951900Y-75349500D01*
X121973574Y-75297174D01*
X122025900Y-75275500D01*
X124006020Y-75275500D01*
X124006020Y-75275499D01*
X124114237Y-75246503D01*
X124211263Y-75190485D01*
X124414824Y-74986922D01*
X124457489Y-74965883D01*
X124487183Y-74961974D01*
X124615018Y-74909024D01*
X124724791Y-74824791D01*
X124809024Y-74715018D01*
X124861974Y-74587183D01*
X124880035Y-74450000D01*
X124861974Y-74312817D01*
X124809024Y-74184983D01*
X124724791Y-74075209D01*
X124615018Y-73990976D01*
X124615016Y-73990975D01*
X124487182Y-73938025D01*
X124350000Y-73919965D01*
X124212817Y-73938025D01*
X124084984Y-73990975D01*
X123975209Y-74075209D01*
X123890975Y-74184984D01*
X123838025Y-74312818D01*
X123838024Y-74312820D01*
X123834114Y-74342513D01*
X123813076Y-74385174D01*
X123795427Y-74402823D01*
X123743105Y-74424500D01*
X120236190Y-74424500D01*
X120183864Y-74402826D01*
X119749857Y-73968819D01*
X119652835Y-73912803D01*
X119652826Y-73912799D01*
X119544614Y-73883804D01*
X119544612Y-73883804D01*
X107496715Y-73883804D01*
X107384678Y-73883804D01*
X107384676Y-73883804D01*
X107276463Y-73912799D01*
X107276454Y-73912803D01*
X107179432Y-73968819D01*
X106945426Y-74202826D01*
X106898573Y-74222232D01*
X106898789Y-74223867D01*
X106893979Y-74224500D01*
X106785767Y-74253495D01*
X106785758Y-74253499D01*
X106756137Y-74270601D01*
X106732872Y-74278499D01*
X106732926Y-74278699D01*
X106729875Y-74279516D01*
X106728799Y-74279882D01*
X106728238Y-74279955D01*
X106582158Y-74340464D01*
X106456720Y-74436715D01*
X106456715Y-74436720D01*
X106360464Y-74562158D01*
X106299955Y-74708238D01*
X106299955Y-74708239D01*
X106279318Y-74865000D01*
X106299955Y-75021760D01*
X106299955Y-75021761D01*
X106313378Y-75054165D01*
X106313378Y-75110802D01*
X106273330Y-75150851D01*
X106264165Y-75153962D01*
X106228586Y-75163496D01*
X106228580Y-75163498D01*
X106216910Y-75170236D01*
X106189572Y-75179516D01*
X106114227Y-75189435D01*
X105981912Y-75244242D01*
X105981094Y-75242269D01*
X105932054Y-75248701D01*
X105906194Y-75235941D01*
X105815018Y-75165978D01*
X105809031Y-75163498D01*
X105687182Y-75113027D01*
X105550000Y-75094967D01*
X105412817Y-75113027D01*
X105284984Y-75165977D01*
X105175209Y-75250211D01*
X105090975Y-75359986D01*
X105088552Y-75364184D01*
X105087300Y-75363461D01*
X105051059Y-75399689D01*
X104994422Y-75399679D01*
X104964045Y-75376365D01*
X104924793Y-75325211D01*
X104924792Y-75325210D01*
X104888256Y-75297174D01*
X104815018Y-75240976D01*
X104802860Y-75235940D01*
X104687182Y-75188025D01*
X104550000Y-75169965D01*
X104412817Y-75188025D01*
X104284984Y-75240975D01*
X104175209Y-75325209D01*
X104090975Y-75434983D01*
X104079903Y-75461715D01*
X104039854Y-75501763D01*
X103983216Y-75501762D01*
X103966487Y-75492102D01*
X103965025Y-75490980D01*
X103965016Y-75490975D01*
X103837182Y-75438025D01*
X103700000Y-75419965D01*
X103562817Y-75438025D01*
X103434984Y-75490975D01*
X103325209Y-75575209D01*
X103240975Y-75684984D01*
X103188025Y-75812817D01*
X103169965Y-75950000D01*
X103188025Y-76087182D01*
X103217783Y-76159024D01*
X103240976Y-76215018D01*
X103325209Y-76324791D01*
X103325213Y-76324794D01*
X103328639Y-76328220D01*
X103326694Y-76330164D01*
X103350636Y-76371593D01*
X103336000Y-76426306D01*
X103335981Y-76426330D01*
X103290977Y-76484980D01*
X103290975Y-76484984D01*
X103238025Y-76612819D01*
X103237445Y-76617222D01*
X103209121Y-76666268D01*
X103173740Y-76680922D01*
X103109567Y-76689372D01*
X103109564Y-76689372D01*
X102981734Y-76742321D01*
X102871959Y-76826555D01*
X102787725Y-76936330D01*
X102734775Y-77064163D01*
X102716715Y-77201346D01*
X102734775Y-77338528D01*
X102759067Y-77397174D01*
X102787726Y-77466364D01*
X102871959Y-77576137D01*
X102981732Y-77660370D01*
X103109567Y-77713320D01*
X103246750Y-77731381D01*
X103286611Y-77726132D01*
X103296270Y-77725500D01*
X104033838Y-77725500D01*
X104033838Y-77725499D01*
X104142055Y-77696503D01*
X104239081Y-77640485D01*
X104482392Y-77397174D01*
X104534718Y-77375500D01*
X104793100Y-77375500D01*
X104845426Y-77397174D01*
X105759515Y-78311263D01*
X105838737Y-78390485D01*
X105935763Y-78446503D01*
X106043979Y-78475499D01*
X106043980Y-78475500D01*
X106043982Y-78475500D01*
X111543100Y-78475500D01*
X111595426Y-78497174D01*
X111814402Y-78716150D01*
X111836076Y-78768476D01*
X111814402Y-78820802D01*
X111790395Y-78836843D01*
X111697158Y-78875464D01*
X111571720Y-78971715D01*
X111571715Y-78971720D01*
X111475464Y-79097158D01*
X111414955Y-79243238D01*
X111414955Y-79243239D01*
X111394318Y-79400000D01*
X111414955Y-79556760D01*
X111414955Y-79556761D01*
X111475464Y-79702841D01*
X111571715Y-79828279D01*
X111571720Y-79828284D01*
X111655345Y-79892451D01*
X111697159Y-79924536D01*
X111843238Y-79985044D01*
X112000000Y-80005682D01*
X112156762Y-79985044D01*
X112302841Y-79924536D01*
X112428282Y-79828282D01*
X112524536Y-79702841D01*
X112585044Y-79556762D01*
X112605682Y-79400000D01*
X112585044Y-79243238D01*
X112555875Y-79172817D01*
X112537236Y-79127818D01*
X112537236Y-79071181D01*
X112577285Y-79031133D01*
X112605603Y-79025500D01*
X114143982Y-79025500D01*
X116038298Y-79025500D01*
X116090624Y-79047174D01*
X116112298Y-79099500D01*
X116106665Y-79127818D01*
X116088025Y-79172817D01*
X116069965Y-79310000D01*
X116088025Y-79447182D01*
X116140975Y-79575016D01*
X116140976Y-79575018D01*
X116225209Y-79684791D01*
X116334982Y-79769024D01*
X116462817Y-79821974D01*
X116600000Y-79840035D01*
X116737183Y-79821974D01*
X116865018Y-79769024D01*
X116974791Y-79684791D01*
X117059024Y-79575018D01*
X117111974Y-79447183D01*
X117130035Y-79310000D01*
X117111974Y-79172817D01*
X117093335Y-79127817D01*
X117093335Y-79071181D01*
X117133384Y-79031133D01*
X117161702Y-79025500D01*
X117193100Y-79025500D01*
X117245426Y-79047174D01*
X119648957Y-81450705D01*
X119670631Y-81503031D01*
X119648957Y-81555357D01*
X119624950Y-81571398D01*
X119527291Y-81611850D01*
X119417517Y-81696083D01*
X119333283Y-81805858D01*
X119280333Y-81933691D01*
X119262273Y-82070874D01*
X119280333Y-82208056D01*
X119294469Y-82242182D01*
X119294469Y-82298819D01*
X119254420Y-82338867D01*
X119226102Y-82344500D01*
X115173980Y-82344500D01*
X115065767Y-82373495D01*
X115065758Y-82373499D01*
X114968736Y-82429515D01*
X113593517Y-83804734D01*
X113541191Y-83826408D01*
X113488865Y-83804734D01*
X113467191Y-83752408D01*
X113467824Y-83742749D01*
X113480035Y-83650000D01*
X113461974Y-83512817D01*
X113409024Y-83384983D01*
X113324791Y-83275209D01*
X113215018Y-83190976D01*
X113215016Y-83190975D01*
X113087182Y-83138025D01*
X112950000Y-83119965D01*
X112812817Y-83138025D01*
X112684984Y-83190975D01*
X112575209Y-83275209D01*
X112490975Y-83384984D01*
X112438025Y-83512817D01*
X112419965Y-83650000D01*
X112438025Y-83787182D01*
X112482990Y-83895738D01*
X112490976Y-83915018D01*
X112575209Y-84024791D01*
X112684982Y-84109024D01*
X112812817Y-84161974D01*
X112922716Y-84176442D01*
X112971764Y-84204760D01*
X112986423Y-84259468D01*
X112971765Y-84294856D01*
X112940977Y-84334981D01*
X112940975Y-84334984D01*
X112888025Y-84462817D01*
X112869965Y-84600000D01*
X112888025Y-84737180D01*
X112888025Y-84737182D01*
X112888026Y-84737183D01*
X112892168Y-84747182D01*
X112892168Y-84803818D01*
X112852120Y-84843867D01*
X112823801Y-84849500D01*
X107209779Y-84849500D01*
X107157453Y-84827826D01*
X107135779Y-84775500D01*
X107141412Y-84747182D01*
X107186974Y-84637182D01*
X107191869Y-84600000D01*
X107205035Y-84500000D01*
X107186974Y-84362817D01*
X107134024Y-84234983D01*
X107110833Y-84204760D01*
X107049793Y-84125211D01*
X107049792Y-84125210D01*
X107028699Y-84109024D01*
X106940019Y-84040976D01*
X106831805Y-83996153D01*
X106791757Y-83956105D01*
X106786757Y-83918126D01*
X106787166Y-83915018D01*
X106789705Y-83895738D01*
X106771644Y-83758555D01*
X106718694Y-83630721D01*
X106634461Y-83520947D01*
X106524688Y-83436714D01*
X106524686Y-83436713D01*
X106396852Y-83383763D01*
X106259670Y-83365703D01*
X106122487Y-83383763D01*
X105994654Y-83436713D01*
X105884879Y-83520947D01*
X105800645Y-83630722D01*
X105747695Y-83758555D01*
X105729635Y-83895738D01*
X105747695Y-84032920D01*
X105749550Y-84037397D01*
X105749550Y-84094034D01*
X105728426Y-84121568D01*
X105728638Y-84121780D01*
X105727029Y-84123388D01*
X105726242Y-84124415D01*
X105725213Y-84125204D01*
X105725206Y-84125211D01*
X105640977Y-84234980D01*
X105640975Y-84234984D01*
X105588025Y-84362817D01*
X105569965Y-84500000D01*
X105588025Y-84637182D01*
X105633588Y-84747182D01*
X105633588Y-84803819D01*
X105593539Y-84843867D01*
X105565221Y-84849500D01*
X103074000Y-84849500D01*
X103021674Y-84827826D01*
X103000000Y-84775500D01*
X103000000Y-83017370D01*
X103021674Y-82965044D01*
X103074000Y-82943370D01*
X103126326Y-82965044D01*
X103147367Y-83007711D01*
X103155525Y-83069682D01*
X103207640Y-83195500D01*
X103208476Y-83197518D01*
X103292709Y-83307291D01*
X103402482Y-83391524D01*
X103530317Y-83444474D01*
X103667500Y-83462535D01*
X103804683Y-83444474D01*
X103932518Y-83391524D01*
X104042291Y-83307291D01*
X104126524Y-83197518D01*
X104179474Y-83069683D01*
X104197535Y-82932500D01*
X104179474Y-82795317D01*
X104126524Y-82667483D01*
X104126522Y-82667480D01*
X104049662Y-82567314D01*
X104035003Y-82512607D01*
X104049661Y-82477218D01*
X104059024Y-82465018D01*
X104111974Y-82337183D01*
X104130035Y-82200000D01*
X104111974Y-82062817D01*
X104059024Y-81934983D01*
X104059022Y-81934978D01*
X104028381Y-81895048D01*
X104013721Y-81840341D01*
X104028378Y-81804954D01*
X104059024Y-81765018D01*
X104111974Y-81637183D01*
X104130035Y-81500000D01*
X104111974Y-81362817D01*
X104059024Y-81234983D01*
X104056437Y-81231611D01*
X103974793Y-81125211D01*
X103974792Y-81125210D01*
X103865019Y-81040977D01*
X103865018Y-81040976D01*
X103855337Y-81036966D01*
X103737182Y-80988025D01*
X103600000Y-80969965D01*
X103462817Y-80988025D01*
X103334984Y-81040975D01*
X103225209Y-81125209D01*
X103140975Y-81234984D01*
X103138552Y-81239182D01*
X103136183Y-81237814D01*
X103102305Y-81271679D01*
X103045668Y-81271668D01*
X103005627Y-81231611D01*
X103000000Y-81203306D01*
X103000000Y-81000000D01*
X97274500Y-81000000D01*
X97222174Y-80978326D01*
X97200500Y-80926000D01*
X97200500Y-78180135D01*
X97549500Y-78180135D01*
X97549500Y-79969863D01*
X97552414Y-79994986D01*
X97552415Y-79994992D01*
X97580210Y-80057942D01*
X97597794Y-80097765D01*
X97677235Y-80177206D01*
X97780009Y-80222585D01*
X97805135Y-80225500D01*
X99594864Y-80225499D01*
X99619991Y-80222585D01*
X99722765Y-80177206D01*
X99802206Y-80097765D01*
X99847585Y-79994991D01*
X99850500Y-79969865D01*
X99850499Y-78180136D01*
X99847585Y-78155009D01*
X99802206Y-78052235D01*
X99722765Y-77972794D01*
X99619991Y-77927415D01*
X99619990Y-77927414D01*
X99619988Y-77927414D01*
X99598659Y-77924940D01*
X99594865Y-77924500D01*
X99594864Y-77924500D01*
X97805136Y-77924500D01*
X97780013Y-77927414D01*
X97780007Y-77927415D01*
X97677234Y-77972794D01*
X97597794Y-78052234D01*
X97552414Y-78155011D01*
X97549500Y-78180135D01*
X97200500Y-78180135D01*
X97200500Y-76534996D01*
X97544571Y-76534996D01*
X97544571Y-76535003D01*
X97564242Y-76747303D01*
X97564243Y-76747309D01*
X97622593Y-76952383D01*
X97622596Y-76952393D01*
X97717632Y-77143252D01*
X97717634Y-77143255D01*
X97846128Y-77313407D01*
X98003698Y-77457052D01*
X98184981Y-77569298D01*
X98383802Y-77646321D01*
X98593390Y-77685500D01*
X98806610Y-77685500D01*
X99016198Y-77646321D01*
X99215019Y-77569298D01*
X99396302Y-77457052D01*
X99553872Y-77313407D01*
X99682366Y-77143255D01*
X99777405Y-76952389D01*
X99835756Y-76747310D01*
X99836219Y-76742322D01*
X99855429Y-76535003D01*
X99855429Y-76534996D01*
X99835757Y-76322696D01*
X99835756Y-76322690D01*
X99805120Y-76215018D01*
X99777405Y-76117611D01*
X99762253Y-76087182D01*
X99682367Y-75926747D01*
X99682363Y-75926741D01*
X99669764Y-75910057D01*
X99553872Y-75756593D01*
X99553253Y-75756029D01*
X99498112Y-75705761D01*
X99396302Y-75612948D01*
X99215019Y-75500702D01*
X99016198Y-75423679D01*
X98924150Y-75406472D01*
X98806613Y-75384500D01*
X98806610Y-75384500D01*
X98593390Y-75384500D01*
X98593386Y-75384500D01*
X98436670Y-75413796D01*
X98383802Y-75423679D01*
X98383800Y-75423679D01*
X98383798Y-75423680D01*
X98207583Y-75491946D01*
X98184981Y-75500702D01*
X98184976Y-75500704D01*
X98184976Y-75500705D01*
X98003700Y-75612946D01*
X97846130Y-75756590D01*
X97717636Y-75926741D01*
X97717632Y-75926747D01*
X97622596Y-76117606D01*
X97622593Y-76117616D01*
X97564243Y-76322690D01*
X97564242Y-76322696D01*
X97544571Y-76534996D01*
X97200500Y-76534996D01*
X97200500Y-72880135D01*
X97549500Y-72880135D01*
X97549500Y-74669863D01*
X97552414Y-74694986D01*
X97552415Y-74694992D01*
X97579564Y-74756478D01*
X97597794Y-74797765D01*
X97677235Y-74877206D01*
X97780009Y-74922585D01*
X97805135Y-74925500D01*
X99594864Y-74925499D01*
X99619991Y-74922585D01*
X99722765Y-74877206D01*
X99802206Y-74797765D01*
X99847585Y-74694991D01*
X99850500Y-74669865D01*
X99850499Y-74444721D01*
X99872173Y-74392396D01*
X99924499Y-74370722D01*
X99934154Y-74371354D01*
X100005000Y-74380682D01*
X100161762Y-74360044D01*
X100307841Y-74299536D01*
X100407454Y-74223100D01*
X100462158Y-74208442D01*
X100497543Y-74223098D01*
X100597159Y-74299536D01*
X100743238Y-74360044D01*
X100900000Y-74380682D01*
X101056762Y-74360044D01*
X101202841Y-74299536D01*
X101313097Y-74214934D01*
X101367804Y-74200275D01*
X101403193Y-74214934D01*
X101453447Y-74253495D01*
X101497159Y-74287036D01*
X101643238Y-74347544D01*
X101800000Y-74368182D01*
X101956762Y-74347544D01*
X102102841Y-74287036D01*
X102228282Y-74190782D01*
X102276905Y-74127414D01*
X102325952Y-74099097D01*
X102380660Y-74113755D01*
X102394320Y-74127416D01*
X102471715Y-74228279D01*
X102471720Y-74228284D01*
X102539060Y-74279955D01*
X102597159Y-74324536D01*
X102743238Y-74385044D01*
X102900000Y-74405682D01*
X103056762Y-74385044D01*
X103202841Y-74324536D01*
X103328282Y-74228282D01*
X103424536Y-74102841D01*
X103485044Y-73956762D01*
X103505682Y-73800000D01*
X103485044Y-73643238D01*
X103424536Y-73497159D01*
X103328282Y-73371718D01*
X103328281Y-73371717D01*
X103328279Y-73371715D01*
X103202841Y-73275464D01*
X103056761Y-73214955D01*
X102900000Y-73194318D01*
X102743239Y-73214955D01*
X102743238Y-73214955D01*
X102597158Y-73275464D01*
X102471720Y-73371715D01*
X102471718Y-73371717D01*
X102423095Y-73435084D01*
X102374045Y-73463402D01*
X102319338Y-73448743D01*
X102305679Y-73435083D01*
X102228284Y-73334220D01*
X102228279Y-73334215D01*
X102102841Y-73237964D01*
X101956761Y-73177455D01*
X101800000Y-73156818D01*
X101643239Y-73177455D01*
X101643238Y-73177455D01*
X101497160Y-73237963D01*
X101386902Y-73322566D01*
X101332194Y-73337224D01*
X101296806Y-73322565D01*
X101202841Y-73250464D01*
X101056761Y-73189955D01*
X100900000Y-73169318D01*
X100743239Y-73189955D01*
X100743238Y-73189955D01*
X100597158Y-73250464D01*
X100497548Y-73326897D01*
X100442841Y-73341556D01*
X100407452Y-73326897D01*
X100307841Y-73250464D01*
X100161761Y-73189955D01*
X100025637Y-73172034D01*
X100005000Y-73169318D01*
X100004999Y-73169318D01*
X99934157Y-73178644D01*
X99879450Y-73163985D01*
X99851132Y-73114935D01*
X99850499Y-73105277D01*
X99850499Y-72880136D01*
X99847585Y-72855013D01*
X99847585Y-72855011D01*
X99847585Y-72855009D01*
X99802206Y-72752235D01*
X99722765Y-72672794D01*
X99619991Y-72627415D01*
X99619990Y-72627414D01*
X99619988Y-72627414D01*
X99598659Y-72624940D01*
X99594865Y-72624500D01*
X99594864Y-72624500D01*
X97805136Y-72624500D01*
X97780013Y-72627414D01*
X97780007Y-72627415D01*
X97677234Y-72672794D01*
X97597794Y-72752234D01*
X97552414Y-72855011D01*
X97549500Y-72880135D01*
X97200500Y-72880135D01*
X97200500Y-72300000D01*
X113144318Y-72300000D01*
X113164955Y-72456760D01*
X113164955Y-72456761D01*
X113225464Y-72602841D01*
X113321715Y-72728279D01*
X113321720Y-72728284D01*
X113341209Y-72743238D01*
X113447159Y-72824536D01*
X113593238Y-72885044D01*
X113750000Y-72905682D01*
X113906762Y-72885044D01*
X114052841Y-72824536D01*
X114178282Y-72728282D01*
X114274536Y-72602841D01*
X114335044Y-72456762D01*
X114347454Y-72362500D01*
X122319965Y-72362500D01*
X122338025Y-72499682D01*
X122389726Y-72624500D01*
X122390976Y-72627518D01*
X122475209Y-72737291D01*
X122584982Y-72821524D01*
X122712817Y-72874474D01*
X122850000Y-72892535D01*
X122987183Y-72874474D01*
X123115018Y-72821524D01*
X123224791Y-72737291D01*
X123309024Y-72627518D01*
X123361974Y-72499683D01*
X123380035Y-72362500D01*
X123361974Y-72225317D01*
X123309024Y-72097483D01*
X123309022Y-72097480D01*
X123224793Y-71987711D01*
X123224792Y-71987710D01*
X123115019Y-71903477D01*
X123115018Y-71903476D01*
X123115016Y-71903475D01*
X122987182Y-71850525D01*
X122850000Y-71832465D01*
X122712817Y-71850525D01*
X122584984Y-71903475D01*
X122475209Y-71987709D01*
X122390975Y-72097484D01*
X122338025Y-72225317D01*
X122319965Y-72362500D01*
X114347454Y-72362500D01*
X114355682Y-72300000D01*
X114335044Y-72143238D01*
X114274536Y-71997159D01*
X114233161Y-71943238D01*
X114178284Y-71871720D01*
X114178279Y-71871715D01*
X114052841Y-71775464D01*
X113906761Y-71714955D01*
X113750000Y-71694318D01*
X113593239Y-71714955D01*
X113593238Y-71714955D01*
X113447158Y-71775464D01*
X113321720Y-71871715D01*
X113321715Y-71871720D01*
X113225464Y-71997158D01*
X113164955Y-72143238D01*
X113164955Y-72143239D01*
X113144318Y-72300000D01*
X97200500Y-72300000D01*
X97200500Y-69824500D01*
X97222174Y-69772174D01*
X97274500Y-69750500D01*
X114337942Y-69750500D01*
X114390268Y-69772174D01*
G37*
%TD.AperFunction*%
%TA.AperFunction,Conductor*%
G36*
X122136499Y-76756513D02*
G01*
X122205763Y-76796503D01*
X122313979Y-76825499D01*
X122313980Y-76825500D01*
X122313982Y-76825500D01*
X122426018Y-76825500D01*
X123316173Y-76825500D01*
X123361221Y-76840792D01*
X123384979Y-76859022D01*
X123384982Y-76859024D01*
X123454066Y-76887639D01*
X123478124Y-76897604D01*
X123518173Y-76937652D01*
X123523173Y-76975629D01*
X123519965Y-76999999D01*
X123519965Y-77000000D01*
X123538025Y-77137182D01*
X123590975Y-77265016D01*
X123590976Y-77265018D01*
X123675209Y-77374791D01*
X123784982Y-77459024D01*
X123912817Y-77511974D01*
X124050000Y-77530035D01*
X124187183Y-77511974D01*
X124315018Y-77459024D01*
X124330461Y-77447174D01*
X124338779Y-77440792D01*
X124383827Y-77425500D01*
X125500500Y-77425500D01*
X125552826Y-77447174D01*
X125574500Y-77499500D01*
X125574500Y-79807314D01*
X125552826Y-79859640D01*
X124501826Y-80910640D01*
X124449500Y-80932314D01*
X124397174Y-80910640D01*
X124375500Y-80858314D01*
X124375500Y-80166166D01*
X124375500Y-80166164D01*
X124373719Y-80159518D01*
X124373719Y-80159515D01*
X124373718Y-80159516D01*
X124373718Y-80159515D01*
X124346503Y-80057945D01*
X124290485Y-79960919D01*
X123889081Y-79559515D01*
X123884309Y-79556760D01*
X123792059Y-79503499D01*
X123792050Y-79503495D01*
X123683838Y-79474500D01*
X123683836Y-79474500D01*
X123379692Y-79474500D01*
X123327366Y-79452826D01*
X122047174Y-78172634D01*
X122025500Y-78120308D01*
X122025500Y-76820599D01*
X122047174Y-76768273D01*
X122099500Y-76746599D01*
X122136499Y-76756513D01*
G37*
%TD.AperFunction*%
%TD*%
M02*
