%TF.GenerationSoftware,KiCad,Pcbnew,8.0.6-8.0.6-0~ubuntu24.04.1*%
%TF.CreationDate,2024-10-27T12:08:22+01:00*%
%TF.ProjectId,LoRa,4c6f5261-2e6b-4696-9361-645f70636258,rev?*%
%TF.SameCoordinates,Original*%
%TF.FileFunction,Legend,Top*%
%TF.FilePolarity,Positive*%
%FSLAX46Y46*%
G04 Gerber Fmt 4.6, Leading zero omitted, Abs format (unit mm)*
G04 Created by KiCad (PCBNEW 8.0.6-8.0.6-0~ubuntu24.04.1) date 2024-10-27 12:08:22*
%MOMM*%
%LPD*%
G01*
G04 APERTURE LIST*
%ADD10C,0.150000*%
%ADD11C,0.254000*%
%ADD12C,0.120000*%
%ADD13C,0.200000*%
%ADD14C,0.127000*%
%ADD15C,0.100000*%
%ADD16C,0.250000*%
G04 APERTURE END LIST*
D10*
X115289580Y-82230357D02*
X115337200Y-82277976D01*
X115337200Y-82277976D02*
X115384819Y-82420833D01*
X115384819Y-82420833D02*
X115384819Y-82516071D01*
X115384819Y-82516071D02*
X115337200Y-82658928D01*
X115337200Y-82658928D02*
X115241961Y-82754166D01*
X115241961Y-82754166D02*
X115146723Y-82801785D01*
X115146723Y-82801785D02*
X114956247Y-82849404D01*
X114956247Y-82849404D02*
X114813390Y-82849404D01*
X114813390Y-82849404D02*
X114622914Y-82801785D01*
X114622914Y-82801785D02*
X114527676Y-82754166D01*
X114527676Y-82754166D02*
X114432438Y-82658928D01*
X114432438Y-82658928D02*
X114384819Y-82516071D01*
X114384819Y-82516071D02*
X114384819Y-82420833D01*
X114384819Y-82420833D02*
X114432438Y-82277976D01*
X114432438Y-82277976D02*
X114480057Y-82230357D01*
X115384819Y-81277976D02*
X115384819Y-81849404D01*
X115384819Y-81563690D02*
X114384819Y-81563690D01*
X114384819Y-81563690D02*
X114527676Y-81658928D01*
X114527676Y-81658928D02*
X114622914Y-81754166D01*
X114622914Y-81754166D02*
X114670533Y-81849404D01*
X114718152Y-80420833D02*
X115384819Y-80420833D01*
X114337200Y-80658928D02*
X115051485Y-80897023D01*
X115051485Y-80897023D02*
X115051485Y-80277976D01*
X99333333Y-64524819D02*
X99000000Y-64048628D01*
X98761905Y-64524819D02*
X98761905Y-63524819D01*
X98761905Y-63524819D02*
X99142857Y-63524819D01*
X99142857Y-63524819D02*
X99238095Y-63572438D01*
X99238095Y-63572438D02*
X99285714Y-63620057D01*
X99285714Y-63620057D02*
X99333333Y-63715295D01*
X99333333Y-63715295D02*
X99333333Y-63858152D01*
X99333333Y-63858152D02*
X99285714Y-63953390D01*
X99285714Y-63953390D02*
X99238095Y-64001009D01*
X99238095Y-64001009D02*
X99142857Y-64048628D01*
X99142857Y-64048628D02*
X98761905Y-64048628D01*
X99666667Y-63524819D02*
X100285714Y-63524819D01*
X100285714Y-63524819D02*
X99952381Y-63905771D01*
X99952381Y-63905771D02*
X100095238Y-63905771D01*
X100095238Y-63905771D02*
X100190476Y-63953390D01*
X100190476Y-63953390D02*
X100238095Y-64001009D01*
X100238095Y-64001009D02*
X100285714Y-64096247D01*
X100285714Y-64096247D02*
X100285714Y-64334342D01*
X100285714Y-64334342D02*
X100238095Y-64429580D01*
X100238095Y-64429580D02*
X100190476Y-64477200D01*
X100190476Y-64477200D02*
X100095238Y-64524819D01*
X100095238Y-64524819D02*
X99809524Y-64524819D01*
X99809524Y-64524819D02*
X99714286Y-64477200D01*
X99714286Y-64477200D02*
X99666667Y-64429580D01*
X99333333Y-56899580D02*
X99285714Y-56947200D01*
X99285714Y-56947200D02*
X99142857Y-56994819D01*
X99142857Y-56994819D02*
X99047619Y-56994819D01*
X99047619Y-56994819D02*
X98904762Y-56947200D01*
X98904762Y-56947200D02*
X98809524Y-56851961D01*
X98809524Y-56851961D02*
X98761905Y-56756723D01*
X98761905Y-56756723D02*
X98714286Y-56566247D01*
X98714286Y-56566247D02*
X98714286Y-56423390D01*
X98714286Y-56423390D02*
X98761905Y-56232914D01*
X98761905Y-56232914D02*
X98809524Y-56137676D01*
X98809524Y-56137676D02*
X98904762Y-56042438D01*
X98904762Y-56042438D02*
X99047619Y-55994819D01*
X99047619Y-55994819D02*
X99142857Y-55994819D01*
X99142857Y-55994819D02*
X99285714Y-56042438D01*
X99285714Y-56042438D02*
X99333333Y-56090057D01*
X100285714Y-56994819D02*
X99714286Y-56994819D01*
X100000000Y-56994819D02*
X100000000Y-55994819D01*
X100000000Y-55994819D02*
X99904762Y-56137676D01*
X99904762Y-56137676D02*
X99809524Y-56232914D01*
X99809524Y-56232914D02*
X99714286Y-56280533D01*
X116604166Y-82701009D02*
X116270833Y-82701009D01*
X116270833Y-83224819D02*
X116270833Y-82224819D01*
X116270833Y-82224819D02*
X116747023Y-82224819D01*
X117461309Y-82701009D02*
X117604166Y-82748628D01*
X117604166Y-82748628D02*
X117651785Y-82796247D01*
X117651785Y-82796247D02*
X117699404Y-82891485D01*
X117699404Y-82891485D02*
X117699404Y-83034342D01*
X117699404Y-83034342D02*
X117651785Y-83129580D01*
X117651785Y-83129580D02*
X117604166Y-83177200D01*
X117604166Y-83177200D02*
X117508928Y-83224819D01*
X117508928Y-83224819D02*
X117127976Y-83224819D01*
X117127976Y-83224819D02*
X117127976Y-82224819D01*
X117127976Y-82224819D02*
X117461309Y-82224819D01*
X117461309Y-82224819D02*
X117556547Y-82272438D01*
X117556547Y-82272438D02*
X117604166Y-82320057D01*
X117604166Y-82320057D02*
X117651785Y-82415295D01*
X117651785Y-82415295D02*
X117651785Y-82510533D01*
X117651785Y-82510533D02*
X117604166Y-82605771D01*
X117604166Y-82605771D02*
X117556547Y-82653390D01*
X117556547Y-82653390D02*
X117461309Y-82701009D01*
X117461309Y-82701009D02*
X117127976Y-82701009D01*
X118080357Y-82320057D02*
X118127976Y-82272438D01*
X118127976Y-82272438D02*
X118223214Y-82224819D01*
X118223214Y-82224819D02*
X118461309Y-82224819D01*
X118461309Y-82224819D02*
X118556547Y-82272438D01*
X118556547Y-82272438D02*
X118604166Y-82320057D01*
X118604166Y-82320057D02*
X118651785Y-82415295D01*
X118651785Y-82415295D02*
X118651785Y-82510533D01*
X118651785Y-82510533D02*
X118604166Y-82653390D01*
X118604166Y-82653390D02*
X118032738Y-83224819D01*
X118032738Y-83224819D02*
X118651785Y-83224819D01*
X121694642Y-84489580D02*
X121647023Y-84537200D01*
X121647023Y-84537200D02*
X121504166Y-84584819D01*
X121504166Y-84584819D02*
X121408928Y-84584819D01*
X121408928Y-84584819D02*
X121266071Y-84537200D01*
X121266071Y-84537200D02*
X121170833Y-84441961D01*
X121170833Y-84441961D02*
X121123214Y-84346723D01*
X121123214Y-84346723D02*
X121075595Y-84156247D01*
X121075595Y-84156247D02*
X121075595Y-84013390D01*
X121075595Y-84013390D02*
X121123214Y-83822914D01*
X121123214Y-83822914D02*
X121170833Y-83727676D01*
X121170833Y-83727676D02*
X121266071Y-83632438D01*
X121266071Y-83632438D02*
X121408928Y-83584819D01*
X121408928Y-83584819D02*
X121504166Y-83584819D01*
X121504166Y-83584819D02*
X121647023Y-83632438D01*
X121647023Y-83632438D02*
X121694642Y-83680057D01*
X122075595Y-83680057D02*
X122123214Y-83632438D01*
X122123214Y-83632438D02*
X122218452Y-83584819D01*
X122218452Y-83584819D02*
X122456547Y-83584819D01*
X122456547Y-83584819D02*
X122551785Y-83632438D01*
X122551785Y-83632438D02*
X122599404Y-83680057D01*
X122599404Y-83680057D02*
X122647023Y-83775295D01*
X122647023Y-83775295D02*
X122647023Y-83870533D01*
X122647023Y-83870533D02*
X122599404Y-84013390D01*
X122599404Y-84013390D02*
X122027976Y-84584819D01*
X122027976Y-84584819D02*
X122647023Y-84584819D01*
X123027976Y-83680057D02*
X123075595Y-83632438D01*
X123075595Y-83632438D02*
X123170833Y-83584819D01*
X123170833Y-83584819D02*
X123408928Y-83584819D01*
X123408928Y-83584819D02*
X123504166Y-83632438D01*
X123504166Y-83632438D02*
X123551785Y-83680057D01*
X123551785Y-83680057D02*
X123599404Y-83775295D01*
X123599404Y-83775295D02*
X123599404Y-83870533D01*
X123599404Y-83870533D02*
X123551785Y-84013390D01*
X123551785Y-84013390D02*
X122980357Y-84584819D01*
X122980357Y-84584819D02*
X123599404Y-84584819D01*
X113529580Y-78692857D02*
X113577200Y-78740476D01*
X113577200Y-78740476D02*
X113624819Y-78883333D01*
X113624819Y-78883333D02*
X113624819Y-78978571D01*
X113624819Y-78978571D02*
X113577200Y-79121428D01*
X113577200Y-79121428D02*
X113481961Y-79216666D01*
X113481961Y-79216666D02*
X113386723Y-79264285D01*
X113386723Y-79264285D02*
X113196247Y-79311904D01*
X113196247Y-79311904D02*
X113053390Y-79311904D01*
X113053390Y-79311904D02*
X112862914Y-79264285D01*
X112862914Y-79264285D02*
X112767676Y-79216666D01*
X112767676Y-79216666D02*
X112672438Y-79121428D01*
X112672438Y-79121428D02*
X112624819Y-78978571D01*
X112624819Y-78978571D02*
X112624819Y-78883333D01*
X112624819Y-78883333D02*
X112672438Y-78740476D01*
X112672438Y-78740476D02*
X112720057Y-78692857D01*
X113624819Y-77740476D02*
X113624819Y-78311904D01*
X113624819Y-78026190D02*
X112624819Y-78026190D01*
X112624819Y-78026190D02*
X112767676Y-78121428D01*
X112767676Y-78121428D02*
X112862914Y-78216666D01*
X112862914Y-78216666D02*
X112910533Y-78311904D01*
X112624819Y-76835714D02*
X112624819Y-77311904D01*
X112624819Y-77311904D02*
X113101009Y-77359523D01*
X113101009Y-77359523D02*
X113053390Y-77311904D01*
X113053390Y-77311904D02*
X113005771Y-77216666D01*
X113005771Y-77216666D02*
X113005771Y-76978571D01*
X113005771Y-76978571D02*
X113053390Y-76883333D01*
X113053390Y-76883333D02*
X113101009Y-76835714D01*
X113101009Y-76835714D02*
X113196247Y-76788095D01*
X113196247Y-76788095D02*
X113434342Y-76788095D01*
X113434342Y-76788095D02*
X113529580Y-76835714D01*
X113529580Y-76835714D02*
X113577200Y-76883333D01*
X113577200Y-76883333D02*
X113624819Y-76978571D01*
X113624819Y-76978571D02*
X113624819Y-77216666D01*
X113624819Y-77216666D02*
X113577200Y-77311904D01*
X113577200Y-77311904D02*
X113529580Y-77359523D01*
X116739580Y-82205357D02*
X116787200Y-82252976D01*
X116787200Y-82252976D02*
X116834819Y-82395833D01*
X116834819Y-82395833D02*
X116834819Y-82491071D01*
X116834819Y-82491071D02*
X116787200Y-82633928D01*
X116787200Y-82633928D02*
X116691961Y-82729166D01*
X116691961Y-82729166D02*
X116596723Y-82776785D01*
X116596723Y-82776785D02*
X116406247Y-82824404D01*
X116406247Y-82824404D02*
X116263390Y-82824404D01*
X116263390Y-82824404D02*
X116072914Y-82776785D01*
X116072914Y-82776785D02*
X115977676Y-82729166D01*
X115977676Y-82729166D02*
X115882438Y-82633928D01*
X115882438Y-82633928D02*
X115834819Y-82491071D01*
X115834819Y-82491071D02*
X115834819Y-82395833D01*
X115834819Y-82395833D02*
X115882438Y-82252976D01*
X115882438Y-82252976D02*
X115930057Y-82205357D01*
X116834819Y-81252976D02*
X116834819Y-81824404D01*
X116834819Y-81538690D02*
X115834819Y-81538690D01*
X115834819Y-81538690D02*
X115977676Y-81633928D01*
X115977676Y-81633928D02*
X116072914Y-81729166D01*
X116072914Y-81729166D02*
X116120533Y-81824404D01*
X115834819Y-80919642D02*
X115834819Y-80300595D01*
X115834819Y-80300595D02*
X116215771Y-80633928D01*
X116215771Y-80633928D02*
X116215771Y-80491071D01*
X116215771Y-80491071D02*
X116263390Y-80395833D01*
X116263390Y-80395833D02*
X116311009Y-80348214D01*
X116311009Y-80348214D02*
X116406247Y-80300595D01*
X116406247Y-80300595D02*
X116644342Y-80300595D01*
X116644342Y-80300595D02*
X116739580Y-80348214D01*
X116739580Y-80348214D02*
X116787200Y-80395833D01*
X116787200Y-80395833D02*
X116834819Y-80491071D01*
X116834819Y-80491071D02*
X116834819Y-80776785D01*
X116834819Y-80776785D02*
X116787200Y-80872023D01*
X116787200Y-80872023D02*
X116739580Y-80919642D01*
X118308333Y-69529580D02*
X118260714Y-69577200D01*
X118260714Y-69577200D02*
X118117857Y-69624819D01*
X118117857Y-69624819D02*
X118022619Y-69624819D01*
X118022619Y-69624819D02*
X117879762Y-69577200D01*
X117879762Y-69577200D02*
X117784524Y-69481961D01*
X117784524Y-69481961D02*
X117736905Y-69386723D01*
X117736905Y-69386723D02*
X117689286Y-69196247D01*
X117689286Y-69196247D02*
X117689286Y-69053390D01*
X117689286Y-69053390D02*
X117736905Y-68862914D01*
X117736905Y-68862914D02*
X117784524Y-68767676D01*
X117784524Y-68767676D02*
X117879762Y-68672438D01*
X117879762Y-68672438D02*
X118022619Y-68624819D01*
X118022619Y-68624819D02*
X118117857Y-68624819D01*
X118117857Y-68624819D02*
X118260714Y-68672438D01*
X118260714Y-68672438D02*
X118308333Y-68720057D01*
X118784524Y-69624819D02*
X118975000Y-69624819D01*
X118975000Y-69624819D02*
X119070238Y-69577200D01*
X119070238Y-69577200D02*
X119117857Y-69529580D01*
X119117857Y-69529580D02*
X119213095Y-69386723D01*
X119213095Y-69386723D02*
X119260714Y-69196247D01*
X119260714Y-69196247D02*
X119260714Y-68815295D01*
X119260714Y-68815295D02*
X119213095Y-68720057D01*
X119213095Y-68720057D02*
X119165476Y-68672438D01*
X119165476Y-68672438D02*
X119070238Y-68624819D01*
X119070238Y-68624819D02*
X118879762Y-68624819D01*
X118879762Y-68624819D02*
X118784524Y-68672438D01*
X118784524Y-68672438D02*
X118736905Y-68720057D01*
X118736905Y-68720057D02*
X118689286Y-68815295D01*
X118689286Y-68815295D02*
X118689286Y-69053390D01*
X118689286Y-69053390D02*
X118736905Y-69148628D01*
X118736905Y-69148628D02*
X118784524Y-69196247D01*
X118784524Y-69196247D02*
X118879762Y-69243866D01*
X118879762Y-69243866D02*
X119070238Y-69243866D01*
X119070238Y-69243866D02*
X119165476Y-69196247D01*
X119165476Y-69196247D02*
X119213095Y-69148628D01*
X119213095Y-69148628D02*
X119260714Y-69053390D01*
X98366666Y-75559819D02*
X98366666Y-76274104D01*
X98366666Y-76274104D02*
X98319047Y-76416961D01*
X98319047Y-76416961D02*
X98223809Y-76512200D01*
X98223809Y-76512200D02*
X98080952Y-76559819D01*
X98080952Y-76559819D02*
X97985714Y-76559819D01*
X99366666Y-76559819D02*
X98795238Y-76559819D01*
X99080952Y-76559819D02*
X99080952Y-75559819D01*
X99080952Y-75559819D02*
X98985714Y-75702676D01*
X98985714Y-75702676D02*
X98890476Y-75797914D01*
X98890476Y-75797914D02*
X98795238Y-75845533D01*
X100729580Y-73542857D02*
X100777200Y-73590476D01*
X100777200Y-73590476D02*
X100824819Y-73733333D01*
X100824819Y-73733333D02*
X100824819Y-73828571D01*
X100824819Y-73828571D02*
X100777200Y-73971428D01*
X100777200Y-73971428D02*
X100681961Y-74066666D01*
X100681961Y-74066666D02*
X100586723Y-74114285D01*
X100586723Y-74114285D02*
X100396247Y-74161904D01*
X100396247Y-74161904D02*
X100253390Y-74161904D01*
X100253390Y-74161904D02*
X100062914Y-74114285D01*
X100062914Y-74114285D02*
X99967676Y-74066666D01*
X99967676Y-74066666D02*
X99872438Y-73971428D01*
X99872438Y-73971428D02*
X99824819Y-73828571D01*
X99824819Y-73828571D02*
X99824819Y-73733333D01*
X99824819Y-73733333D02*
X99872438Y-73590476D01*
X99872438Y-73590476D02*
X99920057Y-73542857D01*
X100824819Y-72590476D02*
X100824819Y-73161904D01*
X100824819Y-72876190D02*
X99824819Y-72876190D01*
X99824819Y-72876190D02*
X99967676Y-72971428D01*
X99967676Y-72971428D02*
X100062914Y-73066666D01*
X100062914Y-73066666D02*
X100110533Y-73161904D01*
X100824819Y-71638095D02*
X100824819Y-72209523D01*
X100824819Y-71923809D02*
X99824819Y-71923809D01*
X99824819Y-71923809D02*
X99967676Y-72019047D01*
X99967676Y-72019047D02*
X100062914Y-72114285D01*
X100062914Y-72114285D02*
X100110533Y-72209523D01*
X119845833Y-75784819D02*
X119512500Y-75308628D01*
X119274405Y-75784819D02*
X119274405Y-74784819D01*
X119274405Y-74784819D02*
X119655357Y-74784819D01*
X119655357Y-74784819D02*
X119750595Y-74832438D01*
X119750595Y-74832438D02*
X119798214Y-74880057D01*
X119798214Y-74880057D02*
X119845833Y-74975295D01*
X119845833Y-74975295D02*
X119845833Y-75118152D01*
X119845833Y-75118152D02*
X119798214Y-75213390D01*
X119798214Y-75213390D02*
X119750595Y-75261009D01*
X119750595Y-75261009D02*
X119655357Y-75308628D01*
X119655357Y-75308628D02*
X119274405Y-75308628D01*
X120417262Y-75213390D02*
X120322024Y-75165771D01*
X120322024Y-75165771D02*
X120274405Y-75118152D01*
X120274405Y-75118152D02*
X120226786Y-75022914D01*
X120226786Y-75022914D02*
X120226786Y-74975295D01*
X120226786Y-74975295D02*
X120274405Y-74880057D01*
X120274405Y-74880057D02*
X120322024Y-74832438D01*
X120322024Y-74832438D02*
X120417262Y-74784819D01*
X120417262Y-74784819D02*
X120607738Y-74784819D01*
X120607738Y-74784819D02*
X120702976Y-74832438D01*
X120702976Y-74832438D02*
X120750595Y-74880057D01*
X120750595Y-74880057D02*
X120798214Y-74975295D01*
X120798214Y-74975295D02*
X120798214Y-75022914D01*
X120798214Y-75022914D02*
X120750595Y-75118152D01*
X120750595Y-75118152D02*
X120702976Y-75165771D01*
X120702976Y-75165771D02*
X120607738Y-75213390D01*
X120607738Y-75213390D02*
X120417262Y-75213390D01*
X120417262Y-75213390D02*
X120322024Y-75261009D01*
X120322024Y-75261009D02*
X120274405Y-75308628D01*
X120274405Y-75308628D02*
X120226786Y-75403866D01*
X120226786Y-75403866D02*
X120226786Y-75594342D01*
X120226786Y-75594342D02*
X120274405Y-75689580D01*
X120274405Y-75689580D02*
X120322024Y-75737200D01*
X120322024Y-75737200D02*
X120417262Y-75784819D01*
X120417262Y-75784819D02*
X120607738Y-75784819D01*
X120607738Y-75784819D02*
X120702976Y-75737200D01*
X120702976Y-75737200D02*
X120750595Y-75689580D01*
X120750595Y-75689580D02*
X120798214Y-75594342D01*
X120798214Y-75594342D02*
X120798214Y-75403866D01*
X120798214Y-75403866D02*
X120750595Y-75308628D01*
X120750595Y-75308628D02*
X120702976Y-75261009D01*
X120702976Y-75261009D02*
X120607738Y-75213390D01*
D11*
X111860237Y-73824318D02*
X111860237Y-72554318D01*
X113190714Y-73703365D02*
X113130238Y-73763842D01*
X113130238Y-73763842D02*
X112948809Y-73824318D01*
X112948809Y-73824318D02*
X112827857Y-73824318D01*
X112827857Y-73824318D02*
X112646428Y-73763842D01*
X112646428Y-73763842D02*
X112525476Y-73642889D01*
X112525476Y-73642889D02*
X112464999Y-73521937D01*
X112464999Y-73521937D02*
X112404523Y-73280032D01*
X112404523Y-73280032D02*
X112404523Y-73098603D01*
X112404523Y-73098603D02*
X112464999Y-72856699D01*
X112464999Y-72856699D02*
X112525476Y-72735746D01*
X112525476Y-72735746D02*
X112646428Y-72614794D01*
X112646428Y-72614794D02*
X112827857Y-72554318D01*
X112827857Y-72554318D02*
X112948809Y-72554318D01*
X112948809Y-72554318D02*
X113130238Y-72614794D01*
X113130238Y-72614794D02*
X113190714Y-72675270D01*
X114279285Y-72977651D02*
X114279285Y-73824318D01*
X113976904Y-72493842D02*
X113674523Y-73400984D01*
X113674523Y-73400984D02*
X114460714Y-73400984D01*
D10*
X117284819Y-64333333D02*
X117999104Y-64333333D01*
X117999104Y-64333333D02*
X118141961Y-64380952D01*
X118141961Y-64380952D02*
X118237200Y-64476190D01*
X118237200Y-64476190D02*
X118284819Y-64619047D01*
X118284819Y-64619047D02*
X118284819Y-64714285D01*
X117284819Y-63952380D02*
X117284819Y-63333333D01*
X117284819Y-63333333D02*
X117665771Y-63666666D01*
X117665771Y-63666666D02*
X117665771Y-63523809D01*
X117665771Y-63523809D02*
X117713390Y-63428571D01*
X117713390Y-63428571D02*
X117761009Y-63380952D01*
X117761009Y-63380952D02*
X117856247Y-63333333D01*
X117856247Y-63333333D02*
X118094342Y-63333333D01*
X118094342Y-63333333D02*
X118189580Y-63380952D01*
X118189580Y-63380952D02*
X118237200Y-63428571D01*
X118237200Y-63428571D02*
X118284819Y-63523809D01*
X118284819Y-63523809D02*
X118284819Y-63809523D01*
X118284819Y-63809523D02*
X118237200Y-63904761D01*
X118237200Y-63904761D02*
X118189580Y-63952380D01*
X125929580Y-72142857D02*
X125977200Y-72190476D01*
X125977200Y-72190476D02*
X126024819Y-72333333D01*
X126024819Y-72333333D02*
X126024819Y-72428571D01*
X126024819Y-72428571D02*
X125977200Y-72571428D01*
X125977200Y-72571428D02*
X125881961Y-72666666D01*
X125881961Y-72666666D02*
X125786723Y-72714285D01*
X125786723Y-72714285D02*
X125596247Y-72761904D01*
X125596247Y-72761904D02*
X125453390Y-72761904D01*
X125453390Y-72761904D02*
X125262914Y-72714285D01*
X125262914Y-72714285D02*
X125167676Y-72666666D01*
X125167676Y-72666666D02*
X125072438Y-72571428D01*
X125072438Y-72571428D02*
X125024819Y-72428571D01*
X125024819Y-72428571D02*
X125024819Y-72333333D01*
X125024819Y-72333333D02*
X125072438Y-72190476D01*
X125072438Y-72190476D02*
X125120057Y-72142857D01*
X125120057Y-71761904D02*
X125072438Y-71714285D01*
X125072438Y-71714285D02*
X125024819Y-71619047D01*
X125024819Y-71619047D02*
X125024819Y-71380952D01*
X125024819Y-71380952D02*
X125072438Y-71285714D01*
X125072438Y-71285714D02*
X125120057Y-71238095D01*
X125120057Y-71238095D02*
X125215295Y-71190476D01*
X125215295Y-71190476D02*
X125310533Y-71190476D01*
X125310533Y-71190476D02*
X125453390Y-71238095D01*
X125453390Y-71238095D02*
X126024819Y-71809523D01*
X126024819Y-71809523D02*
X126024819Y-71190476D01*
X125024819Y-70333333D02*
X125024819Y-70523809D01*
X125024819Y-70523809D02*
X125072438Y-70619047D01*
X125072438Y-70619047D02*
X125120057Y-70666666D01*
X125120057Y-70666666D02*
X125262914Y-70761904D01*
X125262914Y-70761904D02*
X125453390Y-70809523D01*
X125453390Y-70809523D02*
X125834342Y-70809523D01*
X125834342Y-70809523D02*
X125929580Y-70761904D01*
X125929580Y-70761904D02*
X125977200Y-70714285D01*
X125977200Y-70714285D02*
X126024819Y-70619047D01*
X126024819Y-70619047D02*
X126024819Y-70428571D01*
X126024819Y-70428571D02*
X125977200Y-70333333D01*
X125977200Y-70333333D02*
X125929580Y-70285714D01*
X125929580Y-70285714D02*
X125834342Y-70238095D01*
X125834342Y-70238095D02*
X125596247Y-70238095D01*
X125596247Y-70238095D02*
X125501009Y-70285714D01*
X125501009Y-70285714D02*
X125453390Y-70333333D01*
X125453390Y-70333333D02*
X125405771Y-70428571D01*
X125405771Y-70428571D02*
X125405771Y-70619047D01*
X125405771Y-70619047D02*
X125453390Y-70714285D01*
X125453390Y-70714285D02*
X125501009Y-70761904D01*
X125501009Y-70761904D02*
X125596247Y-70809523D01*
D11*
X96243809Y-84811461D02*
X96848571Y-84811461D01*
X96122857Y-85174318D02*
X96546190Y-83904318D01*
X96546190Y-83904318D02*
X96969524Y-85174318D01*
X97392856Y-85174318D02*
X97392856Y-83904318D01*
X97392856Y-83904318D02*
X98118571Y-85174318D01*
X98118571Y-85174318D02*
X98118571Y-83904318D01*
X98541904Y-83904318D02*
X99267618Y-83904318D01*
X98904761Y-85174318D02*
X98904761Y-83904318D01*
X100356190Y-85174318D02*
X99630475Y-85174318D01*
X99993332Y-85174318D02*
X99993332Y-83904318D01*
X99993332Y-83904318D02*
X99872380Y-84085746D01*
X99872380Y-84085746D02*
X99751428Y-84206699D01*
X99751428Y-84206699D02*
X99630475Y-84267175D01*
D10*
X118956514Y-74349953D02*
X119331467Y-74349953D01*
X118544065Y-74612420D02*
X118956514Y-74349953D01*
X118956514Y-74349953D02*
X118544065Y-74087485D01*
X118619056Y-73862513D02*
X118581560Y-73825018D01*
X118581560Y-73825018D02*
X118544065Y-73750027D01*
X118544065Y-73750027D02*
X118544065Y-73562551D01*
X118544065Y-73562551D02*
X118581560Y-73487560D01*
X118581560Y-73487560D02*
X118619056Y-73450065D01*
X118619056Y-73450065D02*
X118694046Y-73412569D01*
X118694046Y-73412569D02*
X118769037Y-73412569D01*
X118769037Y-73412569D02*
X118881523Y-73450065D01*
X118881523Y-73450065D02*
X119331467Y-73900009D01*
X119331467Y-73900009D02*
X119331467Y-73412569D01*
X114141666Y-69101009D02*
X113808333Y-69101009D01*
X113808333Y-69624819D02*
X113808333Y-68624819D01*
X113808333Y-68624819D02*
X114284523Y-68624819D01*
X114998809Y-69101009D02*
X115141666Y-69148628D01*
X115141666Y-69148628D02*
X115189285Y-69196247D01*
X115189285Y-69196247D02*
X115236904Y-69291485D01*
X115236904Y-69291485D02*
X115236904Y-69434342D01*
X115236904Y-69434342D02*
X115189285Y-69529580D01*
X115189285Y-69529580D02*
X115141666Y-69577200D01*
X115141666Y-69577200D02*
X115046428Y-69624819D01*
X115046428Y-69624819D02*
X114665476Y-69624819D01*
X114665476Y-69624819D02*
X114665476Y-68624819D01*
X114665476Y-68624819D02*
X114998809Y-68624819D01*
X114998809Y-68624819D02*
X115094047Y-68672438D01*
X115094047Y-68672438D02*
X115141666Y-68720057D01*
X115141666Y-68720057D02*
X115189285Y-68815295D01*
X115189285Y-68815295D02*
X115189285Y-68910533D01*
X115189285Y-68910533D02*
X115141666Y-69005771D01*
X115141666Y-69005771D02*
X115094047Y-69053390D01*
X115094047Y-69053390D02*
X114998809Y-69101009D01*
X114998809Y-69101009D02*
X114665476Y-69101009D01*
X115570238Y-68624819D02*
X116189285Y-68624819D01*
X116189285Y-68624819D02*
X115855952Y-69005771D01*
X115855952Y-69005771D02*
X115998809Y-69005771D01*
X115998809Y-69005771D02*
X116094047Y-69053390D01*
X116094047Y-69053390D02*
X116141666Y-69101009D01*
X116141666Y-69101009D02*
X116189285Y-69196247D01*
X116189285Y-69196247D02*
X116189285Y-69434342D01*
X116189285Y-69434342D02*
X116141666Y-69529580D01*
X116141666Y-69529580D02*
X116094047Y-69577200D01*
X116094047Y-69577200D02*
X115998809Y-69624819D01*
X115998809Y-69624819D02*
X115713095Y-69624819D01*
X115713095Y-69624819D02*
X115617857Y-69577200D01*
X115617857Y-69577200D02*
X115570238Y-69529580D01*
X98366666Y-80859819D02*
X98366666Y-81574104D01*
X98366666Y-81574104D02*
X98319047Y-81716961D01*
X98319047Y-81716961D02*
X98223809Y-81812200D01*
X98223809Y-81812200D02*
X98080952Y-81859819D01*
X98080952Y-81859819D02*
X97985714Y-81859819D01*
X98795238Y-80955057D02*
X98842857Y-80907438D01*
X98842857Y-80907438D02*
X98938095Y-80859819D01*
X98938095Y-80859819D02*
X99176190Y-80859819D01*
X99176190Y-80859819D02*
X99271428Y-80907438D01*
X99271428Y-80907438D02*
X99319047Y-80955057D01*
X99319047Y-80955057D02*
X99366666Y-81050295D01*
X99366666Y-81050295D02*
X99366666Y-81145533D01*
X99366666Y-81145533D02*
X99319047Y-81288390D01*
X99319047Y-81288390D02*
X98747619Y-81859819D01*
X98747619Y-81859819D02*
X99366666Y-81859819D01*
X110307142Y-72439580D02*
X110259523Y-72487200D01*
X110259523Y-72487200D02*
X110116666Y-72534819D01*
X110116666Y-72534819D02*
X110021428Y-72534819D01*
X110021428Y-72534819D02*
X109878571Y-72487200D01*
X109878571Y-72487200D02*
X109783333Y-72391961D01*
X109783333Y-72391961D02*
X109735714Y-72296723D01*
X109735714Y-72296723D02*
X109688095Y-72106247D01*
X109688095Y-72106247D02*
X109688095Y-71963390D01*
X109688095Y-71963390D02*
X109735714Y-71772914D01*
X109735714Y-71772914D02*
X109783333Y-71677676D01*
X109783333Y-71677676D02*
X109878571Y-71582438D01*
X109878571Y-71582438D02*
X110021428Y-71534819D01*
X110021428Y-71534819D02*
X110116666Y-71534819D01*
X110116666Y-71534819D02*
X110259523Y-71582438D01*
X110259523Y-71582438D02*
X110307142Y-71630057D01*
X111259523Y-72534819D02*
X110688095Y-72534819D01*
X110973809Y-72534819D02*
X110973809Y-71534819D01*
X110973809Y-71534819D02*
X110878571Y-71677676D01*
X110878571Y-71677676D02*
X110783333Y-71772914D01*
X110783333Y-71772914D02*
X110688095Y-71820533D01*
X111830952Y-71963390D02*
X111735714Y-71915771D01*
X111735714Y-71915771D02*
X111688095Y-71868152D01*
X111688095Y-71868152D02*
X111640476Y-71772914D01*
X111640476Y-71772914D02*
X111640476Y-71725295D01*
X111640476Y-71725295D02*
X111688095Y-71630057D01*
X111688095Y-71630057D02*
X111735714Y-71582438D01*
X111735714Y-71582438D02*
X111830952Y-71534819D01*
X111830952Y-71534819D02*
X112021428Y-71534819D01*
X112021428Y-71534819D02*
X112116666Y-71582438D01*
X112116666Y-71582438D02*
X112164285Y-71630057D01*
X112164285Y-71630057D02*
X112211904Y-71725295D01*
X112211904Y-71725295D02*
X112211904Y-71772914D01*
X112211904Y-71772914D02*
X112164285Y-71868152D01*
X112164285Y-71868152D02*
X112116666Y-71915771D01*
X112116666Y-71915771D02*
X112021428Y-71963390D01*
X112021428Y-71963390D02*
X111830952Y-71963390D01*
X111830952Y-71963390D02*
X111735714Y-72011009D01*
X111735714Y-72011009D02*
X111688095Y-72058628D01*
X111688095Y-72058628D02*
X111640476Y-72153866D01*
X111640476Y-72153866D02*
X111640476Y-72344342D01*
X111640476Y-72344342D02*
X111688095Y-72439580D01*
X111688095Y-72439580D02*
X111735714Y-72487200D01*
X111735714Y-72487200D02*
X111830952Y-72534819D01*
X111830952Y-72534819D02*
X112021428Y-72534819D01*
X112021428Y-72534819D02*
X112116666Y-72487200D01*
X112116666Y-72487200D02*
X112164285Y-72439580D01*
X112164285Y-72439580D02*
X112211904Y-72344342D01*
X112211904Y-72344342D02*
X112211904Y-72153866D01*
X112211904Y-72153866D02*
X112164285Y-72058628D01*
X112164285Y-72058628D02*
X112116666Y-72011009D01*
X112116666Y-72011009D02*
X112021428Y-71963390D01*
X125057142Y-81629580D02*
X125009523Y-81677200D01*
X125009523Y-81677200D02*
X124866666Y-81724819D01*
X124866666Y-81724819D02*
X124771428Y-81724819D01*
X124771428Y-81724819D02*
X124628571Y-81677200D01*
X124628571Y-81677200D02*
X124533333Y-81581961D01*
X124533333Y-81581961D02*
X124485714Y-81486723D01*
X124485714Y-81486723D02*
X124438095Y-81296247D01*
X124438095Y-81296247D02*
X124438095Y-81153390D01*
X124438095Y-81153390D02*
X124485714Y-80962914D01*
X124485714Y-80962914D02*
X124533333Y-80867676D01*
X124533333Y-80867676D02*
X124628571Y-80772438D01*
X124628571Y-80772438D02*
X124771428Y-80724819D01*
X124771428Y-80724819D02*
X124866666Y-80724819D01*
X124866666Y-80724819D02*
X125009523Y-80772438D01*
X125009523Y-80772438D02*
X125057142Y-80820057D01*
X125438095Y-80820057D02*
X125485714Y-80772438D01*
X125485714Y-80772438D02*
X125580952Y-80724819D01*
X125580952Y-80724819D02*
X125819047Y-80724819D01*
X125819047Y-80724819D02*
X125914285Y-80772438D01*
X125914285Y-80772438D02*
X125961904Y-80820057D01*
X125961904Y-80820057D02*
X126009523Y-80915295D01*
X126009523Y-80915295D02*
X126009523Y-81010533D01*
X126009523Y-81010533D02*
X125961904Y-81153390D01*
X125961904Y-81153390D02*
X125390476Y-81724819D01*
X125390476Y-81724819D02*
X126009523Y-81724819D01*
X126961904Y-81724819D02*
X126390476Y-81724819D01*
X126676190Y-81724819D02*
X126676190Y-80724819D01*
X126676190Y-80724819D02*
X126580952Y-80867676D01*
X126580952Y-80867676D02*
X126485714Y-80962914D01*
X126485714Y-80962914D02*
X126390476Y-81010533D01*
X137866666Y-72054819D02*
X137866666Y-72769104D01*
X137866666Y-72769104D02*
X137819047Y-72911961D01*
X137819047Y-72911961D02*
X137723809Y-73007200D01*
X137723809Y-73007200D02*
X137580952Y-73054819D01*
X137580952Y-73054819D02*
X137485714Y-73054819D01*
X138771428Y-72054819D02*
X138580952Y-72054819D01*
X138580952Y-72054819D02*
X138485714Y-72102438D01*
X138485714Y-72102438D02*
X138438095Y-72150057D01*
X138438095Y-72150057D02*
X138342857Y-72292914D01*
X138342857Y-72292914D02*
X138295238Y-72483390D01*
X138295238Y-72483390D02*
X138295238Y-72864342D01*
X138295238Y-72864342D02*
X138342857Y-72959580D01*
X138342857Y-72959580D02*
X138390476Y-73007200D01*
X138390476Y-73007200D02*
X138485714Y-73054819D01*
X138485714Y-73054819D02*
X138676190Y-73054819D01*
X138676190Y-73054819D02*
X138771428Y-73007200D01*
X138771428Y-73007200D02*
X138819047Y-72959580D01*
X138819047Y-72959580D02*
X138866666Y-72864342D01*
X138866666Y-72864342D02*
X138866666Y-72626247D01*
X138866666Y-72626247D02*
X138819047Y-72531009D01*
X138819047Y-72531009D02*
X138771428Y-72483390D01*
X138771428Y-72483390D02*
X138676190Y-72435771D01*
X138676190Y-72435771D02*
X138485714Y-72435771D01*
X138485714Y-72435771D02*
X138390476Y-72483390D01*
X138390476Y-72483390D02*
X138342857Y-72531009D01*
X138342857Y-72531009D02*
X138295238Y-72626247D01*
X132911009Y-72333333D02*
X132911009Y-72666666D01*
X133434819Y-72666666D02*
X132434819Y-72666666D01*
X132434819Y-72666666D02*
X132434819Y-72190476D01*
X132911009Y-71476190D02*
X132958628Y-71333333D01*
X132958628Y-71333333D02*
X133006247Y-71285714D01*
X133006247Y-71285714D02*
X133101485Y-71238095D01*
X133101485Y-71238095D02*
X133244342Y-71238095D01*
X133244342Y-71238095D02*
X133339580Y-71285714D01*
X133339580Y-71285714D02*
X133387200Y-71333333D01*
X133387200Y-71333333D02*
X133434819Y-71428571D01*
X133434819Y-71428571D02*
X133434819Y-71809523D01*
X133434819Y-71809523D02*
X132434819Y-71809523D01*
X132434819Y-71809523D02*
X132434819Y-71476190D01*
X132434819Y-71476190D02*
X132482438Y-71380952D01*
X132482438Y-71380952D02*
X132530057Y-71333333D01*
X132530057Y-71333333D02*
X132625295Y-71285714D01*
X132625295Y-71285714D02*
X132720533Y-71285714D01*
X132720533Y-71285714D02*
X132815771Y-71333333D01*
X132815771Y-71333333D02*
X132863390Y-71380952D01*
X132863390Y-71380952D02*
X132911009Y-71476190D01*
X132911009Y-71476190D02*
X132911009Y-71809523D01*
X133434819Y-70285714D02*
X133434819Y-70857142D01*
X133434819Y-70571428D02*
X132434819Y-70571428D01*
X132434819Y-70571428D02*
X132577676Y-70666666D01*
X132577676Y-70666666D02*
X132672914Y-70761904D01*
X132672914Y-70761904D02*
X132720533Y-70857142D01*
X99333333Y-59409580D02*
X99285714Y-59457200D01*
X99285714Y-59457200D02*
X99142857Y-59504819D01*
X99142857Y-59504819D02*
X99047619Y-59504819D01*
X99047619Y-59504819D02*
X98904762Y-59457200D01*
X98904762Y-59457200D02*
X98809524Y-59361961D01*
X98809524Y-59361961D02*
X98761905Y-59266723D01*
X98761905Y-59266723D02*
X98714286Y-59076247D01*
X98714286Y-59076247D02*
X98714286Y-58933390D01*
X98714286Y-58933390D02*
X98761905Y-58742914D01*
X98761905Y-58742914D02*
X98809524Y-58647676D01*
X98809524Y-58647676D02*
X98904762Y-58552438D01*
X98904762Y-58552438D02*
X99047619Y-58504819D01*
X99047619Y-58504819D02*
X99142857Y-58504819D01*
X99142857Y-58504819D02*
X99285714Y-58552438D01*
X99285714Y-58552438D02*
X99333333Y-58600057D01*
X99714286Y-58600057D02*
X99761905Y-58552438D01*
X99761905Y-58552438D02*
X99857143Y-58504819D01*
X99857143Y-58504819D02*
X100095238Y-58504819D01*
X100095238Y-58504819D02*
X100190476Y-58552438D01*
X100190476Y-58552438D02*
X100238095Y-58600057D01*
X100238095Y-58600057D02*
X100285714Y-58695295D01*
X100285714Y-58695295D02*
X100285714Y-58790533D01*
X100285714Y-58790533D02*
X100238095Y-58933390D01*
X100238095Y-58933390D02*
X99666667Y-59504819D01*
X99666667Y-59504819D02*
X100285714Y-59504819D01*
X121429580Y-72142857D02*
X121477200Y-72190476D01*
X121477200Y-72190476D02*
X121524819Y-72333333D01*
X121524819Y-72333333D02*
X121524819Y-72428571D01*
X121524819Y-72428571D02*
X121477200Y-72571428D01*
X121477200Y-72571428D02*
X121381961Y-72666666D01*
X121381961Y-72666666D02*
X121286723Y-72714285D01*
X121286723Y-72714285D02*
X121096247Y-72761904D01*
X121096247Y-72761904D02*
X120953390Y-72761904D01*
X120953390Y-72761904D02*
X120762914Y-72714285D01*
X120762914Y-72714285D02*
X120667676Y-72666666D01*
X120667676Y-72666666D02*
X120572438Y-72571428D01*
X120572438Y-72571428D02*
X120524819Y-72428571D01*
X120524819Y-72428571D02*
X120524819Y-72333333D01*
X120524819Y-72333333D02*
X120572438Y-72190476D01*
X120572438Y-72190476D02*
X120620057Y-72142857D01*
X120620057Y-71761904D02*
X120572438Y-71714285D01*
X120572438Y-71714285D02*
X120524819Y-71619047D01*
X120524819Y-71619047D02*
X120524819Y-71380952D01*
X120524819Y-71380952D02*
X120572438Y-71285714D01*
X120572438Y-71285714D02*
X120620057Y-71238095D01*
X120620057Y-71238095D02*
X120715295Y-71190476D01*
X120715295Y-71190476D02*
X120810533Y-71190476D01*
X120810533Y-71190476D02*
X120953390Y-71238095D01*
X120953390Y-71238095D02*
X121524819Y-71809523D01*
X121524819Y-71809523D02*
X121524819Y-71190476D01*
X120524819Y-70571428D02*
X120524819Y-70476190D01*
X120524819Y-70476190D02*
X120572438Y-70380952D01*
X120572438Y-70380952D02*
X120620057Y-70333333D01*
X120620057Y-70333333D02*
X120715295Y-70285714D01*
X120715295Y-70285714D02*
X120905771Y-70238095D01*
X120905771Y-70238095D02*
X121143866Y-70238095D01*
X121143866Y-70238095D02*
X121334342Y-70285714D01*
X121334342Y-70285714D02*
X121429580Y-70333333D01*
X121429580Y-70333333D02*
X121477200Y-70380952D01*
X121477200Y-70380952D02*
X121524819Y-70476190D01*
X121524819Y-70476190D02*
X121524819Y-70571428D01*
X121524819Y-70571428D02*
X121477200Y-70666666D01*
X121477200Y-70666666D02*
X121429580Y-70714285D01*
X121429580Y-70714285D02*
X121334342Y-70761904D01*
X121334342Y-70761904D02*
X121143866Y-70809523D01*
X121143866Y-70809523D02*
X120905771Y-70809523D01*
X120905771Y-70809523D02*
X120715295Y-70761904D01*
X120715295Y-70761904D02*
X120620057Y-70714285D01*
X120620057Y-70714285D02*
X120572438Y-70666666D01*
X120572438Y-70666666D02*
X120524819Y-70571428D01*
X119933333Y-77339580D02*
X119885714Y-77387200D01*
X119885714Y-77387200D02*
X119742857Y-77434819D01*
X119742857Y-77434819D02*
X119647619Y-77434819D01*
X119647619Y-77434819D02*
X119504762Y-77387200D01*
X119504762Y-77387200D02*
X119409524Y-77291961D01*
X119409524Y-77291961D02*
X119361905Y-77196723D01*
X119361905Y-77196723D02*
X119314286Y-77006247D01*
X119314286Y-77006247D02*
X119314286Y-76863390D01*
X119314286Y-76863390D02*
X119361905Y-76672914D01*
X119361905Y-76672914D02*
X119409524Y-76577676D01*
X119409524Y-76577676D02*
X119504762Y-76482438D01*
X119504762Y-76482438D02*
X119647619Y-76434819D01*
X119647619Y-76434819D02*
X119742857Y-76434819D01*
X119742857Y-76434819D02*
X119885714Y-76482438D01*
X119885714Y-76482438D02*
X119933333Y-76530057D01*
X120504762Y-76863390D02*
X120409524Y-76815771D01*
X120409524Y-76815771D02*
X120361905Y-76768152D01*
X120361905Y-76768152D02*
X120314286Y-76672914D01*
X120314286Y-76672914D02*
X120314286Y-76625295D01*
X120314286Y-76625295D02*
X120361905Y-76530057D01*
X120361905Y-76530057D02*
X120409524Y-76482438D01*
X120409524Y-76482438D02*
X120504762Y-76434819D01*
X120504762Y-76434819D02*
X120695238Y-76434819D01*
X120695238Y-76434819D02*
X120790476Y-76482438D01*
X120790476Y-76482438D02*
X120838095Y-76530057D01*
X120838095Y-76530057D02*
X120885714Y-76625295D01*
X120885714Y-76625295D02*
X120885714Y-76672914D01*
X120885714Y-76672914D02*
X120838095Y-76768152D01*
X120838095Y-76768152D02*
X120790476Y-76815771D01*
X120790476Y-76815771D02*
X120695238Y-76863390D01*
X120695238Y-76863390D02*
X120504762Y-76863390D01*
X120504762Y-76863390D02*
X120409524Y-76911009D01*
X120409524Y-76911009D02*
X120361905Y-76958628D01*
X120361905Y-76958628D02*
X120314286Y-77053866D01*
X120314286Y-77053866D02*
X120314286Y-77244342D01*
X120314286Y-77244342D02*
X120361905Y-77339580D01*
X120361905Y-77339580D02*
X120409524Y-77387200D01*
X120409524Y-77387200D02*
X120504762Y-77434819D01*
X120504762Y-77434819D02*
X120695238Y-77434819D01*
X120695238Y-77434819D02*
X120790476Y-77387200D01*
X120790476Y-77387200D02*
X120838095Y-77339580D01*
X120838095Y-77339580D02*
X120885714Y-77244342D01*
X120885714Y-77244342D02*
X120885714Y-77053866D01*
X120885714Y-77053866D02*
X120838095Y-76958628D01*
X120838095Y-76958628D02*
X120790476Y-76911009D01*
X120790476Y-76911009D02*
X120695238Y-76863390D01*
X102532319Y-80761904D02*
X103341842Y-80761904D01*
X103341842Y-80761904D02*
X103437080Y-80714285D01*
X103437080Y-80714285D02*
X103484700Y-80666666D01*
X103484700Y-80666666D02*
X103532319Y-80571428D01*
X103532319Y-80571428D02*
X103532319Y-80380952D01*
X103532319Y-80380952D02*
X103484700Y-80285714D01*
X103484700Y-80285714D02*
X103437080Y-80238095D01*
X103437080Y-80238095D02*
X103341842Y-80190476D01*
X103341842Y-80190476D02*
X102532319Y-80190476D01*
X103532319Y-79190476D02*
X103532319Y-79761904D01*
X103532319Y-79476190D02*
X102532319Y-79476190D01*
X102532319Y-79476190D02*
X102675176Y-79571428D01*
X102675176Y-79571428D02*
X102770414Y-79666666D01*
X102770414Y-79666666D02*
X102818033Y-79761904D01*
X99333333Y-62014819D02*
X99000000Y-61538628D01*
X98761905Y-62014819D02*
X98761905Y-61014819D01*
X98761905Y-61014819D02*
X99142857Y-61014819D01*
X99142857Y-61014819D02*
X99238095Y-61062438D01*
X99238095Y-61062438D02*
X99285714Y-61110057D01*
X99285714Y-61110057D02*
X99333333Y-61205295D01*
X99333333Y-61205295D02*
X99333333Y-61348152D01*
X99333333Y-61348152D02*
X99285714Y-61443390D01*
X99285714Y-61443390D02*
X99238095Y-61491009D01*
X99238095Y-61491009D02*
X99142857Y-61538628D01*
X99142857Y-61538628D02*
X98761905Y-61538628D01*
X100285714Y-62014819D02*
X99714286Y-62014819D01*
X100000000Y-62014819D02*
X100000000Y-61014819D01*
X100000000Y-61014819D02*
X99904762Y-61157676D01*
X99904762Y-61157676D02*
X99809524Y-61252914D01*
X99809524Y-61252914D02*
X99714286Y-61300533D01*
X107420833Y-83524819D02*
X107087500Y-83048628D01*
X106849405Y-83524819D02*
X106849405Y-82524819D01*
X106849405Y-82524819D02*
X107230357Y-82524819D01*
X107230357Y-82524819D02*
X107325595Y-82572438D01*
X107325595Y-82572438D02*
X107373214Y-82620057D01*
X107373214Y-82620057D02*
X107420833Y-82715295D01*
X107420833Y-82715295D02*
X107420833Y-82858152D01*
X107420833Y-82858152D02*
X107373214Y-82953390D01*
X107373214Y-82953390D02*
X107325595Y-83001009D01*
X107325595Y-83001009D02*
X107230357Y-83048628D01*
X107230357Y-83048628D02*
X106849405Y-83048628D01*
X107801786Y-82620057D02*
X107849405Y-82572438D01*
X107849405Y-82572438D02*
X107944643Y-82524819D01*
X107944643Y-82524819D02*
X108182738Y-82524819D01*
X108182738Y-82524819D02*
X108277976Y-82572438D01*
X108277976Y-82572438D02*
X108325595Y-82620057D01*
X108325595Y-82620057D02*
X108373214Y-82715295D01*
X108373214Y-82715295D02*
X108373214Y-82810533D01*
X108373214Y-82810533D02*
X108325595Y-82953390D01*
X108325595Y-82953390D02*
X107754167Y-83524819D01*
X107754167Y-83524819D02*
X108373214Y-83524819D01*
D11*
X119360237Y-83424318D02*
X119360237Y-82154318D01*
X120690714Y-83303365D02*
X120630238Y-83363842D01*
X120630238Y-83363842D02*
X120448809Y-83424318D01*
X120448809Y-83424318D02*
X120327857Y-83424318D01*
X120327857Y-83424318D02*
X120146428Y-83363842D01*
X120146428Y-83363842D02*
X120025476Y-83242889D01*
X120025476Y-83242889D02*
X119964999Y-83121937D01*
X119964999Y-83121937D02*
X119904523Y-82880032D01*
X119904523Y-82880032D02*
X119904523Y-82698603D01*
X119904523Y-82698603D02*
X119964999Y-82456699D01*
X119964999Y-82456699D02*
X120025476Y-82335746D01*
X120025476Y-82335746D02*
X120146428Y-82214794D01*
X120146428Y-82214794D02*
X120327857Y-82154318D01*
X120327857Y-82154318D02*
X120448809Y-82154318D01*
X120448809Y-82154318D02*
X120630238Y-82214794D01*
X120630238Y-82214794D02*
X120690714Y-82275270D01*
X121900238Y-83424318D02*
X121174523Y-83424318D01*
X121537380Y-83424318D02*
X121537380Y-82154318D01*
X121537380Y-82154318D02*
X121416428Y-82335746D01*
X121416428Y-82335746D02*
X121295476Y-82456699D01*
X121295476Y-82456699D02*
X121174523Y-82517175D01*
D10*
X128929580Y-72155357D02*
X128977200Y-72202976D01*
X128977200Y-72202976D02*
X129024819Y-72345833D01*
X129024819Y-72345833D02*
X129024819Y-72441071D01*
X129024819Y-72441071D02*
X128977200Y-72583928D01*
X128977200Y-72583928D02*
X128881961Y-72679166D01*
X128881961Y-72679166D02*
X128786723Y-72726785D01*
X128786723Y-72726785D02*
X128596247Y-72774404D01*
X128596247Y-72774404D02*
X128453390Y-72774404D01*
X128453390Y-72774404D02*
X128262914Y-72726785D01*
X128262914Y-72726785D02*
X128167676Y-72679166D01*
X128167676Y-72679166D02*
X128072438Y-72583928D01*
X128072438Y-72583928D02*
X128024819Y-72441071D01*
X128024819Y-72441071D02*
X128024819Y-72345833D01*
X128024819Y-72345833D02*
X128072438Y-72202976D01*
X128072438Y-72202976D02*
X128120057Y-72155357D01*
X128120057Y-71774404D02*
X128072438Y-71726785D01*
X128072438Y-71726785D02*
X128024819Y-71631547D01*
X128024819Y-71631547D02*
X128024819Y-71393452D01*
X128024819Y-71393452D02*
X128072438Y-71298214D01*
X128072438Y-71298214D02*
X128120057Y-71250595D01*
X128120057Y-71250595D02*
X128215295Y-71202976D01*
X128215295Y-71202976D02*
X128310533Y-71202976D01*
X128310533Y-71202976D02*
X128453390Y-71250595D01*
X128453390Y-71250595D02*
X129024819Y-71822023D01*
X129024819Y-71822023D02*
X129024819Y-71202976D01*
X128358152Y-70345833D02*
X129024819Y-70345833D01*
X127977200Y-70583928D02*
X128691485Y-70822023D01*
X128691485Y-70822023D02*
X128691485Y-70202976D01*
X122929580Y-72142857D02*
X122977200Y-72190476D01*
X122977200Y-72190476D02*
X123024819Y-72333333D01*
X123024819Y-72333333D02*
X123024819Y-72428571D01*
X123024819Y-72428571D02*
X122977200Y-72571428D01*
X122977200Y-72571428D02*
X122881961Y-72666666D01*
X122881961Y-72666666D02*
X122786723Y-72714285D01*
X122786723Y-72714285D02*
X122596247Y-72761904D01*
X122596247Y-72761904D02*
X122453390Y-72761904D01*
X122453390Y-72761904D02*
X122262914Y-72714285D01*
X122262914Y-72714285D02*
X122167676Y-72666666D01*
X122167676Y-72666666D02*
X122072438Y-72571428D01*
X122072438Y-72571428D02*
X122024819Y-72428571D01*
X122024819Y-72428571D02*
X122024819Y-72333333D01*
X122024819Y-72333333D02*
X122072438Y-72190476D01*
X122072438Y-72190476D02*
X122120057Y-72142857D01*
X123024819Y-71190476D02*
X123024819Y-71761904D01*
X123024819Y-71476190D02*
X122024819Y-71476190D01*
X122024819Y-71476190D02*
X122167676Y-71571428D01*
X122167676Y-71571428D02*
X122262914Y-71666666D01*
X122262914Y-71666666D02*
X122310533Y-71761904D01*
X123024819Y-70714285D02*
X123024819Y-70523809D01*
X123024819Y-70523809D02*
X122977200Y-70428571D01*
X122977200Y-70428571D02*
X122929580Y-70380952D01*
X122929580Y-70380952D02*
X122786723Y-70285714D01*
X122786723Y-70285714D02*
X122596247Y-70238095D01*
X122596247Y-70238095D02*
X122215295Y-70238095D01*
X122215295Y-70238095D02*
X122120057Y-70285714D01*
X122120057Y-70285714D02*
X122072438Y-70333333D01*
X122072438Y-70333333D02*
X122024819Y-70428571D01*
X122024819Y-70428571D02*
X122024819Y-70619047D01*
X122024819Y-70619047D02*
X122072438Y-70714285D01*
X122072438Y-70714285D02*
X122120057Y-70761904D01*
X122120057Y-70761904D02*
X122215295Y-70809523D01*
X122215295Y-70809523D02*
X122453390Y-70809523D01*
X122453390Y-70809523D02*
X122548628Y-70761904D01*
X122548628Y-70761904D02*
X122596247Y-70714285D01*
X122596247Y-70714285D02*
X122643866Y-70619047D01*
X122643866Y-70619047D02*
X122643866Y-70428571D01*
X122643866Y-70428571D02*
X122596247Y-70333333D01*
X122596247Y-70333333D02*
X122548628Y-70285714D01*
X122548628Y-70285714D02*
X122453390Y-70238095D01*
X119879580Y-72142857D02*
X119927200Y-72190476D01*
X119927200Y-72190476D02*
X119974819Y-72333333D01*
X119974819Y-72333333D02*
X119974819Y-72428571D01*
X119974819Y-72428571D02*
X119927200Y-72571428D01*
X119927200Y-72571428D02*
X119831961Y-72666666D01*
X119831961Y-72666666D02*
X119736723Y-72714285D01*
X119736723Y-72714285D02*
X119546247Y-72761904D01*
X119546247Y-72761904D02*
X119403390Y-72761904D01*
X119403390Y-72761904D02*
X119212914Y-72714285D01*
X119212914Y-72714285D02*
X119117676Y-72666666D01*
X119117676Y-72666666D02*
X119022438Y-72571428D01*
X119022438Y-72571428D02*
X118974819Y-72428571D01*
X118974819Y-72428571D02*
X118974819Y-72333333D01*
X118974819Y-72333333D02*
X119022438Y-72190476D01*
X119022438Y-72190476D02*
X119070057Y-72142857D01*
X119974819Y-71190476D02*
X119974819Y-71761904D01*
X119974819Y-71476190D02*
X118974819Y-71476190D01*
X118974819Y-71476190D02*
X119117676Y-71571428D01*
X119117676Y-71571428D02*
X119212914Y-71666666D01*
X119212914Y-71666666D02*
X119260533Y-71761904D01*
X118974819Y-70857142D02*
X118974819Y-70190476D01*
X118974819Y-70190476D02*
X119974819Y-70619047D01*
X116794642Y-84439580D02*
X116747023Y-84487200D01*
X116747023Y-84487200D02*
X116604166Y-84534819D01*
X116604166Y-84534819D02*
X116508928Y-84534819D01*
X116508928Y-84534819D02*
X116366071Y-84487200D01*
X116366071Y-84487200D02*
X116270833Y-84391961D01*
X116270833Y-84391961D02*
X116223214Y-84296723D01*
X116223214Y-84296723D02*
X116175595Y-84106247D01*
X116175595Y-84106247D02*
X116175595Y-83963390D01*
X116175595Y-83963390D02*
X116223214Y-83772914D01*
X116223214Y-83772914D02*
X116270833Y-83677676D01*
X116270833Y-83677676D02*
X116366071Y-83582438D01*
X116366071Y-83582438D02*
X116508928Y-83534819D01*
X116508928Y-83534819D02*
X116604166Y-83534819D01*
X116604166Y-83534819D02*
X116747023Y-83582438D01*
X116747023Y-83582438D02*
X116794642Y-83630057D01*
X117747023Y-84534819D02*
X117175595Y-84534819D01*
X117461309Y-84534819D02*
X117461309Y-83534819D01*
X117461309Y-83534819D02*
X117366071Y-83677676D01*
X117366071Y-83677676D02*
X117270833Y-83772914D01*
X117270833Y-83772914D02*
X117175595Y-83820533D01*
X118604166Y-83534819D02*
X118413690Y-83534819D01*
X118413690Y-83534819D02*
X118318452Y-83582438D01*
X118318452Y-83582438D02*
X118270833Y-83630057D01*
X118270833Y-83630057D02*
X118175595Y-83772914D01*
X118175595Y-83772914D02*
X118127976Y-83963390D01*
X118127976Y-83963390D02*
X118127976Y-84344342D01*
X118127976Y-84344342D02*
X118175595Y-84439580D01*
X118175595Y-84439580D02*
X118223214Y-84487200D01*
X118223214Y-84487200D02*
X118318452Y-84534819D01*
X118318452Y-84534819D02*
X118508928Y-84534819D01*
X118508928Y-84534819D02*
X118604166Y-84487200D01*
X118604166Y-84487200D02*
X118651785Y-84439580D01*
X118651785Y-84439580D02*
X118699404Y-84344342D01*
X118699404Y-84344342D02*
X118699404Y-84106247D01*
X118699404Y-84106247D02*
X118651785Y-84011009D01*
X118651785Y-84011009D02*
X118604166Y-83963390D01*
X118604166Y-83963390D02*
X118508928Y-83915771D01*
X118508928Y-83915771D02*
X118318452Y-83915771D01*
X118318452Y-83915771D02*
X118223214Y-83963390D01*
X118223214Y-83963390D02*
X118175595Y-84011009D01*
X118175595Y-84011009D02*
X118127976Y-84106247D01*
X127429580Y-72142857D02*
X127477200Y-72190476D01*
X127477200Y-72190476D02*
X127524819Y-72333333D01*
X127524819Y-72333333D02*
X127524819Y-72428571D01*
X127524819Y-72428571D02*
X127477200Y-72571428D01*
X127477200Y-72571428D02*
X127381961Y-72666666D01*
X127381961Y-72666666D02*
X127286723Y-72714285D01*
X127286723Y-72714285D02*
X127096247Y-72761904D01*
X127096247Y-72761904D02*
X126953390Y-72761904D01*
X126953390Y-72761904D02*
X126762914Y-72714285D01*
X126762914Y-72714285D02*
X126667676Y-72666666D01*
X126667676Y-72666666D02*
X126572438Y-72571428D01*
X126572438Y-72571428D02*
X126524819Y-72428571D01*
X126524819Y-72428571D02*
X126524819Y-72333333D01*
X126524819Y-72333333D02*
X126572438Y-72190476D01*
X126572438Y-72190476D02*
X126620057Y-72142857D01*
X126620057Y-71761904D02*
X126572438Y-71714285D01*
X126572438Y-71714285D02*
X126524819Y-71619047D01*
X126524819Y-71619047D02*
X126524819Y-71380952D01*
X126524819Y-71380952D02*
X126572438Y-71285714D01*
X126572438Y-71285714D02*
X126620057Y-71238095D01*
X126620057Y-71238095D02*
X126715295Y-71190476D01*
X126715295Y-71190476D02*
X126810533Y-71190476D01*
X126810533Y-71190476D02*
X126953390Y-71238095D01*
X126953390Y-71238095D02*
X127524819Y-71809523D01*
X127524819Y-71809523D02*
X127524819Y-71190476D01*
X126524819Y-70285714D02*
X126524819Y-70761904D01*
X126524819Y-70761904D02*
X127001009Y-70809523D01*
X127001009Y-70809523D02*
X126953390Y-70761904D01*
X126953390Y-70761904D02*
X126905771Y-70666666D01*
X126905771Y-70666666D02*
X126905771Y-70428571D01*
X126905771Y-70428571D02*
X126953390Y-70333333D01*
X126953390Y-70333333D02*
X127001009Y-70285714D01*
X127001009Y-70285714D02*
X127096247Y-70238095D01*
X127096247Y-70238095D02*
X127334342Y-70238095D01*
X127334342Y-70238095D02*
X127429580Y-70285714D01*
X127429580Y-70285714D02*
X127477200Y-70333333D01*
X127477200Y-70333333D02*
X127524819Y-70428571D01*
X127524819Y-70428571D02*
X127524819Y-70666666D01*
X127524819Y-70666666D02*
X127477200Y-70761904D01*
X127477200Y-70761904D02*
X127429580Y-70809523D01*
X124429580Y-72142857D02*
X124477200Y-72190476D01*
X124477200Y-72190476D02*
X124524819Y-72333333D01*
X124524819Y-72333333D02*
X124524819Y-72428571D01*
X124524819Y-72428571D02*
X124477200Y-72571428D01*
X124477200Y-72571428D02*
X124381961Y-72666666D01*
X124381961Y-72666666D02*
X124286723Y-72714285D01*
X124286723Y-72714285D02*
X124096247Y-72761904D01*
X124096247Y-72761904D02*
X123953390Y-72761904D01*
X123953390Y-72761904D02*
X123762914Y-72714285D01*
X123762914Y-72714285D02*
X123667676Y-72666666D01*
X123667676Y-72666666D02*
X123572438Y-72571428D01*
X123572438Y-72571428D02*
X123524819Y-72428571D01*
X123524819Y-72428571D02*
X123524819Y-72333333D01*
X123524819Y-72333333D02*
X123572438Y-72190476D01*
X123572438Y-72190476D02*
X123620057Y-72142857D01*
X123620057Y-71761904D02*
X123572438Y-71714285D01*
X123572438Y-71714285D02*
X123524819Y-71619047D01*
X123524819Y-71619047D02*
X123524819Y-71380952D01*
X123524819Y-71380952D02*
X123572438Y-71285714D01*
X123572438Y-71285714D02*
X123620057Y-71238095D01*
X123620057Y-71238095D02*
X123715295Y-71190476D01*
X123715295Y-71190476D02*
X123810533Y-71190476D01*
X123810533Y-71190476D02*
X123953390Y-71238095D01*
X123953390Y-71238095D02*
X124524819Y-71809523D01*
X124524819Y-71809523D02*
X124524819Y-71190476D01*
X123524819Y-70857142D02*
X123524819Y-70238095D01*
X123524819Y-70238095D02*
X123905771Y-70571428D01*
X123905771Y-70571428D02*
X123905771Y-70428571D01*
X123905771Y-70428571D02*
X123953390Y-70333333D01*
X123953390Y-70333333D02*
X124001009Y-70285714D01*
X124001009Y-70285714D02*
X124096247Y-70238095D01*
X124096247Y-70238095D02*
X124334342Y-70238095D01*
X124334342Y-70238095D02*
X124429580Y-70285714D01*
X124429580Y-70285714D02*
X124477200Y-70333333D01*
X124477200Y-70333333D02*
X124524819Y-70428571D01*
X124524819Y-70428571D02*
X124524819Y-70714285D01*
X124524819Y-70714285D02*
X124477200Y-70809523D01*
X124477200Y-70809523D02*
X124429580Y-70857142D01*
X110833333Y-83429580D02*
X110785714Y-83477200D01*
X110785714Y-83477200D02*
X110642857Y-83524819D01*
X110642857Y-83524819D02*
X110547619Y-83524819D01*
X110547619Y-83524819D02*
X110404762Y-83477200D01*
X110404762Y-83477200D02*
X110309524Y-83381961D01*
X110309524Y-83381961D02*
X110261905Y-83286723D01*
X110261905Y-83286723D02*
X110214286Y-83096247D01*
X110214286Y-83096247D02*
X110214286Y-82953390D01*
X110214286Y-82953390D02*
X110261905Y-82762914D01*
X110261905Y-82762914D02*
X110309524Y-82667676D01*
X110309524Y-82667676D02*
X110404762Y-82572438D01*
X110404762Y-82572438D02*
X110547619Y-82524819D01*
X110547619Y-82524819D02*
X110642857Y-82524819D01*
X110642857Y-82524819D02*
X110785714Y-82572438D01*
X110785714Y-82572438D02*
X110833333Y-82620057D01*
X111166667Y-82524819D02*
X111785714Y-82524819D01*
X111785714Y-82524819D02*
X111452381Y-82905771D01*
X111452381Y-82905771D02*
X111595238Y-82905771D01*
X111595238Y-82905771D02*
X111690476Y-82953390D01*
X111690476Y-82953390D02*
X111738095Y-83001009D01*
X111738095Y-83001009D02*
X111785714Y-83096247D01*
X111785714Y-83096247D02*
X111785714Y-83334342D01*
X111785714Y-83334342D02*
X111738095Y-83429580D01*
X111738095Y-83429580D02*
X111690476Y-83477200D01*
X111690476Y-83477200D02*
X111595238Y-83524819D01*
X111595238Y-83524819D02*
X111309524Y-83524819D01*
X111309524Y-83524819D02*
X111214286Y-83477200D01*
X111214286Y-83477200D02*
X111166667Y-83429580D01*
D12*
%TO.C,C14*%
X112990000Y-81441233D02*
X112990000Y-81733767D01*
X114010000Y-81441233D02*
X114010000Y-81733767D01*
%TO.C,R3*%
X99245276Y-64977500D02*
X99754724Y-64977500D01*
X99245276Y-66022500D02*
X99754724Y-66022500D01*
%TO.C,C1*%
X99353733Y-57460000D02*
X99646267Y-57460000D01*
X99353733Y-58480000D02*
X99646267Y-58480000D01*
%TO.C,FB2*%
X117182776Y-83677500D02*
X117692224Y-83677500D01*
X117182776Y-84722500D02*
X117692224Y-84722500D01*
%TO.C,C22*%
X122483767Y-82190000D02*
X122191233Y-82190000D01*
X122483767Y-83210000D02*
X122191233Y-83210000D01*
%TO.C,C15*%
X114090000Y-78196267D02*
X114090000Y-77903733D01*
X115110000Y-78196267D02*
X115110000Y-77903733D01*
%TO.C,C13*%
X114490000Y-81416233D02*
X114490000Y-81708767D01*
X115510000Y-81416233D02*
X115510000Y-81708767D01*
%TO.C,C9*%
X118328733Y-70090000D02*
X118621267Y-70090000D01*
X118328733Y-71110000D02*
X118621267Y-71110000D01*
%TO.C,J1*%
X97370000Y-72505000D02*
X97370000Y-69905000D01*
X100030000Y-69905000D02*
X97370000Y-69905000D01*
X100030000Y-72505000D02*
X97370000Y-72505000D01*
X100030000Y-72505000D02*
X100030000Y-69905000D01*
X100030000Y-73775000D02*
X100030000Y-75105000D01*
X100030000Y-75105000D02*
X98700000Y-75105000D01*
%TO.C,C11*%
X101290000Y-73046267D02*
X101290000Y-72753733D01*
X102310000Y-73046267D02*
X102310000Y-72753733D01*
%TO.C,R8*%
X120417224Y-73377500D02*
X119907776Y-73377500D01*
X120417224Y-74422500D02*
X119907776Y-74422500D01*
D13*
%TO.C,IC4*%
X111250000Y-71750000D02*
X112450000Y-71750000D01*
X112800000Y-71800000D02*
X113400000Y-71800000D01*
X112800000Y-74700000D02*
X112800000Y-71800000D01*
X113400000Y-71800000D02*
X113400000Y-74700000D01*
X113400000Y-74700000D02*
X112800000Y-74700000D01*
D12*
%TO.C,J3*%
X111630000Y-62670000D02*
X111630000Y-65330000D01*
X114230000Y-62670000D02*
X111630000Y-62670000D01*
X114230000Y-62670000D02*
X114230000Y-65330000D01*
X114230000Y-65330000D02*
X111630000Y-65330000D01*
X115500000Y-62670000D02*
X116830000Y-62670000D01*
X116830000Y-62670000D02*
X116830000Y-64000000D01*
%TO.C,C26*%
X126490000Y-71646267D02*
X126490000Y-71353733D01*
X127510000Y-71646267D02*
X127510000Y-71353733D01*
D13*
%TO.C,ANT1*%
X97450000Y-85425000D02*
X99875000Y-85425000D01*
X99875000Y-83775000D02*
X97450000Y-83775000D01*
X99875000Y-85425000D02*
X99875000Y-83775000D01*
D14*
%TO.C,Y2*%
X116175000Y-73225000D02*
X116175000Y-72675000D01*
X117775000Y-72675000D02*
X117775000Y-73225000D01*
D13*
X116462500Y-70950000D02*
G75*
G02*
X116262500Y-70950000I-100000J0D01*
G01*
X116262500Y-70950000D02*
G75*
G02*
X116462500Y-70950000I100000J0D01*
G01*
D12*
%TO.C,FB3*%
X114720276Y-70077500D02*
X115229724Y-70077500D01*
X114720276Y-71122500D02*
X115229724Y-71122500D01*
%TO.C,J2*%
X97370000Y-77805000D02*
X97370000Y-75205000D01*
X100030000Y-75205000D02*
X97370000Y-75205000D01*
X100030000Y-77805000D02*
X97370000Y-77805000D01*
X100030000Y-77805000D02*
X100030000Y-75205000D01*
X100030000Y-79075000D02*
X100030000Y-80405000D01*
X100030000Y-80405000D02*
X98700000Y-80405000D01*
%TO.C,C18*%
X111096267Y-70140000D02*
X110803733Y-70140000D01*
X111096267Y-71160000D02*
X110803733Y-71160000D01*
D15*
%TO.C,IC3*%
X122400000Y-75600000D02*
X122400000Y-75600000D01*
X122500000Y-75600000D02*
X122500000Y-75600000D01*
D13*
X123100000Y-74700000D02*
X123500000Y-74700000D01*
X123100000Y-75100000D02*
X123100000Y-74700000D01*
X123100000Y-80300000D02*
X123100000Y-80700000D01*
X123100000Y-80700000D02*
X123500000Y-80700000D01*
X128700000Y-74700000D02*
X129100000Y-74700000D01*
X128700000Y-80700000D02*
X129100000Y-80700000D01*
X129100000Y-74700000D02*
X129100000Y-75100000D01*
X129100000Y-80700000D02*
X129100000Y-80300000D01*
D15*
X122400000Y-75600000D02*
G75*
G02*
X122500000Y-75600000I50000J0D01*
G01*
X122500000Y-75600000D02*
G75*
G02*
X122400000Y-75600000I-50000J0D01*
G01*
D12*
%TO.C,C21*%
X125553733Y-82190000D02*
X125846267Y-82190000D01*
X125553733Y-83210000D02*
X125846267Y-83210000D01*
%TO.C,J6*%
X134100000Y-73700000D02*
X134100000Y-81900000D01*
X137700000Y-73700000D02*
X138200000Y-74200000D01*
X138200000Y-74200000D02*
X138700000Y-73700000D01*
X142300000Y-73700000D02*
X134100000Y-73700000D01*
X142300000Y-73700000D02*
X142300000Y-81900000D01*
X142300000Y-81900000D02*
X134100000Y-81900000D01*
%TO.C,FB1*%
X131027500Y-71245276D02*
X131027500Y-71754724D01*
X132072500Y-71245276D02*
X132072500Y-71754724D01*
%TO.C,C2*%
X99353733Y-59970000D02*
X99646267Y-59970000D01*
X99353733Y-60990000D02*
X99646267Y-60990000D01*
%TO.C,C20*%
X121990000Y-71646267D02*
X121990000Y-71353733D01*
X123010000Y-71646267D02*
X123010000Y-71353733D01*
%TO.C,C8*%
X120296267Y-74790000D02*
X120003733Y-74790000D01*
X120296267Y-75810000D02*
X120003733Y-75810000D01*
D14*
%TO.C,U1*%
X104212500Y-76200000D02*
X104212500Y-76455000D01*
X104212500Y-83200000D02*
X104212500Y-82945000D01*
X104467500Y-76200000D02*
X104212500Y-76200000D01*
X104467500Y-83200000D02*
X104212500Y-83200000D01*
X110957500Y-76200000D02*
X111212500Y-76200000D01*
X110957500Y-83200000D02*
X111212500Y-83200000D01*
X111212500Y-76200000D02*
X111212500Y-76455000D01*
X111212500Y-83200000D02*
X111212500Y-82945000D01*
D13*
X105012500Y-83900000D02*
G75*
G02*
X104812500Y-83900000I-100000J0D01*
G01*
X104812500Y-83900000D02*
G75*
G02*
X105012500Y-83900000I100000J0D01*
G01*
D12*
%TO.C,R1*%
X99245276Y-62467500D02*
X99754724Y-62467500D01*
X99245276Y-63512500D02*
X99754724Y-63512500D01*
%TO.C,R2*%
X107332776Y-83977500D02*
X107842224Y-83977500D01*
X107332776Y-85022500D02*
X107842224Y-85022500D01*
D16*
%TO.C,IC1*%
X120875000Y-76825000D02*
G75*
G02*
X120625000Y-76825000I-125000J0D01*
G01*
X120625000Y-76825000D02*
G75*
G02*
X120875000Y-76825000I125000J0D01*
G01*
D12*
%TO.C,C24*%
X129490000Y-71658767D02*
X129490000Y-71366233D01*
X130510000Y-71658767D02*
X130510000Y-71366233D01*
%TO.C,C19*%
X123490000Y-71646267D02*
X123490000Y-71353733D01*
X124510000Y-71646267D02*
X124510000Y-71353733D01*
%TO.C,C17*%
X120440000Y-71646267D02*
X120440000Y-71353733D01*
X121460000Y-71646267D02*
X121460000Y-71353733D01*
%TO.C,C16*%
X117583767Y-82140000D02*
X117291233Y-82140000D01*
X117583767Y-83160000D02*
X117291233Y-83160000D01*
%TO.C,C25*%
X127990000Y-71646267D02*
X127990000Y-71353733D01*
X129010000Y-71646267D02*
X129010000Y-71353733D01*
%TO.C,C23*%
X124990000Y-71646267D02*
X124990000Y-71353733D01*
X126010000Y-71646267D02*
X126010000Y-71353733D01*
%TO.C,C3*%
X110853733Y-83990000D02*
X111146267Y-83990000D01*
X110853733Y-85010000D02*
X111146267Y-85010000D01*
%TD*%
M02*
