%TF.GenerationSoftware,KiCad,Pcbnew,8.0.6-8.0.6-0~ubuntu24.04.1*%
%TF.CreationDate,2024-10-27T12:08:22+01:00*%
%TF.ProjectId,LoRa,4c6f5261-2e6b-4696-9361-645f70636258,rev?*%
%TF.SameCoordinates,Original*%
%TF.FileFunction,Copper,L1,Top*%
%TF.FilePolarity,Positive*%
%FSLAX46Y46*%
G04 Gerber Fmt 4.6, Leading zero omitted, Abs format (unit mm)*
G04 Created by KiCad (PCBNEW 8.0.6-8.0.6-0~ubuntu24.04.1) date 2024-10-27 12:08:22*
%MOMM*%
%LPD*%
G01*
G04 APERTURE LIST*
G04 Aperture macros list*
%AMRoundRect*
0 Rectangle with rounded corners*
0 $1 Rounding radius*
0 $2 $3 $4 $5 $6 $7 $8 $9 X,Y pos of 4 corners*
0 Add a 4 corners polygon primitive as box body*
4,1,4,$2,$3,$4,$5,$6,$7,$8,$9,$2,$3,0*
0 Add four circle primitives for the rounded corners*
1,1,$1+$1,$2,$3*
1,1,$1+$1,$4,$5*
1,1,$1+$1,$6,$7*
1,1,$1+$1,$8,$9*
0 Add four rect primitives between the rounded corners*
20,1,$1+$1,$2,$3,$4,$5,0*
20,1,$1+$1,$4,$5,$6,$7,0*
20,1,$1+$1,$6,$7,$8,$9,0*
20,1,$1+$1,$8,$9,$2,$3,0*%
G04 Aperture macros list end*
%TA.AperFunction,SMDPad,CuDef*%
%ADD10RoundRect,0.237500X-0.237500X0.300000X-0.237500X-0.300000X0.237500X-0.300000X0.237500X0.300000X0*%
%TD*%
%TA.AperFunction,SMDPad,CuDef*%
%ADD11RoundRect,0.237500X-0.250000X-0.237500X0.250000X-0.237500X0.250000X0.237500X-0.250000X0.237500X0*%
%TD*%
%TA.AperFunction,SMDPad,CuDef*%
%ADD12RoundRect,0.237500X-0.300000X-0.237500X0.300000X-0.237500X0.300000X0.237500X-0.300000X0.237500X0*%
%TD*%
%TA.AperFunction,SMDPad,CuDef*%
%ADD13RoundRect,0.237500X0.300000X0.237500X-0.300000X0.237500X-0.300000X-0.237500X0.300000X-0.237500X0*%
%TD*%
%TA.AperFunction,SMDPad,CuDef*%
%ADD14RoundRect,0.237500X0.237500X-0.300000X0.237500X0.300000X-0.237500X0.300000X-0.237500X-0.300000X0*%
%TD*%
%TA.AperFunction,ComponentPad*%
%ADD15R,1.700000X1.700000*%
%TD*%
%TA.AperFunction,ComponentPad*%
%ADD16O,1.700000X1.700000*%
%TD*%
%TA.AperFunction,SMDPad,CuDef*%
%ADD17RoundRect,0.237500X0.250000X0.237500X-0.250000X0.237500X-0.250000X-0.237500X0.250000X-0.237500X0*%
%TD*%
%TA.AperFunction,SMDPad,CuDef*%
%ADD18R,1.200000X0.600000*%
%TD*%
%TA.AperFunction,SMDPad,CuDef*%
%ADD19R,0.750000X0.950000*%
%TD*%
%TA.AperFunction,SMDPad,CuDef*%
%ADD20R,0.825000X0.630000*%
%TD*%
%TA.AperFunction,SMDPad,CuDef*%
%ADD21R,0.700000X0.400000*%
%TD*%
%TA.AperFunction,SMDPad,CuDef*%
%ADD22R,0.400000X0.700000*%
%TD*%
%TA.AperFunction,SMDPad,CuDef*%
%ADD23R,4.400000X4.400000*%
%TD*%
%TA.AperFunction,ComponentPad*%
%ADD24RoundRect,0.200100X-0.949900X0.949900X-0.949900X-0.949900X0.949900X-0.949900X0.949900X0.949900X0*%
%TD*%
%TA.AperFunction,ComponentPad*%
%ADD25C,2.500000*%
%TD*%
%TA.AperFunction,SMDPad,CuDef*%
%ADD26RoundRect,0.237500X-0.237500X0.250000X-0.237500X-0.250000X0.237500X-0.250000X0.237500X0.250000X0*%
%TD*%
%TA.AperFunction,SMDPad,CuDef*%
%ADD27RoundRect,0.043750X0.131250X-0.181250X0.131250X0.181250X-0.131250X0.181250X-0.131250X-0.181250X0*%
%TD*%
%TA.AperFunction,SMDPad,CuDef*%
%ADD28RoundRect,0.043750X0.181250X-0.131250X0.181250X0.131250X-0.181250X0.131250X-0.181250X-0.131250X0*%
%TD*%
%TA.AperFunction,SMDPad,CuDef*%
%ADD29R,5.400000X5.400000*%
%TD*%
%TA.AperFunction,SMDPad,CuDef*%
%ADD30R,0.300000X0.850000*%
%TD*%
%TA.AperFunction,SMDPad,CuDef*%
%ADD31R,0.850000X0.300000*%
%TD*%
%TA.AperFunction,SMDPad,CuDef*%
%ADD32R,2.650000X2.650000*%
%TD*%
%TA.AperFunction,ComponentPad*%
%ADD33R,1.980000X1.980000*%
%TD*%
%TA.AperFunction,ComponentPad*%
%ADD34C,1.980000*%
%TD*%
%TA.AperFunction,ViaPad*%
%ADD35C,0.600000*%
%TD*%
%TA.AperFunction,ViaPad*%
%ADD36C,0.450000*%
%TD*%
%TA.AperFunction,Conductor*%
%ADD37C,0.500000*%
%TD*%
%TA.AperFunction,Conductor*%
%ADD38C,1.000000*%
%TD*%
%TA.AperFunction,Conductor*%
%ADD39C,0.250000*%
%TD*%
%TA.AperFunction,Conductor*%
%ADD40C,0.200000*%
%TD*%
G04 APERTURE END LIST*
D10*
%TO.P,C14,1*%
%TO.N,Net-(IC1-DCC_FB)*%
X113500000Y-80725000D03*
%TO.P,C14,2*%
%TO.N,GND*%
X113500000Y-82450000D03*
%TD*%
D11*
%TO.P,R3,1*%
%TO.N,+3.3V*%
X98587500Y-65500000D03*
%TO.P,R3,2*%
%TO.N,Net-(IC5-ADJ{slash}GND)*%
X100412500Y-65500000D03*
%TD*%
D12*
%TO.P,C1,1*%
%TO.N,+3.3V*%
X98637500Y-57970000D03*
%TO.P,C1,2*%
%TO.N,GND*%
X100362500Y-57970000D03*
%TD*%
D11*
%TO.P,FB2,1*%
%TO.N,+3.3V*%
X116525000Y-84200000D03*
%TO.P,FB2,2*%
%TO.N,VCC2*%
X118350000Y-84200000D03*
%TD*%
D13*
%TO.P,C22,1*%
%TO.N,VCC2*%
X123200000Y-82700000D03*
%TO.P,C22,2*%
%TO.N,GND*%
X121475000Y-82700000D03*
%TD*%
D14*
%TO.P,C15,1*%
%TO.N,+3.3V*%
X114600000Y-78912500D03*
%TO.P,C15,2*%
%TO.N,GND*%
X114600000Y-77187500D03*
%TD*%
D10*
%TO.P,C13,1*%
%TO.N,Net-(IC1-DCC_FB)*%
X115000000Y-80700000D03*
%TO.P,C13,2*%
%TO.N,GND*%
X115000000Y-82425000D03*
%TD*%
D12*
%TO.P,C9,1*%
%TO.N,Net-(Y2-VDD)*%
X117612500Y-70600000D03*
%TO.P,C9,2*%
%TO.N,GND*%
X119337500Y-70600000D03*
%TD*%
D15*
%TO.P,J1,1,Pin_1*%
%TO.N,+5V*%
X98700000Y-73775000D03*
D16*
%TO.P,J1,2,Pin_2*%
%TO.N,GND*%
X98700000Y-71235000D03*
%TD*%
D14*
%TO.P,C11,1*%
%TO.N,+5V*%
X101800000Y-73762500D03*
%TO.P,C11,2*%
%TO.N,GND*%
X101800000Y-72037500D03*
%TD*%
D17*
%TO.P,R8,1*%
%TO.N,+2V85*%
X121075000Y-73900000D03*
%TO.P,R8,2*%
%TO.N,GND*%
X119250000Y-73900000D03*
%TD*%
D18*
%TO.P,IC4,1,IN*%
%TO.N,+3.3V*%
X111850000Y-72300000D03*
%TO.P,IC4,2,GND*%
%TO.N,GND*%
X111850000Y-73250000D03*
%TO.P,IC4,3,EN*%
%TO.N,CTX*%
X111850000Y-74200000D03*
%TO.P,IC4,4,N/C*%
%TO.N,unconnected-(IC4-N{slash}C-Pad4)*%
X114350000Y-74200000D03*
%TO.P,IC4,5,OUT*%
%TO.N,+2V85*%
X114350000Y-72300000D03*
%TD*%
D15*
%TO.P,J3,1,Pin_1*%
%TO.N,I2C_SDA*%
X115500000Y-64000000D03*
D16*
%TO.P,J3,2,Pin_2*%
%TO.N,I2C_SDL*%
X112960000Y-64000000D03*
%TD*%
D14*
%TO.P,C26,1*%
%TO.N,VCC_PA*%
X127000000Y-72362500D03*
%TO.P,C26,2*%
%TO.N,GND*%
X127000000Y-70637500D03*
%TD*%
D19*
%TO.P,ANT1,1,FEED*%
%TO.N,Net-(ANT1-FEED)*%
X99150000Y-84600000D03*
%TO.P,ANT1,2,NC*%
%TO.N,unconnected-(ANT1-NC-Pad2)*%
X97450000Y-84600000D03*
%TD*%
D20*
%TO.P,Y2,1,GROUND*%
%TO.N,GND*%
X116362500Y-72040000D03*
%TO.P,Y2,2,GROUND*%
X116362500Y-73860000D03*
%TO.P,Y2,3,OUTPUT*%
%TO.N,TCXO*%
X117587500Y-73860000D03*
%TO.P,Y2,4,VDD*%
%TO.N,Net-(Y2-VDD)*%
X117587500Y-72040000D03*
%TD*%
D11*
%TO.P,FB3,1*%
%TO.N,+3.3V*%
X114062500Y-70600000D03*
%TO.P,FB3,2*%
%TO.N,Net-(Y2-VDD)*%
X115887500Y-70600000D03*
%TD*%
D15*
%TO.P,J2,1,Pin_1*%
%TO.N,UART0_TX*%
X98700000Y-79075000D03*
D16*
%TO.P,J2,2,Pin_2*%
%TO.N,UART0_RX*%
X98700000Y-76535000D03*
%TD*%
D13*
%TO.P,C18,1*%
%TO.N,+3.3V*%
X111812500Y-70650000D03*
%TO.P,C18,2*%
%TO.N,GND*%
X110087500Y-70650000D03*
%TD*%
D21*
%TO.P,IC3,1,CSD*%
%TO.N,CSD*%
X123300000Y-75600000D03*
%TO.P,IC3,2,CTX*%
%TO.N,CTX*%
X123300000Y-76300000D03*
%TO.P,IC3,3,CRX*%
%TO.N,CRX*%
X123300000Y-77000000D03*
%TO.P,IC3,4,GND_1*%
%TO.N,GND*%
X123300000Y-77700000D03*
%TO.P,IC3,5,TR*%
%TO.N,Net-(IC1-RFIO)*%
X123300000Y-78400000D03*
%TO.P,IC3,6,GND_2*%
%TO.N,GND*%
X123300000Y-79100000D03*
%TO.P,IC3,7,GND_3*%
X123300000Y-79800000D03*
D22*
%TO.P,IC3,8,VCC2*%
%TO.N,VCC2*%
X124000000Y-80500000D03*
%TO.P,IC3,9,GND_4*%
%TO.N,GND*%
X124700000Y-80500000D03*
%TO.P,IC3,10,GND_5*%
X125400000Y-80500000D03*
%TO.P,IC3,11,GND_6*%
X126100000Y-80500000D03*
%TO.P,IC3,12,GND_7*%
X126800000Y-80500000D03*
%TO.P,IC3,13,GND_8*%
X127500000Y-80500000D03*
%TO.P,IC3,14,GND_9*%
X128200000Y-80500000D03*
D21*
%TO.P,IC3,15,ANT*%
%TO.N,Net-(IC3-ANT)*%
X128900000Y-79800000D03*
%TO.P,IC3,16,GND_10*%
%TO.N,GND*%
X128900000Y-79100000D03*
%TO.P,IC3,17,GND_11*%
X128900000Y-78400000D03*
%TO.P,IC3,18,GND_12*%
X128900000Y-77700000D03*
%TO.P,IC3,19,GND_13*%
X128900000Y-77000000D03*
%TO.P,IC3,20,GND_14*%
X128900000Y-76300000D03*
%TO.P,IC3,21,GND_15*%
X128900000Y-75600000D03*
D22*
%TO.P,IC3,22,VCC4*%
%TO.N,VCC_PA*%
X128200000Y-74900000D03*
%TO.P,IC3,23,GND_16*%
%TO.N,GND*%
X127500000Y-74900000D03*
%TO.P,IC3,24,GND_17*%
X126800000Y-74900000D03*
%TO.P,IC3,25,GND_18*%
X126100000Y-74900000D03*
%TO.P,IC3,26,VCC1*%
%TO.N,VCC_PA*%
X125400000Y-74900000D03*
%TO.P,IC3,27,VREF1*%
%TO.N,+2V85*%
X124700000Y-74900000D03*
%TO.P,IC3,28,VREF2*%
X124000000Y-74900000D03*
D23*
%TO.P,IC3,29,EP*%
%TO.N,GND*%
X126100000Y-77700000D03*
%TD*%
D12*
%TO.P,C21,1*%
%TO.N,VCC2*%
X124837500Y-82700000D03*
%TO.P,C21,2*%
%TO.N,GND*%
X126562500Y-82700000D03*
%TD*%
D24*
%TO.P,J6,1,In*%
%TO.N,Net-(IC3-ANT)*%
X138200000Y-77800000D03*
D25*
%TO.P,J6,2,Ext*%
%TO.N,GND*%
X140740000Y-75260000D03*
X135660000Y-75260000D03*
X140740000Y-80340000D03*
X135660000Y-80340000D03*
%TD*%
D26*
%TO.P,FB1,1*%
%TO.N,+3.3V*%
X131550000Y-70587500D03*
%TO.P,FB1,2*%
%TO.N,VCC_PA*%
X131550000Y-72412500D03*
%TD*%
D12*
%TO.P,C2,1*%
%TO.N,+3.3V*%
X98637500Y-60480000D03*
%TO.P,C2,2*%
%TO.N,GND*%
X100362500Y-60480000D03*
%TD*%
D14*
%TO.P,C20,1*%
%TO.N,+2V85*%
X122500000Y-72362500D03*
%TO.P,C20,2*%
%TO.N,GND*%
X122500000Y-70637500D03*
%TD*%
D13*
%TO.P,C8,1*%
%TO.N,Net-(IC1-VR_PA)*%
X121012500Y-75300000D03*
%TO.P,C8,2*%
%TO.N,GND*%
X119287500Y-75300000D03*
%TD*%
D27*
%TO.P,U1,1,VDDA*%
%TO.N,+3.3V*%
X104962500Y-82965000D03*
%TO.P,U1,2,LNA_IN*%
%TO.N,Net-(ANT1-FEED)*%
X105462500Y-82965000D03*
%TO.P,U1,3,VDDA3P3*%
%TO.N,+3.3V*%
X105962500Y-82965000D03*
%TO.P,U1,4,VDDA3P3*%
X106462500Y-82965000D03*
%TO.P,U1,5,SENSOR_VP*%
%TO.N,unconnected-(U1-SENSOR_VP-Pad5)*%
X106962500Y-82965000D03*
%TO.P,U1,6,SENSOR_CAPP*%
%TO.N,unconnected-(U1-SENSOR_CAPP-Pad6)*%
X107462500Y-82965000D03*
%TO.P,U1,7,SENSOR_CAPN*%
%TO.N,unconnected-(U1-SENSOR_CAPN-Pad7)*%
X107962500Y-82965000D03*
%TO.P,U1,8,SENSOR_VN*%
%TO.N,unconnected-(U1-SENSOR_VN-Pad8)*%
X108462500Y-82965000D03*
%TO.P,U1,9,EN*%
%TO.N,Net-(U1-EN)*%
X108962500Y-82965000D03*
%TO.P,U1,10,IO34*%
%TO.N,unconnected-(U1-IO34-Pad10)*%
X109462500Y-82965000D03*
%TO.P,U1,11,IO35*%
%TO.N,unconnected-(U1-IO35-Pad11)*%
X109962500Y-82965000D03*
%TO.P,U1,12,IO32*%
%TO.N,unconnected-(U1-IO32-Pad12)*%
X110462500Y-82965000D03*
D28*
%TO.P,U1,13,IO33*%
%TO.N,unconnected-(U1-IO33-Pad13)*%
X110977500Y-82450000D03*
%TO.P,U1,14,IO25*%
%TO.N,unconnected-(U1-IO25-Pad14)*%
X110977500Y-81950000D03*
%TO.P,U1,15,IO26*%
%TO.N,unconnected-(U1-IO26-Pad15)*%
X110977500Y-81450000D03*
%TO.P,U1,16,IO27*%
%TO.N,unconnected-(U1-IO27-Pad16)*%
X110977500Y-80950000D03*
%TO.P,U1,17,IO14*%
%TO.N,unconnected-(U1-IO14-Pad17)*%
X110977500Y-80450000D03*
%TO.P,U1,18,IO12*%
%TO.N,unconnected-(U1-IO12-Pad18)*%
X110977500Y-79950000D03*
%TO.P,U1,19,VDD3P3_RTC*%
%TO.N,+3.3V*%
X110977500Y-79450000D03*
%TO.P,U1,20,IO13*%
%TO.N,unconnected-(U1-IO13-Pad20)*%
X110977500Y-78950000D03*
%TO.P,U1,21,IO15*%
%TO.N,unconnected-(U1-IO15-Pad21)*%
X110977500Y-78450000D03*
%TO.P,U1,22,IO2*%
%TO.N,unconnected-(U1-IO2-Pad22)*%
X110977500Y-77950000D03*
%TO.P,U1,23,IO0*%
%TO.N,unconnected-(U1-IO0-Pad23)*%
X110977500Y-77450000D03*
%TO.P,U1,24,IO4*%
%TO.N,unconnected-(U1-IO4-Pad24)*%
X110977500Y-76950000D03*
D27*
%TO.P,U1,25,IO16*%
%TO.N,unconnected-(U1-IO16-Pad25)*%
X110462500Y-76435000D03*
%TO.P,U1,26,VDD_SDIO*%
%TO.N,unconnected-(U1-VDD_SDIO-Pad26)*%
X109962500Y-76435000D03*
%TO.P,U1,27,IO17*%
%TO.N,unconnected-(U1-IO17-Pad27)*%
X109462500Y-76435000D03*
%TO.P,U1,28,SD2*%
%TO.N,unconnected-(U1-SD2-Pad28)*%
X108962500Y-76435000D03*
%TO.P,U1,29,SD3*%
%TO.N,unconnected-(U1-SD3-Pad29)*%
X108462500Y-76435000D03*
%TO.P,U1,30,CMD*%
%TO.N,unconnected-(U1-CMD-Pad30)*%
X107962500Y-76435000D03*
%TO.P,U1,31,CLK*%
%TO.N,unconnected-(U1-CLK-Pad31)*%
X107462500Y-76435000D03*
%TO.P,U1,32,SD0*%
%TO.N,unconnected-(U1-SD0-Pad32)*%
X106962500Y-76435000D03*
%TO.P,U1,33,SD1*%
%TO.N,unconnected-(U1-SD1-Pad33)*%
X106462500Y-76435000D03*
%TO.P,U1,34,IO5*%
%TO.N,unconnected-(U1-IO5-Pad34)*%
X105962500Y-76435000D03*
%TO.P,U1,35,IO18*%
%TO.N,unconnected-(U1-IO18-Pad35)*%
X105462500Y-76435000D03*
%TO.P,U1,36,IO23*%
%TO.N,unconnected-(U1-IO23-Pad36)*%
X104962500Y-76435000D03*
D28*
%TO.P,U1,37,VDD3P3_CPU*%
%TO.N,+3.3V*%
X104447500Y-76950000D03*
%TO.P,U1,38,IO19*%
%TO.N,unconnected-(U1-IO19-Pad38)*%
X104447500Y-77450000D03*
%TO.P,U1,39,IO22*%
%TO.N,unconnected-(U1-IO22-Pad39)*%
X104447500Y-77950000D03*
%TO.P,U1,40,U0RXD*%
%TO.N,UART0_RX*%
X104447500Y-78450000D03*
%TO.P,U1,41,U0TXD*%
%TO.N,UART0_TX*%
X104447500Y-78950000D03*
%TO.P,U1,42,IO21*%
%TO.N,unconnected-(U1-IO21-Pad42)*%
X104447500Y-79450000D03*
%TO.P,U1,43,VDDA*%
%TO.N,+3.3V*%
X104447500Y-79950000D03*
%TO.P,U1,44,XTAL_N_NC*%
%TO.N,unconnected-(U1-XTAL_N_NC-Pad44)*%
X104447500Y-80450000D03*
%TO.P,U1,45,XTAL_P_NC*%
%TO.N,unconnected-(U1-XTAL_P_NC-Pad45)*%
X104447500Y-80950000D03*
%TO.P,U1,46,VDDA*%
%TO.N,+3.3V*%
X104447500Y-81450000D03*
%TO.P,U1,47,CAP2_NC*%
%TO.N,unconnected-(U1-CAP2_NC-Pad47)*%
X104447500Y-81950000D03*
%TO.P,U1,48,CAP1_NC*%
%TO.N,unconnected-(U1-CAP1_NC-Pad48)*%
X104447500Y-82450000D03*
D29*
%TO.P,U1,49,GND*%
%TO.N,GND*%
X107712500Y-79700000D03*
%TD*%
D11*
%TO.P,R1,1*%
%TO.N,GND*%
X98587500Y-62990000D03*
%TO.P,R1,2*%
%TO.N,Net-(IC5-ADJ{slash}GND)*%
X100412500Y-62990000D03*
%TD*%
%TO.P,R2,1*%
%TO.N,+3.3V*%
X106675000Y-84500000D03*
%TO.P,R2,2*%
%TO.N,Net-(U1-EN)*%
X108500000Y-84500000D03*
%TD*%
D30*
%TO.P,IC1,1,VR_PA*%
%TO.N,Net-(IC1-VR_PA)*%
X120000000Y-77250000D03*
%TO.P,IC1,2,VDD_IN*%
%TO.N,Net-(IC1-DCC_FB)*%
X119500000Y-77250000D03*
%TO.P,IC1,3,NRESET*%
%TO.N,SX_NRES*%
X119000000Y-77250000D03*
%TO.P,IC1,4,XTA*%
%TO.N,TCXO*%
X118500000Y-77250000D03*
%TO.P,IC1,5,GND_1*%
%TO.N,GND*%
X118000000Y-77250000D03*
%TO.P,IC1,6,XTB*%
%TO.N,unconnected-(IC1-XTB-Pad6)*%
X117500000Y-77250000D03*
D31*
%TO.P,IC1,7,BUSY*%
%TO.N,SX_BUSY*%
X116800000Y-77950000D03*
%TO.P,IC1,8,DIO1*%
%TO.N,SX_DIO*%
X116800000Y-78450000D03*
%TO.P,IC1,9,DIO2*%
%TO.N,unconnected-(IC1-DIO2-Pad9)*%
X116800000Y-78950000D03*
%TO.P,IC1,10,DIO3*%
%TO.N,unconnected-(IC1-DIO3-Pad10)*%
X116800000Y-79450000D03*
%TO.P,IC1,11,VBAT_IO*%
%TO.N,+3.3V*%
X116800000Y-79950000D03*
%TO.P,IC1,12,DCC_FB*%
%TO.N,Net-(IC1-DCC_FB)*%
X116800000Y-80450000D03*
D30*
%TO.P,IC1,13,GND_2*%
%TO.N,GND*%
X117500000Y-81150000D03*
%TO.P,IC1,14,DCC_SW*%
%TO.N,unconnected-(IC1-DCC_SW-Pad14)*%
X118000000Y-81150000D03*
%TO.P,IC1,15,VBAT*%
%TO.N,VCC2*%
X118500000Y-81150000D03*
%TO.P,IC1,16,MISO_TX*%
%TO.N,SX_MISO*%
X119000000Y-81150000D03*
%TO.P,IC1,17,MOSI_RX*%
%TO.N,SX_MOSI*%
X119500000Y-81150000D03*
%TO.P,IC1,18,SCK_RTSN*%
%TO.N,SX_SCK*%
X120000000Y-81150000D03*
D31*
%TO.P,IC1,19,NSS_CTS*%
%TO.N,SX_CS*%
X120700000Y-80450000D03*
%TO.P,IC1,20,GND_3*%
%TO.N,GND*%
X120700000Y-79950000D03*
%TO.P,IC1,21,GND_4*%
X120700000Y-79450000D03*
%TO.P,IC1,22,RFIO*%
%TO.N,Net-(IC1-RFIO)*%
X120700000Y-78950000D03*
%TO.P,IC1,23,GND_5*%
%TO.N,GND*%
X120700000Y-78450000D03*
%TO.P,IC1,24,GND_6*%
X120700000Y-77950000D03*
D32*
%TO.P,IC1,25,EP*%
X118750000Y-79200000D03*
%TD*%
D14*
%TO.P,C24,1*%
%TO.N,VCC_PA*%
X130000000Y-72375000D03*
%TO.P,C24,2*%
%TO.N,GND*%
X130000000Y-70650000D03*
%TD*%
%TO.P,C19,1*%
%TO.N,+2V85*%
X124000000Y-72362500D03*
%TO.P,C19,2*%
%TO.N,GND*%
X124000000Y-70637500D03*
%TD*%
%TO.P,C17,1*%
%TO.N,+2V85*%
X120950000Y-72362500D03*
%TO.P,C17,2*%
%TO.N,GND*%
X120950000Y-70637500D03*
%TD*%
D13*
%TO.P,C16,1*%
%TO.N,VCC2*%
X118300000Y-82650000D03*
%TO.P,C16,2*%
%TO.N,GND*%
X116575000Y-82650000D03*
%TD*%
D14*
%TO.P,C25,1*%
%TO.N,VCC_PA*%
X128500000Y-72362500D03*
%TO.P,C25,2*%
%TO.N,GND*%
X128500000Y-70637500D03*
%TD*%
%TO.P,C23,1*%
%TO.N,VCC_PA*%
X125500000Y-72362500D03*
%TO.P,C23,2*%
%TO.N,GND*%
X125500000Y-70637500D03*
%TD*%
D12*
%TO.P,C3,1*%
%TO.N,Net-(U1-EN)*%
X110137500Y-84500000D03*
%TO.P,C3,2*%
%TO.N,GND*%
X111862500Y-84500000D03*
%TD*%
D33*
%TO.P,IC5,1,ADJ/GND*%
%TO.N,Net-(IC5-ADJ{slash}GND)*%
X106500000Y-58500000D03*
D34*
%TO.P,IC5,2,OUTPUT*%
%TO.N,+3.3V*%
X106500000Y-61050000D03*
%TO.P,IC5,3,INPUT*%
%TO.N,+5V*%
X106500000Y-63600000D03*
%TD*%
D35*
%TO.N,+3.3V*%
X113000000Y-70900000D03*
X133100000Y-72100000D03*
D36*
X106259670Y-83895738D03*
D35*
X133100000Y-70600000D03*
X111850000Y-72300000D03*
D36*
X106675000Y-84500000D03*
X102400000Y-77700000D03*
X103667500Y-82932500D03*
D35*
X111850000Y-72300000D03*
X133100000Y-71299997D03*
D36*
X103600000Y-81500000D03*
X102400000Y-76600000D03*
D35*
X113000000Y-70200000D03*
D36*
X103600000Y-82200000D03*
X103100000Y-77162500D03*
X106100000Y-84500000D03*
X102700000Y-77162500D03*
D35*
X133100000Y-72900000D03*
X111812500Y-70650000D03*
D36*
X103600000Y-76950000D03*
D35*
X112000000Y-79400000D03*
D36*
X102900000Y-76600000D03*
D35*
%TO.N,+5V*%
X101700000Y-73775000D03*
X100200000Y-73775000D03*
X100900000Y-73775000D03*
%TO.N,GND*%
X107712500Y-79700000D03*
D36*
%TO.N,Net-(IC1-DCC_FB)*%
X119700000Y-76400000D03*
X116000000Y-80900000D03*
%TO.N,+2V85*%
X115300000Y-72300000D03*
X115300000Y-72900000D03*
X120750002Y-72906694D03*
X120950000Y-72362500D03*
%TO.N,CRX*%
X121800000Y-77150000D03*
%TO.N,CTX*%
X121750000Y-76400000D03*
D35*
X110050000Y-74350000D03*
D36*
%TO.N,SX_MOSI*%
X120700000Y-81700000D03*
%TO.N,SX_MISO*%
X120600000Y-82400000D03*
%TO.N,SX_CS*%
X121500000Y-80450000D03*
%TO.N,SX_SCK*%
X121500000Y-81150000D03*
%TO.N,SX_NRES*%
X119081062Y-76201458D03*
%TD*%
D37*
%TO.N,+3.3V*%
X103600000Y-82200000D02*
X103600000Y-82865000D01*
D38*
X131550000Y-70587500D02*
X133087500Y-70587500D01*
X133087500Y-70587500D02*
X133100000Y-70600000D01*
D39*
X106250000Y-84500000D02*
X106100000Y-84500000D01*
D37*
X103667500Y-82932500D02*
X103700000Y-82965000D01*
D38*
X133100000Y-70600000D02*
X133100000Y-71299997D01*
D37*
X103387500Y-77162500D02*
X103600000Y-76950000D01*
D39*
X103700000Y-82965000D02*
X104962500Y-82965000D01*
X105962500Y-82965000D02*
X105962500Y-83000000D01*
D37*
X103437500Y-75000000D02*
X103400000Y-75037500D01*
D39*
X103700000Y-79950000D02*
X104447500Y-79950000D01*
X105962500Y-83000000D02*
X105997500Y-82965000D01*
X103600000Y-76950000D02*
X103550000Y-76950000D01*
D37*
X103600000Y-81600000D02*
X103600000Y-82200000D01*
D39*
X114700000Y-79012500D02*
X114600000Y-78912500D01*
X116800000Y-79950000D02*
X116125000Y-79950000D01*
D38*
X133100000Y-71299997D02*
X133100000Y-72900000D01*
D39*
X104447500Y-79950000D02*
X104112296Y-79950000D01*
X103600000Y-80050000D02*
X103700000Y-79950000D01*
X106462500Y-84287500D02*
X106250000Y-84500000D01*
X103550000Y-76950000D02*
X103500000Y-77000000D01*
D37*
X102200000Y-77162500D02*
X102700000Y-77162500D01*
D39*
X111950000Y-79450000D02*
X112000000Y-79400000D01*
X114700000Y-79550000D02*
X114700000Y-79012500D01*
D37*
X103400000Y-75037500D02*
X103400000Y-76750000D01*
X103600000Y-81500000D02*
X103600000Y-81600000D01*
D39*
X110977500Y-79450000D02*
X111950000Y-79450000D01*
X115725000Y-79550000D02*
X114700000Y-79550000D01*
D37*
X102700000Y-77162500D02*
X103100000Y-77162500D01*
D39*
X104447500Y-76950000D02*
X103600000Y-76950000D01*
D37*
X103400000Y-76750000D02*
X103600000Y-76950000D01*
D39*
X116125000Y-79950000D02*
X115725000Y-79550000D01*
D37*
X103100000Y-77162500D02*
X103387500Y-77162500D01*
X103600000Y-80050000D02*
X103600000Y-81500000D01*
D39*
X103750000Y-81450000D02*
X103600000Y-81600000D01*
D37*
X103600000Y-82865000D02*
X103667500Y-82932500D01*
D39*
X104447500Y-81450000D02*
X103750000Y-81450000D01*
D38*
%TO.N,+5V*%
X101787500Y-73775000D02*
X101800000Y-73762500D01*
X101700000Y-73775000D02*
X101787500Y-73775000D01*
X100900000Y-73775000D02*
X101700000Y-73775000D01*
X98700000Y-73775000D02*
X100200000Y-73775000D01*
X100200000Y-73775000D02*
X100900000Y-73775000D01*
D40*
%TO.N,GND*%
X118000000Y-78450000D02*
X118750000Y-79200000D01*
D38*
X98700000Y-71235000D02*
X100997500Y-71235000D01*
D40*
X118000000Y-77250000D02*
X118000000Y-78450000D01*
D38*
X100997500Y-71235000D02*
X101800000Y-72037500D01*
D39*
%TO.N,Net-(U1-EN)*%
X108962500Y-84037500D02*
X108962500Y-82965000D01*
X108500000Y-84500000D02*
X108962500Y-84037500D01*
X109425000Y-84500000D02*
X108962500Y-84037500D01*
X110137500Y-84500000D02*
X109425000Y-84500000D01*
%TO.N,Net-(IC1-VR_PA)*%
X121012500Y-76237500D02*
X121012500Y-75300000D01*
X120000000Y-77250000D02*
X120912500Y-76337500D01*
X120912500Y-76337500D02*
X121012500Y-76237500D01*
%TO.N,Net-(IC1-DCC_FB)*%
X116000000Y-80450000D02*
X116000000Y-80900000D01*
X113775000Y-80450000D02*
X113500000Y-80725000D01*
X116000000Y-80450000D02*
X115375000Y-80450000D01*
X115275000Y-80450000D02*
X113775000Y-80450000D01*
X115650000Y-80450000D02*
X115375000Y-80450000D01*
X116800000Y-80450000D02*
X116000000Y-80450000D01*
X115350000Y-80450000D02*
X115100000Y-80700000D01*
X116800000Y-80450000D02*
X115650000Y-80450000D01*
X115650000Y-80450000D02*
X115350000Y-80450000D01*
X119500000Y-77250000D02*
X119500000Y-76600000D01*
X119500000Y-76600000D02*
X119700000Y-76400000D01*
D37*
%TO.N,VCC2*%
X124987500Y-82650000D02*
X125187500Y-82850000D01*
D39*
X118300000Y-84150000D02*
X118350000Y-84200000D01*
X122800000Y-84200000D02*
X123100000Y-83900000D01*
X118450000Y-81150000D02*
X118450000Y-82500000D01*
D37*
X124000000Y-82650000D02*
X124987500Y-82650000D01*
D39*
X124000000Y-83000000D02*
X124000000Y-82650000D01*
X118300000Y-82650000D02*
X118300000Y-84150000D01*
X124000000Y-80500000D02*
X124000000Y-82650000D01*
X118450000Y-82500000D02*
X118300000Y-82650000D01*
X118350000Y-84200000D02*
X122800000Y-84200000D01*
D37*
X123412500Y-82650000D02*
X124000000Y-82650000D01*
D39*
X123100000Y-83900000D02*
X124000000Y-83000000D01*
D37*
%TO.N,+2V85*%
X120950000Y-72362500D02*
X124000000Y-72362500D01*
D39*
X122500000Y-72362500D02*
X122500000Y-72550000D01*
X124000000Y-73200000D02*
X124700000Y-73900000D01*
X124000000Y-74050000D02*
X124000000Y-74900000D01*
D37*
X120750002Y-72906694D02*
X120750002Y-72562498D01*
X120750002Y-72562498D02*
X120950000Y-72362500D01*
D39*
X124700000Y-73900000D02*
X124700000Y-74900000D01*
D37*
X121075000Y-73231692D02*
X121075000Y-73900000D01*
D39*
X124000000Y-72362500D02*
X124000000Y-73200000D01*
X122500000Y-72550000D02*
X124000000Y-74050000D01*
D37*
X120750002Y-72906694D02*
X121075000Y-73231692D01*
X114400000Y-72300000D02*
X115300000Y-72300000D01*
X115300000Y-72900000D02*
X115300000Y-72300000D01*
%TO.N,VCC_PA*%
X125500000Y-73800000D02*
X125400000Y-73900000D01*
X131100000Y-73900000D02*
X130000000Y-73900000D01*
X128200000Y-74900000D02*
X128200000Y-74000000D01*
X127000000Y-72362500D02*
X127000000Y-73850000D01*
X131550000Y-73450000D02*
X131100000Y-73900000D01*
X125400000Y-74900000D02*
X125400000Y-73900000D01*
X128500000Y-72362500D02*
X128500000Y-73700000D01*
X128500000Y-73700000D02*
X128300000Y-73900000D01*
D39*
X127000000Y-73850000D02*
X126950000Y-73900000D01*
D37*
X130000000Y-72375000D02*
X130000000Y-73900000D01*
X128300000Y-73900000D02*
X125400000Y-73900000D01*
X130000000Y-73900000D02*
X128300000Y-73900000D01*
X125500000Y-72362500D02*
X125500000Y-73800000D01*
X131550000Y-72412500D02*
X131550000Y-73450000D01*
D40*
%TO.N,Net-(IC3-ANT)*%
X130800000Y-79800000D02*
X132800000Y-77800000D01*
X132800000Y-77800000D02*
X138200000Y-77800000D01*
X128900000Y-79800000D02*
X130800000Y-79800000D01*
D39*
%TO.N,CRX*%
X121950000Y-77000000D02*
X121800000Y-77150000D01*
X122150000Y-77000000D02*
X121950000Y-77000000D01*
X123300000Y-77000000D02*
X122150000Y-77000000D01*
%TO.N,CTX*%
X110000000Y-74300000D02*
X110050000Y-74350000D01*
X121850000Y-76300000D02*
X123300000Y-76300000D01*
X121850000Y-76300000D02*
X121750000Y-76400000D01*
X110100000Y-74200000D02*
X110000000Y-74300000D01*
X111850000Y-74200000D02*
X110100000Y-74200000D01*
D40*
%TO.N,SX_BUSY*%
X116800000Y-77950000D02*
X115850000Y-77950000D01*
D39*
%TO.N,SX_MOSI*%
X120500000Y-81900000D02*
X119525000Y-81900000D01*
X119500000Y-81875000D02*
X119500000Y-81150000D01*
X120700000Y-81700000D02*
X120500000Y-81900000D01*
X119525000Y-81900000D02*
X119500000Y-81875000D01*
%TO.N,SX_MISO*%
X120600000Y-82400000D02*
X119388604Y-82400000D01*
X119000000Y-82010424D02*
X119000000Y-81150000D01*
X119162500Y-82172924D02*
X119000000Y-82010424D01*
X119162500Y-82173896D02*
X119162500Y-82172924D01*
X119388604Y-82400000D02*
X119162500Y-82173896D01*
%TO.N,SX_CS*%
X120700000Y-80450000D02*
X121500000Y-80450000D01*
D40*
%TO.N,SX_DIO*%
X116800000Y-78450000D02*
X115800000Y-78450000D01*
D39*
%TO.N,SX_SCK*%
X120000000Y-81150000D02*
X121500000Y-81150000D01*
%TO.N,SX_NRES*%
X119081062Y-76201458D02*
X119000000Y-76282520D01*
X119000000Y-76282520D02*
X119000000Y-77250000D01*
D37*
%TO.N,unconnected-(ANT1-NC-Pad2)*%
X97450000Y-84600000D02*
X97450000Y-81600000D01*
X97450000Y-81600000D02*
X98500000Y-81600000D01*
D40*
%TO.N,TCXO*%
X117587500Y-75712500D02*
X118500000Y-76625000D01*
X118500000Y-76625000D02*
X118500000Y-77250000D01*
X117587500Y-73860000D02*
X117587500Y-75712500D01*
D39*
%TO.N,UART0_RX*%
X100615000Y-78450000D02*
X104447500Y-78450000D01*
X98700000Y-76535000D02*
X100615000Y-78450000D01*
%TO.N,UART0_TX*%
X98700000Y-79075000D02*
X98825000Y-78950000D01*
X98825000Y-78950000D02*
X104447500Y-78950000D01*
D40*
%TO.N,Net-(IC1-RFIO)*%
X120700000Y-78950000D02*
X121600000Y-78950000D01*
X122150000Y-78400000D02*
X123300000Y-78400000D01*
X121600000Y-78950000D02*
X122150000Y-78400000D01*
D37*
%TO.N,Net-(Y2-VDD)*%
X115887500Y-70600000D02*
X117612500Y-70600000D01*
X117612500Y-70600000D02*
X117612500Y-72015000D01*
X117612500Y-72015000D02*
X117587500Y-72040000D01*
D40*
%TO.N,Net-(ANT1-FEED)*%
X104727350Y-84000000D02*
X99850000Y-84000000D01*
X105462500Y-83264850D02*
X104727350Y-84000000D01*
X105462500Y-82965000D02*
X105462500Y-83264850D01*
X99850000Y-84000000D02*
X99350000Y-84500000D01*
%TD*%
%TA.AperFunction,Conductor*%
%TO.N,+3.3V*%
G36*
X114796632Y-69753868D02*
G01*
X114800000Y-69762000D01*
X114800000Y-71288500D01*
X114796632Y-71296632D01*
X114788500Y-71300000D01*
X112700000Y-71300000D01*
X112700000Y-71300001D01*
X112700000Y-72688500D01*
X112696632Y-72696632D01*
X112688500Y-72700000D01*
X111111500Y-72700000D01*
X111103368Y-72696632D01*
X111100000Y-72688500D01*
X111100000Y-69762000D01*
X111103368Y-69753868D01*
X111111500Y-69750500D01*
X114788500Y-69750500D01*
X114796632Y-69753868D01*
G37*
%TD.AperFunction*%
%TD*%
%TA.AperFunction,Conductor*%
%TO.N,GND*%
G36*
X110772826Y-69772174D02*
G01*
X110794500Y-69824500D01*
X110794500Y-72688500D01*
X110794581Y-72695544D01*
X110817750Y-72805398D01*
X110821118Y-72813530D01*
X110821120Y-72813534D01*
X110821131Y-72813560D01*
X110826827Y-72826461D01*
X110826828Y-72826462D01*
X110892401Y-72917592D01*
X110892402Y-72917592D01*
X110892403Y-72917594D01*
X110915211Y-72932454D01*
X110986448Y-72978868D01*
X110986470Y-72978882D01*
X110994602Y-72982250D01*
X111001141Y-72984870D01*
X111111500Y-73005500D01*
X112688506Y-73005500D01*
X112688955Y-73005494D01*
X112695544Y-73005419D01*
X112805398Y-72982250D01*
X112813530Y-72978882D01*
X112826463Y-72973171D01*
X112917594Y-72907597D01*
X112978882Y-72813530D01*
X112982250Y-72805398D01*
X112984870Y-72798859D01*
X113005500Y-72688500D01*
X113005500Y-71679500D01*
X113027174Y-71627174D01*
X113079500Y-71605500D01*
X113548702Y-71605500D01*
X113601028Y-71627174D01*
X113622702Y-71679500D01*
X113601028Y-71731826D01*
X113578592Y-71747195D01*
X113577234Y-71747794D01*
X113497794Y-71827234D01*
X113452414Y-71930011D01*
X113449500Y-71955135D01*
X113449500Y-72644863D01*
X113452414Y-72669986D01*
X113452415Y-72669992D01*
X113488729Y-72752234D01*
X113497794Y-72772765D01*
X113577235Y-72852206D01*
X113680009Y-72897585D01*
X113705135Y-72900500D01*
X114675500Y-72900499D01*
X114727826Y-72922173D01*
X114746784Y-72967942D01*
X114748867Y-72967668D01*
X114749500Y-72972477D01*
X114787014Y-73112481D01*
X114787016Y-73112486D01*
X114843234Y-73209857D01*
X114859491Y-73238015D01*
X114961985Y-73340509D01*
X115087515Y-73412984D01*
X115087516Y-73412984D01*
X115087518Y-73412985D01*
X115157520Y-73431742D01*
X115227522Y-73450499D01*
X115227523Y-73450500D01*
X115227525Y-73450500D01*
X115372477Y-73450500D01*
X115372477Y-73450499D01*
X115512485Y-73412984D01*
X115638015Y-73340509D01*
X115740509Y-73238015D01*
X115812984Y-73112485D01*
X115850499Y-72972477D01*
X115850500Y-72972477D01*
X115850500Y-72227523D01*
X115850499Y-72227522D01*
X115812985Y-72087518D01*
X115812983Y-72087513D01*
X115793563Y-72053876D01*
X115740509Y-71961985D01*
X115638015Y-71859491D01*
X115630685Y-71855259D01*
X115512486Y-71787016D01*
X115512481Y-71787014D01*
X115372477Y-71749500D01*
X115372475Y-71749500D01*
X115142239Y-71749500D01*
X115112349Y-71743195D01*
X115019991Y-71702415D01*
X115019990Y-71702414D01*
X115019988Y-71702414D01*
X114994865Y-71699500D01*
X114980436Y-71699500D01*
X114928110Y-71677826D01*
X114906436Y-71625500D01*
X114928110Y-71573174D01*
X114937215Y-71565434D01*
X115017594Y-71507597D01*
X115078882Y-71413530D01*
X115082250Y-71405398D01*
X115084870Y-71398859D01*
X115105500Y-71288500D01*
X115105500Y-71246384D01*
X115127174Y-71194058D01*
X115179500Y-71172384D01*
X115231826Y-71194058D01*
X115238457Y-71201663D01*
X115253500Y-71221500D01*
X115371342Y-71310862D01*
X115508923Y-71365117D01*
X115584998Y-71374252D01*
X115595381Y-71375500D01*
X115595382Y-71375500D01*
X116179619Y-71375500D01*
X116188888Y-71374386D01*
X116266077Y-71365117D01*
X116403658Y-71310862D01*
X116521500Y-71221500D01*
X116553132Y-71179787D01*
X116602020Y-71151189D01*
X116612096Y-71150500D01*
X116837904Y-71150500D01*
X116890230Y-71172174D01*
X116896868Y-71179787D01*
X116928499Y-71221499D01*
X116928500Y-71221500D01*
X117032713Y-71300527D01*
X117061311Y-71349415D01*
X117062000Y-71359491D01*
X117062000Y-71398186D01*
X117040326Y-71450512D01*
X117017892Y-71465880D01*
X117002235Y-71472793D01*
X116922794Y-71552234D01*
X116877414Y-71655011D01*
X116874500Y-71680135D01*
X116874500Y-72399863D01*
X116877414Y-72424986D01*
X116877415Y-72424991D01*
X116922794Y-72527765D01*
X117002235Y-72607206D01*
X117105009Y-72652585D01*
X117130135Y-72655500D01*
X118044864Y-72655499D01*
X118069991Y-72652585D01*
X118172765Y-72607206D01*
X118252206Y-72527765D01*
X118297585Y-72424991D01*
X118300500Y-72399865D01*
X118300499Y-71680136D01*
X118297585Y-71655009D01*
X118252206Y-71552235D01*
X118184674Y-71484703D01*
X118163000Y-71432377D01*
X118163000Y-71359491D01*
X118184674Y-71307165D01*
X118192287Y-71300527D01*
X118263685Y-71246384D01*
X118296500Y-71221500D01*
X118385862Y-71103658D01*
X118440117Y-70966077D01*
X118450500Y-70879618D01*
X118450500Y-70320382D01*
X118440117Y-70233923D01*
X118385862Y-70096342D01*
X118296500Y-69978500D01*
X118263532Y-69953500D01*
X118178654Y-69889135D01*
X118178415Y-69889001D01*
X118178323Y-69888884D01*
X118174625Y-69886080D01*
X118175359Y-69885111D01*
X118143429Y-69844461D01*
X118150185Y-69788229D01*
X118194725Y-69753243D01*
X118214686Y-69750500D01*
X130976144Y-69750500D01*
X131028470Y-69772174D01*
X131050144Y-69824500D01*
X131028470Y-69876826D01*
X131020858Y-69883462D01*
X131005272Y-69895282D01*
X130928500Y-69953499D01*
X130928499Y-69953500D01*
X130839137Y-70071342D01*
X130784883Y-70208922D01*
X130774500Y-70295380D01*
X130774500Y-70375686D01*
X130773078Y-70390122D01*
X130749500Y-70508658D01*
X130749500Y-70666340D01*
X130773078Y-70784875D01*
X130774500Y-70799312D01*
X130774500Y-70879619D01*
X130784883Y-70966077D01*
X130839137Y-71103657D01*
X130875182Y-71151189D01*
X130928500Y-71221500D01*
X131046342Y-71310862D01*
X131183923Y-71365117D01*
X131259998Y-71374252D01*
X131270381Y-71375500D01*
X131270382Y-71375500D01*
X131401029Y-71375500D01*
X131415465Y-71376921D01*
X131471158Y-71388000D01*
X132225500Y-71388000D01*
X132277826Y-71409674D01*
X132299500Y-71462000D01*
X132299500Y-71727848D01*
X132277826Y-71780174D01*
X132225500Y-71801848D01*
X132175769Y-71781248D01*
X132175534Y-71781559D01*
X132174349Y-71780661D01*
X132173174Y-71780174D01*
X132171499Y-71778499D01*
X132053657Y-71689137D01*
X131916077Y-71634883D01*
X131829619Y-71624500D01*
X131829618Y-71624500D01*
X131270382Y-71624500D01*
X131270381Y-71624500D01*
X131183922Y-71634883D01*
X131046342Y-71689137D01*
X130928500Y-71778499D01*
X130928499Y-71778500D01*
X130856971Y-71872825D01*
X130808083Y-71901423D01*
X130753294Y-71887076D01*
X130729167Y-71855260D01*
X130710862Y-71808842D01*
X130621500Y-71691000D01*
X130619044Y-71689137D01*
X130503657Y-71601637D01*
X130366077Y-71547383D01*
X130279619Y-71537000D01*
X130279618Y-71537000D01*
X129720382Y-71537000D01*
X129720381Y-71537000D01*
X129633922Y-71547383D01*
X129496342Y-71601637D01*
X129378500Y-71690999D01*
X129378498Y-71691001D01*
X129313702Y-71776448D01*
X129264815Y-71805045D01*
X129210025Y-71790697D01*
X129195775Y-71776447D01*
X129170559Y-71743195D01*
X129121500Y-71678500D01*
X129120612Y-71677826D01*
X129003657Y-71589137D01*
X128866077Y-71534883D01*
X128779619Y-71524500D01*
X128779618Y-71524500D01*
X128220382Y-71524500D01*
X128220381Y-71524500D01*
X128133922Y-71534883D01*
X127996342Y-71589137D01*
X127878500Y-71678499D01*
X127878499Y-71678500D01*
X127808964Y-71770197D01*
X127760076Y-71798795D01*
X127705287Y-71784448D01*
X127691036Y-71770197D01*
X127621500Y-71678500D01*
X127621499Y-71678499D01*
X127503657Y-71589137D01*
X127366077Y-71534883D01*
X127279619Y-71524500D01*
X127279618Y-71524500D01*
X126720382Y-71524500D01*
X126720381Y-71524500D01*
X126633922Y-71534883D01*
X126496342Y-71589137D01*
X126378500Y-71678499D01*
X126378499Y-71678500D01*
X126308964Y-71770197D01*
X126260076Y-71798795D01*
X126205287Y-71784448D01*
X126191036Y-71770197D01*
X126121500Y-71678500D01*
X126121499Y-71678499D01*
X126003657Y-71589137D01*
X125866077Y-71534883D01*
X125779619Y-71524500D01*
X125779618Y-71524500D01*
X125220382Y-71524500D01*
X125220381Y-71524500D01*
X125133922Y-71534883D01*
X124996342Y-71589137D01*
X124878500Y-71678499D01*
X124878499Y-71678500D01*
X124808964Y-71770197D01*
X124760076Y-71798795D01*
X124705287Y-71784448D01*
X124691036Y-71770197D01*
X124621500Y-71678500D01*
X124621499Y-71678499D01*
X124503657Y-71589137D01*
X124366077Y-71534883D01*
X124279619Y-71524500D01*
X124279618Y-71524500D01*
X123720382Y-71524500D01*
X123720381Y-71524500D01*
X123633922Y-71534883D01*
X123496342Y-71589137D01*
X123378500Y-71678499D01*
X123378499Y-71678500D01*
X123308964Y-71770197D01*
X123260076Y-71798795D01*
X123205287Y-71784448D01*
X123191036Y-71770197D01*
X123121500Y-71678500D01*
X123121499Y-71678499D01*
X123003657Y-71589137D01*
X122866077Y-71534883D01*
X122779619Y-71524500D01*
X122779618Y-71524500D01*
X122220382Y-71524500D01*
X122220381Y-71524500D01*
X122133922Y-71534883D01*
X121996342Y-71589137D01*
X121878500Y-71678499D01*
X121878499Y-71678500D01*
X121799473Y-71782713D01*
X121750585Y-71811311D01*
X121740509Y-71812000D01*
X121709491Y-71812000D01*
X121657165Y-71790326D01*
X121650527Y-71782713D01*
X121571500Y-71678500D01*
X121571499Y-71678499D01*
X121453657Y-71589137D01*
X121316077Y-71534883D01*
X121229619Y-71524500D01*
X121229618Y-71524500D01*
X120670382Y-71524500D01*
X120670381Y-71524500D01*
X120583922Y-71534883D01*
X120446342Y-71589137D01*
X120328500Y-71678499D01*
X120328499Y-71678500D01*
X120239137Y-71796342D01*
X120184883Y-71933922D01*
X120182336Y-71955135D01*
X120174500Y-72020382D01*
X120174500Y-72704618D01*
X120184883Y-72791077D01*
X120193737Y-72813530D01*
X120194343Y-72815065D01*
X120199502Y-72842212D01*
X120199502Y-72979171D01*
X120219313Y-73053104D01*
X120219313Y-73053105D01*
X120237016Y-73119174D01*
X120237017Y-73119176D01*
X120237018Y-73119179D01*
X120309492Y-73244709D01*
X120353231Y-73288447D01*
X120374905Y-73340773D01*
X120359872Y-73385482D01*
X120351638Y-73396341D01*
X120297383Y-73533922D01*
X120287000Y-73620380D01*
X120287000Y-74179619D01*
X120297383Y-74266077D01*
X120351637Y-74403657D01*
X120430802Y-74508052D01*
X120445149Y-74562842D01*
X120416551Y-74611729D01*
X120328500Y-74678499D01*
X120328499Y-74678500D01*
X120239137Y-74796342D01*
X120184883Y-74933922D01*
X120174500Y-75020380D01*
X120174500Y-75579619D01*
X120184883Y-75666077D01*
X120239137Y-75803657D01*
X120328499Y-75921499D01*
X120328500Y-75921500D01*
X120446342Y-76010862D01*
X120478400Y-76023504D01*
X120519127Y-76062863D01*
X120520094Y-76119492D01*
X120503579Y-76144671D01*
X120338260Y-76309990D01*
X120285934Y-76331664D01*
X120233608Y-76309990D01*
X120212567Y-76267320D01*
X120211974Y-76262818D01*
X120191509Y-76213409D01*
X120159024Y-76134983D01*
X120152767Y-76126829D01*
X120074793Y-76025211D01*
X120074792Y-76025210D01*
X120050802Y-76006801D01*
X119965018Y-75940976D01*
X119965016Y-75940975D01*
X119837182Y-75888025D01*
X119700000Y-75869965D01*
X119562815Y-75888026D01*
X119560909Y-75888537D01*
X119559921Y-75888407D01*
X119558008Y-75888659D01*
X119557940Y-75888146D01*
X119504756Y-75881146D01*
X119483048Y-75862109D01*
X119455853Y-75826667D01*
X119346080Y-75742434D01*
X119346078Y-75742433D01*
X119218244Y-75689483D01*
X119081062Y-75671423D01*
X118943879Y-75689483D01*
X118816046Y-75742433D01*
X118706271Y-75826667D01*
X118622038Y-75936441D01*
X118592894Y-76006801D01*
X118552845Y-76046849D01*
X118496208Y-76046849D01*
X118472201Y-76030808D01*
X118009674Y-75568281D01*
X117988000Y-75515955D01*
X117988000Y-74548007D01*
X118009674Y-74495681D01*
X118053473Y-74474500D01*
X118069991Y-74472585D01*
X118172765Y-74427206D01*
X118252206Y-74347765D01*
X118297585Y-74244991D01*
X118300500Y-74219865D01*
X118300499Y-73500136D01*
X118297585Y-73475009D01*
X118252206Y-73372235D01*
X118172765Y-73292794D01*
X118069991Y-73247415D01*
X118069990Y-73247414D01*
X118069988Y-73247414D01*
X118046649Y-73244707D01*
X118044865Y-73244500D01*
X118044864Y-73244500D01*
X117130136Y-73244500D01*
X117105013Y-73247414D01*
X117105007Y-73247415D01*
X117002234Y-73292794D01*
X116922794Y-73372234D01*
X116877414Y-73475011D01*
X116874500Y-73500135D01*
X116874500Y-74219863D01*
X116877414Y-74244986D01*
X116877415Y-74244992D01*
X116899320Y-74294602D01*
X116922794Y-74347765D01*
X117002235Y-74427206D01*
X117105009Y-74472585D01*
X117121525Y-74474501D01*
X117171006Y-74502059D01*
X117187000Y-74548007D01*
X117187000Y-75659773D01*
X117187000Y-75765227D01*
X117210472Y-75852826D01*
X117214293Y-75867088D01*
X117214295Y-75867092D01*
X117267017Y-75958409D01*
X117267018Y-75958410D01*
X117267020Y-75958413D01*
X117501008Y-76192401D01*
X117706781Y-76398174D01*
X117728455Y-76450500D01*
X117706781Y-76502826D01*
X117654455Y-76524500D01*
X117305136Y-76524500D01*
X117280013Y-76527414D01*
X117280007Y-76527415D01*
X117177234Y-76572794D01*
X117097794Y-76652234D01*
X117052414Y-76755011D01*
X117049500Y-76780135D01*
X117049500Y-77425500D01*
X117027826Y-77477826D01*
X116975500Y-77499500D01*
X116330136Y-77499500D01*
X116305013Y-77502414D01*
X116305007Y-77502415D01*
X116212651Y-77543195D01*
X116182761Y-77549500D01*
X115797271Y-77549500D01*
X115695417Y-77576791D01*
X115695408Y-77576795D01*
X115604086Y-77629520D01*
X115529520Y-77704086D01*
X115476795Y-77795408D01*
X115476791Y-77795417D01*
X115449500Y-77897270D01*
X115449500Y-78002729D01*
X115476791Y-78104582D01*
X115476795Y-78104591D01*
X115486022Y-78120573D01*
X115493414Y-78176726D01*
X115480651Y-78202611D01*
X115479524Y-78204080D01*
X115426795Y-78295408D01*
X115426792Y-78295414D01*
X115425557Y-78300025D01*
X115391073Y-78344955D01*
X115334920Y-78352342D01*
X115295116Y-78325578D01*
X115221500Y-78228500D01*
X115221499Y-78228499D01*
X115103657Y-78139137D01*
X114966077Y-78084883D01*
X114879619Y-78074500D01*
X114879618Y-78074500D01*
X114320382Y-78074500D01*
X114320381Y-78074500D01*
X114233922Y-78084883D01*
X114096342Y-78139137D01*
X113978500Y-78228499D01*
X113978499Y-78228500D01*
X113889137Y-78346342D01*
X113834883Y-78483922D01*
X113824500Y-78570380D01*
X113824500Y-79254619D01*
X113834883Y-79341077D01*
X113889137Y-79478657D01*
X113933391Y-79537014D01*
X113978500Y-79596500D01*
X114096342Y-79685862D01*
X114233923Y-79740117D01*
X114287981Y-79746609D01*
X114337348Y-79774366D01*
X114343243Y-79783080D01*
X114359512Y-79811259D01*
X114359513Y-79811260D01*
X114359515Y-79811263D01*
X114424132Y-79875880D01*
X114445806Y-79928205D01*
X114424132Y-79980531D01*
X114416521Y-79987167D01*
X114387119Y-80009463D01*
X114342407Y-80024500D01*
X114124626Y-80024500D01*
X114079913Y-80009464D01*
X114003657Y-79951637D01*
X113866077Y-79897383D01*
X113779619Y-79887000D01*
X113779618Y-79887000D01*
X113220382Y-79887000D01*
X113220381Y-79887000D01*
X113133922Y-79897383D01*
X112996342Y-79951637D01*
X112878500Y-80040999D01*
X112878499Y-80041000D01*
X112789137Y-80158842D01*
X112734883Y-80296422D01*
X112724500Y-80382880D01*
X112724500Y-81067119D01*
X112734883Y-81153577D01*
X112789137Y-81291157D01*
X112850796Y-81372466D01*
X112878500Y-81409000D01*
X112996342Y-81498362D01*
X113133923Y-81552617D01*
X113209998Y-81561752D01*
X113220381Y-81563000D01*
X113220382Y-81563000D01*
X113779619Y-81563000D01*
X113788888Y-81561886D01*
X113866077Y-81552617D01*
X114003658Y-81498362D01*
X114121500Y-81409000D01*
X114200516Y-81304800D01*
X114249401Y-81276204D01*
X114304191Y-81290551D01*
X114318441Y-81304800D01*
X114358819Y-81358047D01*
X114378501Y-81384001D01*
X114496342Y-81473362D01*
X114633923Y-81527617D01*
X114709998Y-81536752D01*
X114720381Y-81538000D01*
X114720382Y-81538000D01*
X115279619Y-81538000D01*
X115288888Y-81536886D01*
X115366077Y-81527617D01*
X115503658Y-81473362D01*
X115621500Y-81384000D01*
X115630246Y-81372465D01*
X115679133Y-81343867D01*
X115730378Y-81357284D01*
X115730776Y-81356596D01*
X115733290Y-81358047D01*
X115733923Y-81358213D01*
X115734262Y-81358472D01*
X115734978Y-81359021D01*
X115734982Y-81359024D01*
X115862817Y-81411974D01*
X116000000Y-81430035D01*
X116137183Y-81411974D01*
X116265018Y-81359024D01*
X116374791Y-81274791D01*
X116459024Y-81165018D01*
X116511974Y-81037183D01*
X116521498Y-80964839D01*
X116549816Y-80915791D01*
X116594865Y-80900499D01*
X117269863Y-80900499D01*
X117269864Y-80900499D01*
X117294991Y-80897585D01*
X117397765Y-80852206D01*
X117423174Y-80826796D01*
X117475499Y-80805122D01*
X117527825Y-80826795D01*
X117549500Y-80879121D01*
X117549500Y-81619863D01*
X117552414Y-81644986D01*
X117552415Y-81644992D01*
X117586709Y-81722660D01*
X117597794Y-81747765D01*
X117677235Y-81827206D01*
X117691368Y-81833446D01*
X117730481Y-81874407D01*
X117729174Y-81931030D01*
X117706193Y-81960105D01*
X117615998Y-82028501D01*
X117526637Y-82146342D01*
X117472383Y-82283922D01*
X117462000Y-82370380D01*
X117462000Y-82929619D01*
X117472383Y-83016077D01*
X117526637Y-83153657D01*
X117566561Y-83206304D01*
X117616000Y-83271500D01*
X117733842Y-83360862D01*
X117788482Y-83382409D01*
X117829209Y-83421768D01*
X117830176Y-83478397D01*
X117806049Y-83510213D01*
X117716001Y-83578498D01*
X117715999Y-83578500D01*
X117626637Y-83696342D01*
X117572383Y-83833922D01*
X117562000Y-83920380D01*
X117562000Y-84479619D01*
X117572383Y-84566077D01*
X117626637Y-84703657D01*
X117647210Y-84730786D01*
X117661558Y-84785576D01*
X117632961Y-84834463D01*
X117588247Y-84849500D01*
X117286753Y-84849500D01*
X117234427Y-84827826D01*
X117212753Y-84775500D01*
X117227790Y-84730786D01*
X117248362Y-84703658D01*
X117302617Y-84566077D01*
X117313000Y-84479618D01*
X117313000Y-83920382D01*
X117302617Y-83833923D01*
X117248362Y-83696342D01*
X117159000Y-83578500D01*
X117158998Y-83578498D01*
X117041157Y-83489137D01*
X116903577Y-83434883D01*
X116817119Y-83424500D01*
X116817118Y-83424500D01*
X116232882Y-83424500D01*
X116232881Y-83424500D01*
X116146422Y-83434883D01*
X116008842Y-83489137D01*
X115891000Y-83578499D01*
X115890999Y-83578500D01*
X115801637Y-83696342D01*
X115747383Y-83833922D01*
X115737000Y-83920380D01*
X115737000Y-84479619D01*
X115747383Y-84566077D01*
X115801637Y-84703657D01*
X115822210Y-84730786D01*
X115836558Y-84785576D01*
X115807961Y-84834463D01*
X115763247Y-84849500D01*
X111049500Y-84849500D01*
X110997174Y-84827826D01*
X110975500Y-84775500D01*
X110975500Y-84220380D01*
X110968400Y-84161262D01*
X110965117Y-84133923D01*
X110910862Y-83996342D01*
X110821500Y-83878500D01*
X110768287Y-83838147D01*
X110703657Y-83789137D01*
X110566077Y-83734883D01*
X110479619Y-83724500D01*
X110479618Y-83724500D01*
X109795382Y-83724500D01*
X109795381Y-83724500D01*
X109708922Y-83734883D01*
X109571342Y-83789137D01*
X109506713Y-83838147D01*
X109451923Y-83852494D01*
X109403036Y-83823896D01*
X109388000Y-83779183D01*
X109388000Y-83564499D01*
X109409674Y-83512173D01*
X109462000Y-83490499D01*
X109634090Y-83490499D01*
X109684223Y-83483900D01*
X109684231Y-83483896D01*
X109689658Y-83482315D01*
X109690411Y-83484901D01*
X109735164Y-83482932D01*
X109735344Y-83482316D01*
X109737157Y-83482844D01*
X109737785Y-83482817D01*
X109739501Y-83483528D01*
X109740775Y-83483899D01*
X109740777Y-83483900D01*
X109790909Y-83490500D01*
X110134090Y-83490499D01*
X110184223Y-83483900D01*
X110184231Y-83483896D01*
X110189658Y-83482315D01*
X110190411Y-83484901D01*
X110235164Y-83482932D01*
X110235344Y-83482316D01*
X110237157Y-83482844D01*
X110237785Y-83482817D01*
X110239501Y-83483528D01*
X110240775Y-83483899D01*
X110240777Y-83483900D01*
X110290909Y-83490500D01*
X110634090Y-83490499D01*
X110684223Y-83483900D01*
X110794250Y-83432594D01*
X110880094Y-83346750D01*
X110931400Y-83236723D01*
X110938000Y-83186591D01*
X110937999Y-82999498D01*
X110959673Y-82947173D01*
X111011999Y-82925499D01*
X111199090Y-82925499D01*
X111249223Y-82918900D01*
X111359250Y-82867594D01*
X111445094Y-82781750D01*
X111496400Y-82671723D01*
X111503000Y-82621591D01*
X111502999Y-82278410D01*
X111496400Y-82228277D01*
X111496396Y-82228270D01*
X111494815Y-82222842D01*
X111497401Y-82222088D01*
X111495432Y-82177335D01*
X111494816Y-82177156D01*
X111495344Y-82175342D01*
X111495317Y-82174715D01*
X111496028Y-82172998D01*
X111496398Y-82171726D01*
X111496400Y-82171723D01*
X111503000Y-82121591D01*
X111502999Y-81778410D01*
X111496400Y-81728277D01*
X111496396Y-81728270D01*
X111494815Y-81722842D01*
X111497401Y-81722088D01*
X111495432Y-81677335D01*
X111494816Y-81677156D01*
X111495344Y-81675342D01*
X111495317Y-81674715D01*
X111496028Y-81672998D01*
X111496398Y-81671726D01*
X111496400Y-81671723D01*
X111503000Y-81621591D01*
X111502999Y-81278410D01*
X111496400Y-81228277D01*
X111496396Y-81228270D01*
X111494815Y-81222842D01*
X111497401Y-81222088D01*
X111495432Y-81177335D01*
X111494816Y-81177156D01*
X111495344Y-81175342D01*
X111495317Y-81174715D01*
X111496028Y-81172998D01*
X111496398Y-81171726D01*
X111496400Y-81171723D01*
X111503000Y-81121591D01*
X111502999Y-80778410D01*
X111496400Y-80728277D01*
X111496396Y-80728270D01*
X111494815Y-80722842D01*
X111497401Y-80722088D01*
X111495432Y-80677335D01*
X111494816Y-80677156D01*
X111495344Y-80675342D01*
X111495317Y-80674715D01*
X111496028Y-80672998D01*
X111496398Y-80671726D01*
X111496400Y-80671723D01*
X111503000Y-80621591D01*
X111502999Y-80278410D01*
X111496400Y-80228277D01*
X111496396Y-80228270D01*
X111494815Y-80222842D01*
X111497401Y-80222088D01*
X111495432Y-80177335D01*
X111494816Y-80177156D01*
X111495344Y-80175342D01*
X111495317Y-80174715D01*
X111496028Y-80172998D01*
X111496398Y-80171726D01*
X111496400Y-80171723D01*
X111503000Y-80121591D01*
X111502999Y-79949499D01*
X111524673Y-79897174D01*
X111576999Y-79875500D01*
X111608135Y-79875500D01*
X111653182Y-79890791D01*
X111697159Y-79924536D01*
X111843238Y-79985044D01*
X112000000Y-80005682D01*
X112156762Y-79985044D01*
X112302841Y-79924536D01*
X112428282Y-79828282D01*
X112524536Y-79702841D01*
X112585044Y-79556762D01*
X112605682Y-79400000D01*
X112585044Y-79243238D01*
X112524536Y-79097159D01*
X112444059Y-78992279D01*
X112428284Y-78971720D01*
X112428279Y-78971715D01*
X112302841Y-78875464D01*
X112156761Y-78814955D01*
X112000000Y-78794318D01*
X111843239Y-78814955D01*
X111843238Y-78814955D01*
X111697161Y-78875463D01*
X111697159Y-78875464D01*
X111649401Y-78912109D01*
X111622047Y-78933099D01*
X111567339Y-78947757D01*
X111518290Y-78919438D01*
X111502999Y-78874390D01*
X111502999Y-78778410D01*
X111496628Y-78730011D01*
X111496400Y-78728277D01*
X111496396Y-78728270D01*
X111494815Y-78722842D01*
X111497401Y-78722088D01*
X111495432Y-78677335D01*
X111494816Y-78677156D01*
X111495344Y-78675342D01*
X111495317Y-78674715D01*
X111496028Y-78672998D01*
X111496398Y-78671726D01*
X111496400Y-78671723D01*
X111503000Y-78621591D01*
X111502999Y-78278410D01*
X111496400Y-78228277D01*
X111496396Y-78228270D01*
X111494815Y-78222842D01*
X111497401Y-78222088D01*
X111495432Y-78177335D01*
X111494816Y-78177156D01*
X111495344Y-78175342D01*
X111495317Y-78174715D01*
X111496028Y-78172998D01*
X111496398Y-78171726D01*
X111496400Y-78171723D01*
X111503000Y-78121591D01*
X111502999Y-77778410D01*
X111496400Y-77728277D01*
X111496396Y-77728270D01*
X111494815Y-77722842D01*
X111497401Y-77722088D01*
X111495432Y-77677335D01*
X111494816Y-77677156D01*
X111495344Y-77675342D01*
X111495317Y-77674715D01*
X111496028Y-77672998D01*
X111496398Y-77671726D01*
X111496400Y-77671723D01*
X111503000Y-77621591D01*
X111502999Y-77278410D01*
X111496400Y-77228277D01*
X111496396Y-77228270D01*
X111494815Y-77222842D01*
X111497401Y-77222088D01*
X111495432Y-77177335D01*
X111494816Y-77177156D01*
X111495344Y-77175342D01*
X111495317Y-77174715D01*
X111496028Y-77172998D01*
X111496398Y-77171726D01*
X111496400Y-77171723D01*
X111503000Y-77121591D01*
X111502999Y-76778410D01*
X111496400Y-76728277D01*
X111445094Y-76618250D01*
X111359250Y-76532406D01*
X111359248Y-76532404D01*
X111249223Y-76481100D01*
X111249221Y-76481099D01*
X111212289Y-76476237D01*
X111199091Y-76474500D01*
X111199089Y-76474500D01*
X111011999Y-76474500D01*
X110959673Y-76452826D01*
X110937999Y-76400500D01*
X110937999Y-76213410D01*
X110931400Y-76163278D01*
X110931399Y-76163276D01*
X110880094Y-76053250D01*
X110794250Y-75967406D01*
X110794248Y-75967404D01*
X110684223Y-75916100D01*
X110684221Y-75916099D01*
X110645583Y-75911013D01*
X110634091Y-75909500D01*
X110634089Y-75909500D01*
X110290910Y-75909500D01*
X110240779Y-75916099D01*
X110235340Y-75917685D01*
X110234587Y-75915103D01*
X110189839Y-75917057D01*
X110189657Y-75917684D01*
X110187810Y-75917145D01*
X110187190Y-75917173D01*
X110185495Y-75916470D01*
X110184222Y-75916099D01*
X110145583Y-75911013D01*
X110134091Y-75909500D01*
X110134089Y-75909500D01*
X109790910Y-75909500D01*
X109740779Y-75916099D01*
X109735340Y-75917685D01*
X109734587Y-75915103D01*
X109689839Y-75917057D01*
X109689657Y-75917684D01*
X109687810Y-75917145D01*
X109687190Y-75917173D01*
X109685495Y-75916470D01*
X109684222Y-75916099D01*
X109645583Y-75911013D01*
X109634091Y-75909500D01*
X109634089Y-75909500D01*
X109290910Y-75909500D01*
X109240779Y-75916099D01*
X109235340Y-75917685D01*
X109234587Y-75915103D01*
X109189839Y-75917057D01*
X109189657Y-75917684D01*
X109187810Y-75917145D01*
X109187190Y-75917173D01*
X109185495Y-75916470D01*
X109184222Y-75916099D01*
X109145583Y-75911013D01*
X109134091Y-75909500D01*
X109134089Y-75909500D01*
X108790910Y-75909500D01*
X108740779Y-75916099D01*
X108735340Y-75917685D01*
X108734587Y-75915103D01*
X108689839Y-75917057D01*
X108689657Y-75917684D01*
X108687810Y-75917145D01*
X108687190Y-75917173D01*
X108685495Y-75916470D01*
X108684222Y-75916099D01*
X108645583Y-75911013D01*
X108634091Y-75909500D01*
X108634089Y-75909500D01*
X108290910Y-75909500D01*
X108240779Y-75916099D01*
X108235340Y-75917685D01*
X108234587Y-75915103D01*
X108189839Y-75917057D01*
X108189657Y-75917684D01*
X108187810Y-75917145D01*
X108187190Y-75917173D01*
X108185495Y-75916470D01*
X108184222Y-75916099D01*
X108145583Y-75911013D01*
X108134091Y-75909500D01*
X108134089Y-75909500D01*
X107790910Y-75909500D01*
X107740779Y-75916099D01*
X107735340Y-75917685D01*
X107734587Y-75915103D01*
X107689839Y-75917057D01*
X107689657Y-75917684D01*
X107687810Y-75917145D01*
X107687190Y-75917173D01*
X107685495Y-75916470D01*
X107684222Y-75916099D01*
X107645583Y-75911013D01*
X107634091Y-75909500D01*
X107634089Y-75909500D01*
X107290910Y-75909500D01*
X107240779Y-75916099D01*
X107235340Y-75917685D01*
X107234587Y-75915103D01*
X107189839Y-75917057D01*
X107189657Y-75917684D01*
X107187810Y-75917145D01*
X107187190Y-75917173D01*
X107185495Y-75916470D01*
X107184222Y-75916099D01*
X107145583Y-75911013D01*
X107134091Y-75909500D01*
X107134089Y-75909500D01*
X106790910Y-75909500D01*
X106740779Y-75916099D01*
X106735340Y-75917685D01*
X106734587Y-75915103D01*
X106689839Y-75917057D01*
X106689657Y-75917684D01*
X106687810Y-75917145D01*
X106687190Y-75917173D01*
X106685495Y-75916470D01*
X106684222Y-75916099D01*
X106645583Y-75911013D01*
X106634091Y-75909500D01*
X106634089Y-75909500D01*
X106290910Y-75909500D01*
X106240779Y-75916099D01*
X106235340Y-75917685D01*
X106234587Y-75915103D01*
X106189839Y-75917057D01*
X106189657Y-75917684D01*
X106187810Y-75917145D01*
X106187190Y-75917173D01*
X106185495Y-75916470D01*
X106184222Y-75916099D01*
X106145583Y-75911013D01*
X106134091Y-75909500D01*
X106134089Y-75909500D01*
X105790910Y-75909500D01*
X105740779Y-75916099D01*
X105735340Y-75917685D01*
X105734587Y-75915103D01*
X105689839Y-75917057D01*
X105689657Y-75917684D01*
X105687810Y-75917145D01*
X105687190Y-75917173D01*
X105685495Y-75916470D01*
X105684222Y-75916099D01*
X105645583Y-75911013D01*
X105634091Y-75909500D01*
X105634089Y-75909500D01*
X105290910Y-75909500D01*
X105240779Y-75916099D01*
X105235340Y-75917685D01*
X105234587Y-75915103D01*
X105189839Y-75917057D01*
X105189657Y-75917684D01*
X105187810Y-75917145D01*
X105187190Y-75917173D01*
X105185495Y-75916470D01*
X105184222Y-75916099D01*
X105145583Y-75911013D01*
X105134091Y-75909500D01*
X105134089Y-75909500D01*
X104790910Y-75909500D01*
X104740778Y-75916099D01*
X104740775Y-75916100D01*
X104630749Y-75967406D01*
X104544904Y-76053251D01*
X104493600Y-76163276D01*
X104493599Y-76163278D01*
X104487000Y-76213410D01*
X104487000Y-76400500D01*
X104465326Y-76452826D01*
X104413000Y-76474500D01*
X104225909Y-76474500D01*
X104189156Y-76479338D01*
X104134449Y-76464677D01*
X104106133Y-76415627D01*
X104105500Y-76405971D01*
X104105500Y-75963339D01*
X104127174Y-75911013D01*
X104164228Y-75890932D01*
X104205398Y-75882250D01*
X104213530Y-75878882D01*
X104226463Y-75873171D01*
X104317594Y-75807597D01*
X104378882Y-75713530D01*
X104382250Y-75705398D01*
X104384870Y-75698859D01*
X104405500Y-75588500D01*
X104405500Y-74411500D01*
X104405419Y-74404456D01*
X104393934Y-74350000D01*
X109444318Y-74350000D01*
X109464955Y-74506760D01*
X109464955Y-74506761D01*
X109525464Y-74652841D01*
X109621715Y-74778279D01*
X109621720Y-74778284D01*
X109650673Y-74800500D01*
X109747159Y-74874536D01*
X109893238Y-74935044D01*
X110050000Y-74955682D01*
X110206762Y-74935044D01*
X110352841Y-74874536D01*
X110478282Y-74778282D01*
X110561475Y-74669863D01*
X110573300Y-74654452D01*
X110622349Y-74626133D01*
X110632008Y-74625500D01*
X110928706Y-74625500D01*
X110981032Y-74647174D01*
X110996400Y-74669609D01*
X110997793Y-74672764D01*
X110997794Y-74672765D01*
X111077235Y-74752206D01*
X111180009Y-74797585D01*
X111205135Y-74800500D01*
X112494864Y-74800499D01*
X112519991Y-74797585D01*
X112622765Y-74752206D01*
X112702206Y-74672765D01*
X112747585Y-74569991D01*
X112750500Y-74544865D01*
X112750499Y-73855136D01*
X112750499Y-73855135D01*
X113449500Y-73855135D01*
X113449500Y-74544863D01*
X113452414Y-74569986D01*
X113452415Y-74569992D01*
X113488997Y-74652841D01*
X113497794Y-74672765D01*
X113577235Y-74752206D01*
X113680009Y-74797585D01*
X113705135Y-74800500D01*
X114994864Y-74800499D01*
X115019991Y-74797585D01*
X115122765Y-74752206D01*
X115202206Y-74672765D01*
X115247585Y-74569991D01*
X115250500Y-74544865D01*
X115250499Y-73855136D01*
X115247585Y-73830009D01*
X115202206Y-73727235D01*
X115122765Y-73647794D01*
X115019991Y-73602415D01*
X115019990Y-73602414D01*
X115019988Y-73602414D01*
X114998659Y-73599940D01*
X114994865Y-73599500D01*
X114994864Y-73599500D01*
X113705136Y-73599500D01*
X113680013Y-73602414D01*
X113680007Y-73602415D01*
X113577234Y-73647794D01*
X113497794Y-73727234D01*
X113452414Y-73830011D01*
X113449500Y-73855135D01*
X112750499Y-73855135D01*
X112747585Y-73830009D01*
X112702206Y-73727235D01*
X112622765Y-73647794D01*
X112519991Y-73602415D01*
X112519990Y-73602414D01*
X112519988Y-73602414D01*
X112498659Y-73599940D01*
X112494865Y-73599500D01*
X112494864Y-73599500D01*
X111205136Y-73599500D01*
X111180013Y-73602414D01*
X111180007Y-73602415D01*
X111077234Y-73647794D01*
X110997793Y-73727235D01*
X110996400Y-73730391D01*
X110994178Y-73732512D01*
X110993919Y-73732891D01*
X110993839Y-73732836D01*
X110955437Y-73769503D01*
X110928706Y-73774500D01*
X110244523Y-73774500D01*
X110216205Y-73768867D01*
X110206764Y-73764956D01*
X110206760Y-73764955D01*
X110050000Y-73744318D01*
X109893239Y-73764955D01*
X109893238Y-73764955D01*
X109747158Y-73825464D01*
X109621720Y-73921715D01*
X109621715Y-73921720D01*
X109525464Y-74047158D01*
X109464955Y-74193238D01*
X109464955Y-74193239D01*
X109444318Y-74350000D01*
X104393934Y-74350000D01*
X104382250Y-74294602D01*
X104378882Y-74286470D01*
X104376830Y-74281825D01*
X104373172Y-74273538D01*
X104373171Y-74273537D01*
X104307598Y-74182407D01*
X104307594Y-74182404D01*
X104213534Y-74121120D01*
X104213531Y-74121118D01*
X104213530Y-74121118D01*
X104205398Y-74117750D01*
X104205376Y-74117741D01*
X104205349Y-74117730D01*
X104198863Y-74115131D01*
X104198860Y-74115130D01*
X104198859Y-74115130D01*
X104142626Y-74104618D01*
X104088503Y-74094500D01*
X104088500Y-74094500D01*
X102711500Y-74094500D01*
X102711494Y-74094500D01*
X102704454Y-74094581D01*
X102664770Y-74102950D01*
X102609097Y-74092540D01*
X102577093Y-74045813D01*
X102575500Y-74030543D01*
X102575500Y-73974314D01*
X102576922Y-73959878D01*
X102584512Y-73921720D01*
X102600500Y-73841342D01*
X102600500Y-73683657D01*
X102576922Y-73565120D01*
X102575500Y-73550684D01*
X102575500Y-73420380D01*
X102569718Y-73372235D01*
X102565117Y-73333923D01*
X102510862Y-73196342D01*
X102421500Y-73078500D01*
X102421014Y-73078131D01*
X102303657Y-72989137D01*
X102166077Y-72934883D01*
X102079619Y-72924500D01*
X102079618Y-72924500D01*
X101520382Y-72924500D01*
X101520381Y-72924500D01*
X101433922Y-72934883D01*
X101346543Y-72969341D01*
X101319396Y-72974500D01*
X99924499Y-72974500D01*
X99872173Y-72952826D01*
X99850499Y-72900500D01*
X99850499Y-72880136D01*
X99847585Y-72855013D01*
X99847585Y-72855011D01*
X99847585Y-72855009D01*
X99802206Y-72752235D01*
X99722765Y-72672794D01*
X99619991Y-72627415D01*
X99619990Y-72627414D01*
X99619988Y-72627414D01*
X99598659Y-72624940D01*
X99594865Y-72624500D01*
X99594864Y-72624500D01*
X97805136Y-72624500D01*
X97780013Y-72627414D01*
X97780007Y-72627415D01*
X97677234Y-72672794D01*
X97597794Y-72752234D01*
X97552414Y-72855011D01*
X97549500Y-72880135D01*
X97549500Y-74669863D01*
X97552414Y-74694986D01*
X97552415Y-74694991D01*
X97597794Y-74797765D01*
X97677235Y-74877206D01*
X97780009Y-74922585D01*
X97805135Y-74925500D01*
X99594864Y-74925499D01*
X99619991Y-74922585D01*
X99722765Y-74877206D01*
X99802206Y-74797765D01*
X99847585Y-74694991D01*
X99850500Y-74669865D01*
X99850500Y-74649500D01*
X99872174Y-74597174D01*
X99924500Y-74575500D01*
X100121158Y-74575500D01*
X100821158Y-74575500D01*
X101382792Y-74575500D01*
X101409939Y-74580659D01*
X101433923Y-74590117D01*
X101509998Y-74599252D01*
X101520381Y-74600500D01*
X101520382Y-74600500D01*
X102079619Y-74600500D01*
X102093284Y-74598858D01*
X102166077Y-74590117D01*
X102168560Y-74589138D01*
X102293353Y-74539926D01*
X102349981Y-74540892D01*
X102389340Y-74581619D01*
X102394500Y-74608766D01*
X102394500Y-76005792D01*
X102372826Y-76058118D01*
X102330160Y-76079159D01*
X102262819Y-76088025D01*
X102262817Y-76088026D01*
X102260785Y-76088867D01*
X102232469Y-76094500D01*
X101111494Y-76094500D01*
X101104456Y-76094581D01*
X100994606Y-76117749D01*
X100994605Y-76117749D01*
X100994602Y-76117750D01*
X100986470Y-76121118D01*
X100986439Y-76121131D01*
X100973538Y-76126827D01*
X100973537Y-76126828D01*
X100882407Y-76192401D01*
X100882404Y-76192405D01*
X100821120Y-76286465D01*
X100817730Y-76294650D01*
X100815131Y-76301136D01*
X100815130Y-76301142D01*
X100794500Y-76411496D01*
X100794500Y-77849100D01*
X100772826Y-77901426D01*
X100720500Y-77923100D01*
X100668174Y-77901426D01*
X99795230Y-77028482D01*
X99773556Y-76976156D01*
X99777369Y-76955936D01*
X99776469Y-76955680D01*
X99835756Y-76747309D01*
X99835757Y-76747303D01*
X99855429Y-76535003D01*
X99855429Y-76534996D01*
X99835757Y-76322696D01*
X99835756Y-76322690D01*
X99825449Y-76286465D01*
X99777405Y-76117611D01*
X99765897Y-76094500D01*
X99682367Y-75926747D01*
X99682363Y-75926741D01*
X99655321Y-75890932D01*
X99553872Y-75756593D01*
X99538340Y-75742434D01*
X99497660Y-75705349D01*
X99396302Y-75612948D01*
X99215019Y-75500702D01*
X99016198Y-75423679D01*
X98924150Y-75406472D01*
X98806613Y-75384500D01*
X98806610Y-75384500D01*
X98593390Y-75384500D01*
X98593386Y-75384500D01*
X98436670Y-75413796D01*
X98383802Y-75423679D01*
X98383800Y-75423679D01*
X98383798Y-75423680D01*
X98184986Y-75500700D01*
X98184981Y-75500702D01*
X98184976Y-75500704D01*
X98184976Y-75500705D01*
X98003700Y-75612946D01*
X97846130Y-75756590D01*
X97717636Y-75926741D01*
X97717632Y-75926747D01*
X97622596Y-76117606D01*
X97622593Y-76117616D01*
X97564243Y-76322690D01*
X97564242Y-76322696D01*
X97544571Y-76534996D01*
X97544571Y-76535003D01*
X97564242Y-76747303D01*
X97564243Y-76747309D01*
X97622593Y-76952383D01*
X97622596Y-76952393D01*
X97717632Y-77143252D01*
X97717636Y-77143258D01*
X97739130Y-77171720D01*
X97846128Y-77313407D01*
X98003698Y-77457052D01*
X98184981Y-77569298D01*
X98383802Y-77646321D01*
X98593390Y-77685500D01*
X98806610Y-77685500D01*
X99016198Y-77646321D01*
X99110616Y-77609743D01*
X99167235Y-77611051D01*
X99189672Y-77626420D01*
X99361426Y-77798174D01*
X99383100Y-77850500D01*
X99361426Y-77902826D01*
X99309100Y-77924500D01*
X97805136Y-77924500D01*
X97780013Y-77927414D01*
X97780007Y-77927415D01*
X97677234Y-77972794D01*
X97597794Y-78052234D01*
X97552414Y-78155011D01*
X97549500Y-78180135D01*
X97549500Y-79969863D01*
X97552414Y-79994986D01*
X97552415Y-79994992D01*
X97587835Y-80075210D01*
X97597794Y-80097765D01*
X97677235Y-80177206D01*
X97780009Y-80222585D01*
X97805135Y-80225500D01*
X99594864Y-80225499D01*
X99619991Y-80222585D01*
X99722765Y-80177206D01*
X99802206Y-80097765D01*
X99847585Y-79994991D01*
X99850500Y-79969865D01*
X99850500Y-79449500D01*
X99872174Y-79397174D01*
X99924500Y-79375500D01*
X103428214Y-79375500D01*
X103480540Y-79397174D01*
X103502214Y-79449500D01*
X103480540Y-79501826D01*
X103447367Y-79520978D01*
X103387518Y-79537014D01*
X103387513Y-79537016D01*
X103261984Y-79609491D01*
X103159491Y-79711984D01*
X103087016Y-79837513D01*
X103087014Y-79837518D01*
X103049500Y-79977522D01*
X103049500Y-82937477D01*
X103063042Y-82988015D01*
X103087014Y-83077482D01*
X103087016Y-83077485D01*
X103159490Y-83203015D01*
X103226989Y-83270514D01*
X103226990Y-83270515D01*
X103361985Y-83405510D01*
X103458815Y-83461414D01*
X103493293Y-83506347D01*
X103485901Y-83562500D01*
X103440968Y-83596978D01*
X103421815Y-83599500D01*
X102874000Y-83599500D01*
X102821674Y-83577826D01*
X102800000Y-83525500D01*
X102800000Y-81000000D01*
X97274500Y-81000000D01*
X97222174Y-80978326D01*
X97200500Y-80926000D01*
X97200500Y-69824500D01*
X97222174Y-69772174D01*
X97274500Y-69750500D01*
X110720500Y-69750500D01*
X110772826Y-69772174D01*
G37*
%TD.AperFunction*%
%TA.AperFunction,Conductor*%
G36*
X142077826Y-69772174D02*
G01*
X142099500Y-69824500D01*
X142099500Y-84775500D01*
X142077826Y-84827826D01*
X142025500Y-84849500D01*
X119111753Y-84849500D01*
X119059427Y-84827826D01*
X119037753Y-84775500D01*
X119052790Y-84730786D01*
X119073362Y-84703658D01*
X119085707Y-84672352D01*
X119125066Y-84631626D01*
X119154548Y-84625500D01*
X122856020Y-84625500D01*
X122856020Y-84625499D01*
X122964237Y-84596503D01*
X123061263Y-84540485D01*
X123440485Y-84161263D01*
X123440485Y-84161262D01*
X124180162Y-83421583D01*
X124232487Y-83399910D01*
X124268760Y-83409410D01*
X124271339Y-83410860D01*
X124271342Y-83410862D01*
X124408923Y-83465117D01*
X124484998Y-83474252D01*
X124495381Y-83475500D01*
X124495382Y-83475500D01*
X125179619Y-83475500D01*
X125188888Y-83474386D01*
X125266077Y-83465117D01*
X125403658Y-83410862D01*
X125521500Y-83321500D01*
X125603086Y-83213910D01*
X125609720Y-83206304D01*
X125613009Y-83203015D01*
X125628010Y-83188015D01*
X125628834Y-83186589D01*
X125650985Y-83148219D01*
X125700484Y-83062485D01*
X125737999Y-82922476D01*
X125738000Y-82922476D01*
X125738000Y-82777524D01*
X125737999Y-82777523D01*
X125729723Y-82746638D01*
X125700484Y-82637515D01*
X125685413Y-82611410D01*
X125675500Y-82574412D01*
X125675500Y-82420380D01*
X125672595Y-82396192D01*
X125665117Y-82333923D01*
X125610862Y-82196342D01*
X125521500Y-82078500D01*
X125517335Y-82075341D01*
X125403657Y-81989137D01*
X125266077Y-81934883D01*
X125179619Y-81924500D01*
X125179618Y-81924500D01*
X124499500Y-81924500D01*
X124447174Y-81902826D01*
X124425500Y-81850500D01*
X124425500Y-81080123D01*
X124447174Y-81027797D01*
X124452206Y-81022765D01*
X124497585Y-80919991D01*
X124500500Y-80894865D01*
X124500499Y-80105136D01*
X124497585Y-80080009D01*
X124452206Y-79977235D01*
X124372765Y-79897794D01*
X124269991Y-79852415D01*
X124269990Y-79852414D01*
X124269988Y-79852414D01*
X124248659Y-79849940D01*
X124244865Y-79849500D01*
X124244864Y-79849500D01*
X123755136Y-79849500D01*
X123730013Y-79852414D01*
X123730007Y-79852415D01*
X123627234Y-79897794D01*
X123547794Y-79977234D01*
X123502414Y-80080011D01*
X123499500Y-80105135D01*
X123499500Y-80894863D01*
X123502414Y-80919986D01*
X123502415Y-80919992D01*
X123547794Y-81022765D01*
X123552826Y-81027797D01*
X123574500Y-81080123D01*
X123574500Y-81850500D01*
X123552826Y-81902826D01*
X123500500Y-81924500D01*
X122857881Y-81924500D01*
X122771422Y-81934883D01*
X122633842Y-81989137D01*
X122516000Y-82078499D01*
X122515999Y-82078500D01*
X122426637Y-82196342D01*
X122372383Y-82333922D01*
X122362000Y-82420380D01*
X122362000Y-82979619D01*
X122372383Y-83066077D01*
X122426637Y-83203657D01*
X122428645Y-83206304D01*
X122516000Y-83321500D01*
X122633842Y-83410862D01*
X122771423Y-83465117D01*
X122771434Y-83465118D01*
X122774170Y-83465810D01*
X122775282Y-83466638D01*
X122775836Y-83466857D01*
X122775776Y-83467006D01*
X122819592Y-83499642D01*
X122827789Y-83555683D01*
X122808369Y-83589882D01*
X122645426Y-83752826D01*
X122593100Y-83774500D01*
X119154548Y-83774500D01*
X119102222Y-83752826D01*
X119085707Y-83727647D01*
X119073362Y-83696342D01*
X118984000Y-83578500D01*
X118983999Y-83578499D01*
X118903889Y-83517750D01*
X118866158Y-83489138D01*
X118866157Y-83489137D01*
X118862125Y-83486080D01*
X118863103Y-83484789D01*
X118831818Y-83444963D01*
X118838573Y-83388730D01*
X118862667Y-83364635D01*
X118862125Y-83363920D01*
X118866158Y-83360862D01*
X118984000Y-83271500D01*
X119073362Y-83153658D01*
X119127617Y-83016077D01*
X119138000Y-82929618D01*
X119138000Y-82869799D01*
X119159674Y-82817473D01*
X119212000Y-82795799D01*
X119231150Y-82798320D01*
X119332582Y-82825499D01*
X119332583Y-82825500D01*
X119332585Y-82825500D01*
X119332586Y-82825500D01*
X120266173Y-82825500D01*
X120311221Y-82840792D01*
X120334979Y-82859022D01*
X120334982Y-82859024D01*
X120462817Y-82911974D01*
X120600000Y-82930035D01*
X120737183Y-82911974D01*
X120865018Y-82859024D01*
X120974791Y-82774791D01*
X121059024Y-82665018D01*
X121111974Y-82537183D01*
X121130035Y-82400000D01*
X121111974Y-82262817D01*
X121064709Y-82148707D01*
X121064709Y-82092071D01*
X121074368Y-82075341D01*
X121074788Y-82074792D01*
X121074791Y-82074791D01*
X121159024Y-81965018D01*
X121211974Y-81837183D01*
X121229061Y-81707395D01*
X121257378Y-81658349D01*
X121312086Y-81643690D01*
X121330742Y-81648688D01*
X121362817Y-81661974D01*
X121500000Y-81680035D01*
X121637183Y-81661974D01*
X121765018Y-81609024D01*
X121874791Y-81524791D01*
X121959024Y-81415018D01*
X122011974Y-81287183D01*
X122030035Y-81150000D01*
X122011974Y-81012817D01*
X121959024Y-80884983D01*
X121959022Y-80884978D01*
X121928381Y-80845048D01*
X121913721Y-80790341D01*
X121928378Y-80754954D01*
X121959024Y-80715018D01*
X122011974Y-80587183D01*
X122030035Y-80450000D01*
X122011974Y-80312817D01*
X121959024Y-80184983D01*
X121959022Y-80184980D01*
X121874793Y-80075211D01*
X121874792Y-80075210D01*
X121839064Y-80047794D01*
X121765018Y-79990976D01*
X121750697Y-79985044D01*
X121637182Y-79938025D01*
X121500000Y-79919965D01*
X121362817Y-79938025D01*
X121234982Y-79990976D01*
X121232992Y-79992125D01*
X121231427Y-79992448D01*
X121230502Y-79992832D01*
X121230428Y-79992655D01*
X121187474Y-80001542D01*
X121169866Y-79999500D01*
X120230136Y-79999500D01*
X120205013Y-80002414D01*
X120205007Y-80002415D01*
X120102234Y-80047794D01*
X120022794Y-80127234D01*
X119977414Y-80230011D01*
X119974500Y-80255135D01*
X119974500Y-80350500D01*
X119952826Y-80402826D01*
X119900501Y-80424500D01*
X119805135Y-80424500D01*
X119780011Y-80427414D01*
X119780003Y-80427416D01*
X119779876Y-80427473D01*
X119779789Y-80427474D01*
X119774640Y-80428876D01*
X119774293Y-80427600D01*
X119725400Y-80428719D01*
X119725358Y-80428875D01*
X119724835Y-80428732D01*
X119723253Y-80428769D01*
X119720119Y-80427471D01*
X119719990Y-80427414D01*
X119697779Y-80424838D01*
X119694865Y-80424500D01*
X119694864Y-80424500D01*
X119305136Y-80424500D01*
X119280011Y-80427414D01*
X119280003Y-80427416D01*
X119279876Y-80427473D01*
X119279789Y-80427474D01*
X119274640Y-80428876D01*
X119274293Y-80427600D01*
X119225400Y-80428719D01*
X119225358Y-80428875D01*
X119224835Y-80428732D01*
X119223253Y-80428769D01*
X119220119Y-80427471D01*
X119219990Y-80427414D01*
X119197779Y-80424838D01*
X119194865Y-80424500D01*
X119194864Y-80424500D01*
X118805136Y-80424500D01*
X118780011Y-80427414D01*
X118780003Y-80427416D01*
X118779876Y-80427473D01*
X118779789Y-80427474D01*
X118774640Y-80428876D01*
X118774293Y-80427600D01*
X118725400Y-80428719D01*
X118725358Y-80428875D01*
X118724835Y-80428732D01*
X118723253Y-80428769D01*
X118720119Y-80427471D01*
X118719990Y-80427414D01*
X118697779Y-80424838D01*
X118694865Y-80424500D01*
X118694864Y-80424500D01*
X118305136Y-80424500D01*
X118280011Y-80427414D01*
X118280003Y-80427416D01*
X118279876Y-80427473D01*
X118279789Y-80427474D01*
X118274640Y-80428876D01*
X118274293Y-80427600D01*
X118225400Y-80428719D01*
X118225358Y-80428875D01*
X118224835Y-80428732D01*
X118223253Y-80428769D01*
X118220119Y-80427471D01*
X118219990Y-80427414D01*
X118197779Y-80424838D01*
X118194865Y-80424500D01*
X118194864Y-80424500D01*
X117805136Y-80424500D01*
X117780013Y-80427414D01*
X117780007Y-80427415D01*
X117677234Y-80472794D01*
X117651824Y-80498204D01*
X117599498Y-80519877D01*
X117547172Y-80498202D01*
X117525499Y-80445877D01*
X117525499Y-80255136D01*
X117522585Y-80230012D01*
X117522585Y-80230011D01*
X117522585Y-80230009D01*
X117522534Y-80229895D01*
X117522533Y-80229819D01*
X117521123Y-80224636D01*
X117522404Y-80224287D01*
X117521271Y-80175407D01*
X117521123Y-80175367D01*
X117521258Y-80174867D01*
X117521222Y-80173274D01*
X117522535Y-80170104D01*
X117522585Y-80169991D01*
X117525500Y-80144865D01*
X117525499Y-79755136D01*
X117522585Y-79730009D01*
X117522534Y-79729895D01*
X117522533Y-79729819D01*
X117521123Y-79724636D01*
X117522404Y-79724287D01*
X117521271Y-79675407D01*
X117521123Y-79675367D01*
X117521258Y-79674867D01*
X117521222Y-79673274D01*
X117522535Y-79670104D01*
X117522585Y-79669991D01*
X117525500Y-79644865D01*
X117525500Y-79555135D01*
X128249500Y-79555135D01*
X128249500Y-80044863D01*
X128252414Y-80069986D01*
X128252415Y-80069992D01*
X128285474Y-80144862D01*
X128297794Y-80172765D01*
X128377235Y-80252206D01*
X128480009Y-80297585D01*
X128505135Y-80300500D01*
X129294864Y-80300499D01*
X129319991Y-80297585D01*
X129422765Y-80252206D01*
X129452797Y-80222174D01*
X129505123Y-80200500D01*
X130852726Y-80200500D01*
X130852727Y-80200500D01*
X130954588Y-80173207D01*
X131045913Y-80120480D01*
X132944219Y-78222174D01*
X132996545Y-78200500D01*
X136675501Y-78200500D01*
X136727827Y-78222174D01*
X136749501Y-78274500D01*
X136749501Y-78797784D01*
X136755910Y-78857406D01*
X136806214Y-78992277D01*
X136806215Y-78992278D01*
X136806216Y-78992279D01*
X136892482Y-79107518D01*
X136986518Y-79177912D01*
X137007721Y-79193784D01*
X137007722Y-79193785D01*
X137118684Y-79235171D01*
X137142596Y-79244090D01*
X137202217Y-79250500D01*
X139197782Y-79250499D01*
X139197783Y-79250499D01*
X139197783Y-79250498D01*
X139257404Y-79244090D01*
X139350103Y-79209515D01*
X139392277Y-79193785D01*
X139392277Y-79193784D01*
X139392279Y-79193784D01*
X139507518Y-79107518D01*
X139593784Y-78992279D01*
X139644090Y-78857404D01*
X139650500Y-78797783D01*
X139650499Y-76802218D01*
X139644090Y-76742596D01*
X139610387Y-76652234D01*
X139593785Y-76607722D01*
X139593784Y-76607721D01*
X139587077Y-76598761D01*
X139507518Y-76492482D01*
X139451436Y-76450500D01*
X139392278Y-76406215D01*
X139392277Y-76406214D01*
X139257408Y-76355911D01*
X139257405Y-76355910D01*
X139257404Y-76355910D01*
X139197783Y-76349500D01*
X137202216Y-76349500D01*
X137202215Y-76349501D01*
X137142593Y-76355910D01*
X137007722Y-76406214D01*
X137007721Y-76406215D01*
X136892485Y-76492479D01*
X136892479Y-76492485D01*
X136806215Y-76607721D01*
X136806214Y-76607722D01*
X136755911Y-76742591D01*
X136755910Y-76742596D01*
X136749500Y-76802216D01*
X136749500Y-77325500D01*
X136727826Y-77377826D01*
X136675500Y-77399500D01*
X132852727Y-77399500D01*
X132747273Y-77399500D01*
X132707933Y-77410041D01*
X132645411Y-77426793D01*
X132645407Y-77426795D01*
X132554090Y-77479517D01*
X130655781Y-79377826D01*
X130603455Y-79399500D01*
X129505123Y-79399500D01*
X129452797Y-79377826D01*
X129422765Y-79347794D01*
X129407552Y-79341077D01*
X129319991Y-79302415D01*
X129319990Y-79302414D01*
X129319988Y-79302414D01*
X129298659Y-79299940D01*
X129294865Y-79299500D01*
X129294864Y-79299500D01*
X128505136Y-79299500D01*
X128480013Y-79302414D01*
X128480007Y-79302415D01*
X128377234Y-79347794D01*
X128297794Y-79427234D01*
X128252414Y-79530011D01*
X128249500Y-79555135D01*
X117525500Y-79555135D01*
X117525499Y-79255136D01*
X117522585Y-79230009D01*
X117522534Y-79229895D01*
X117522533Y-79229819D01*
X117521123Y-79224636D01*
X117522404Y-79224287D01*
X117521271Y-79175407D01*
X117521123Y-79175367D01*
X117521258Y-79174867D01*
X117521222Y-79173274D01*
X117522535Y-79170104D01*
X117522585Y-79169991D01*
X117525500Y-79144865D01*
X117525499Y-78755136D01*
X117525499Y-78755135D01*
X119974500Y-78755135D01*
X119974500Y-79144863D01*
X119977414Y-79169986D01*
X119977415Y-79169992D01*
X120009757Y-79243239D01*
X120022794Y-79272765D01*
X120102235Y-79352206D01*
X120205009Y-79397585D01*
X120230135Y-79400500D01*
X121169864Y-79400499D01*
X121194991Y-79397585D01*
X121287349Y-79356804D01*
X121317239Y-79350500D01*
X121652726Y-79350500D01*
X121652727Y-79350500D01*
X121754588Y-79323207D01*
X121845913Y-79270480D01*
X122294219Y-78822174D01*
X122346545Y-78800500D01*
X122694877Y-78800500D01*
X122747203Y-78822174D01*
X122777235Y-78852206D01*
X122880009Y-78897585D01*
X122905135Y-78900500D01*
X123694864Y-78900499D01*
X123719991Y-78897585D01*
X123822765Y-78852206D01*
X123902206Y-78772765D01*
X123947585Y-78669991D01*
X123950500Y-78644865D01*
X123950499Y-78155136D01*
X123947585Y-78130009D01*
X123902206Y-78027235D01*
X123822765Y-77947794D01*
X123719991Y-77902415D01*
X123719990Y-77902414D01*
X123719988Y-77902414D01*
X123698659Y-77899940D01*
X123694865Y-77899500D01*
X123694864Y-77899500D01*
X122905136Y-77899500D01*
X122880013Y-77902414D01*
X122880007Y-77902415D01*
X122777234Y-77947794D01*
X122747203Y-77977826D01*
X122694877Y-77999500D01*
X122097271Y-77999500D01*
X121995417Y-78026791D01*
X121995408Y-78026795D01*
X121912782Y-78074500D01*
X121904086Y-78079520D01*
X121455781Y-78527826D01*
X121403455Y-78549500D01*
X121317239Y-78549500D01*
X121287349Y-78543195D01*
X121194991Y-78502415D01*
X121194990Y-78502414D01*
X121194988Y-78502414D01*
X121173659Y-78499940D01*
X121169865Y-78499500D01*
X121169864Y-78499500D01*
X120230136Y-78499500D01*
X120205013Y-78502414D01*
X120205007Y-78502415D01*
X120102234Y-78547794D01*
X120022794Y-78627234D01*
X119977414Y-78730011D01*
X119974500Y-78755135D01*
X117525499Y-78755135D01*
X117522585Y-78730009D01*
X117522534Y-78729895D01*
X117522533Y-78729819D01*
X117521123Y-78724636D01*
X117522404Y-78724287D01*
X117521271Y-78675407D01*
X117521123Y-78675367D01*
X117521258Y-78674867D01*
X117521222Y-78673274D01*
X117522535Y-78670104D01*
X117522585Y-78669991D01*
X117525500Y-78644865D01*
X117525499Y-78255136D01*
X117522585Y-78230009D01*
X117522534Y-78229895D01*
X117522533Y-78229819D01*
X117521123Y-78224636D01*
X117522404Y-78224287D01*
X117521271Y-78175407D01*
X117521123Y-78175367D01*
X117521258Y-78174867D01*
X117521222Y-78173274D01*
X117522535Y-78170104D01*
X117522585Y-78169991D01*
X117525500Y-78144865D01*
X117525499Y-78049498D01*
X117547173Y-77997174D01*
X117599498Y-77975499D01*
X117694863Y-77975499D01*
X117694864Y-77975499D01*
X117719991Y-77972585D01*
X117822765Y-77927206D01*
X117902206Y-77847765D01*
X117932305Y-77779595D01*
X117973268Y-77740483D01*
X118029890Y-77741791D01*
X118067694Y-77779595D01*
X118097794Y-77847765D01*
X118177235Y-77927206D01*
X118280009Y-77972585D01*
X118305135Y-77975500D01*
X118694864Y-77975499D01*
X118719991Y-77972585D01*
X118720104Y-77972534D01*
X118720180Y-77972533D01*
X118725364Y-77971123D01*
X118725712Y-77972404D01*
X118774592Y-77971271D01*
X118774633Y-77971123D01*
X118775132Y-77971258D01*
X118776726Y-77971222D01*
X118779892Y-77972533D01*
X118780009Y-77972585D01*
X118805135Y-77975500D01*
X119194864Y-77975499D01*
X119219991Y-77972585D01*
X119220104Y-77972534D01*
X119220180Y-77972533D01*
X119225364Y-77971123D01*
X119225712Y-77972404D01*
X119274592Y-77971271D01*
X119274633Y-77971123D01*
X119275132Y-77971258D01*
X119276726Y-77971222D01*
X119279892Y-77972533D01*
X119280009Y-77972585D01*
X119305135Y-77975500D01*
X119694864Y-77975499D01*
X119719991Y-77972585D01*
X119720104Y-77972534D01*
X119720180Y-77972533D01*
X119725364Y-77971123D01*
X119725712Y-77972404D01*
X119774592Y-77971271D01*
X119774633Y-77971123D01*
X119775132Y-77971258D01*
X119776726Y-77971222D01*
X119779892Y-77972533D01*
X119780009Y-77972585D01*
X119805135Y-77975500D01*
X120194864Y-77975499D01*
X120219991Y-77972585D01*
X120322765Y-77927206D01*
X120402206Y-77847765D01*
X120447585Y-77744991D01*
X120450500Y-77719865D01*
X120450499Y-77431898D01*
X120472172Y-77379574D01*
X121186049Y-76665698D01*
X121238374Y-76644025D01*
X121290700Y-76665699D01*
X121297082Y-76672976D01*
X121328526Y-76713954D01*
X121365802Y-76762532D01*
X121380461Y-76817238D01*
X121365803Y-76852628D01*
X121340975Y-76884984D01*
X121288025Y-77012817D01*
X121269965Y-77150000D01*
X121288025Y-77287182D01*
X121325571Y-77377826D01*
X121340976Y-77415018D01*
X121425209Y-77524791D01*
X121534982Y-77609024D01*
X121662817Y-77661974D01*
X121800000Y-77680035D01*
X121937183Y-77661974D01*
X122065018Y-77609024D01*
X122174791Y-77524791D01*
X122228766Y-77454451D01*
X122277816Y-77426133D01*
X122287474Y-77425500D01*
X122719877Y-77425500D01*
X122772203Y-77447174D01*
X122777235Y-77452206D01*
X122880009Y-77497585D01*
X122905135Y-77500500D01*
X123694864Y-77500499D01*
X123719991Y-77497585D01*
X123822765Y-77452206D01*
X123902206Y-77372765D01*
X123947585Y-77269991D01*
X123950500Y-77244865D01*
X123950499Y-76755136D01*
X123947585Y-76730009D01*
X123925455Y-76679890D01*
X123924147Y-76623268D01*
X123925455Y-76620109D01*
X123926276Y-76618250D01*
X123947585Y-76569991D01*
X123950500Y-76544865D01*
X123950499Y-76055136D01*
X123947585Y-76030009D01*
X123925455Y-75979890D01*
X123924147Y-75923268D01*
X123925455Y-75920109D01*
X123947585Y-75869991D01*
X123950500Y-75844865D01*
X123950499Y-75624498D01*
X123972173Y-75572173D01*
X124024499Y-75550499D01*
X124244862Y-75550499D01*
X124244864Y-75550499D01*
X124269991Y-75547585D01*
X124320109Y-75525454D01*
X124376730Y-75524147D01*
X124379889Y-75525455D01*
X124403622Y-75535934D01*
X124430009Y-75547585D01*
X124455135Y-75550500D01*
X124944864Y-75550499D01*
X124969991Y-75547585D01*
X125020109Y-75525454D01*
X125076730Y-75524147D01*
X125079889Y-75525455D01*
X125103622Y-75535934D01*
X125130009Y-75547585D01*
X125155135Y-75550500D01*
X125644864Y-75550499D01*
X125669991Y-75547585D01*
X125772765Y-75502206D01*
X125852206Y-75422765D01*
X125897585Y-75319991D01*
X125900500Y-75294865D01*
X125900499Y-75153937D01*
X125910413Y-75116936D01*
X125912984Y-75112485D01*
X125950499Y-74972477D01*
X125950500Y-74972477D01*
X125950500Y-74524500D01*
X125972174Y-74472174D01*
X126024500Y-74450500D01*
X127575500Y-74450500D01*
X127627826Y-74472174D01*
X127649500Y-74524500D01*
X127649500Y-74972477D01*
X127687014Y-75112480D01*
X127687015Y-75112481D01*
X127687016Y-75112485D01*
X127689587Y-75116939D01*
X127699500Y-75153935D01*
X127699500Y-75294864D01*
X127702414Y-75319986D01*
X127702415Y-75319992D01*
X127730898Y-75384500D01*
X127747794Y-75422765D01*
X127827235Y-75502206D01*
X127930009Y-75547585D01*
X127955135Y-75550500D01*
X128444864Y-75550499D01*
X128469991Y-75547585D01*
X128572765Y-75502206D01*
X128652206Y-75422765D01*
X128697585Y-75319991D01*
X128700500Y-75294865D01*
X128700499Y-75153937D01*
X128710413Y-75116936D01*
X128712984Y-75112485D01*
X128750499Y-74972477D01*
X128750500Y-74972477D01*
X128750500Y-74524500D01*
X128772174Y-74472174D01*
X128824500Y-74450500D01*
X131172477Y-74450500D01*
X131172477Y-74450499D01*
X131312485Y-74412984D01*
X131334108Y-74400500D01*
X131438015Y-74340510D01*
X131990510Y-73788015D01*
X132062984Y-73662485D01*
X132066921Y-73647794D01*
X132079080Y-73602414D01*
X132100499Y-73522476D01*
X132100500Y-73522476D01*
X132100500Y-73137095D01*
X132122174Y-73084769D01*
X132129783Y-73078133D01*
X132171500Y-73046500D01*
X132184126Y-73029848D01*
X132233012Y-73001252D01*
X132287802Y-73015597D01*
X132315668Y-73060125D01*
X132330261Y-73133491D01*
X132330264Y-73133501D01*
X132390603Y-73279174D01*
X132390605Y-73279177D01*
X132390606Y-73279179D01*
X132478211Y-73410289D01*
X132589711Y-73521789D01*
X132720821Y-73609394D01*
X132720826Y-73609396D01*
X132720825Y-73609396D01*
X132848995Y-73662485D01*
X132866503Y-73669737D01*
X133021158Y-73700500D01*
X133021160Y-73700500D01*
X133178840Y-73700500D01*
X133178842Y-73700500D01*
X133333497Y-73669737D01*
X133479179Y-73609394D01*
X133610289Y-73521789D01*
X133721789Y-73410289D01*
X133809394Y-73279179D01*
X133869737Y-73133497D01*
X133900500Y-72978842D01*
X133900500Y-71221155D01*
X133900500Y-70521158D01*
X133898014Y-70508658D01*
X133869738Y-70366503D01*
X133809394Y-70220821D01*
X133721789Y-70089711D01*
X133597789Y-69965711D01*
X133594767Y-69963692D01*
X133569461Y-69946783D01*
X133478533Y-69886027D01*
X133447069Y-69838937D01*
X133458118Y-69783388D01*
X133505210Y-69751922D01*
X133519647Y-69750500D01*
X142025500Y-69750500D01*
X142077826Y-69772174D01*
G37*
%TD.AperFunction*%
%TA.AperFunction,Conductor*%
G36*
X110190411Y-76954901D02*
G01*
X110235164Y-76952932D01*
X110235344Y-76952316D01*
X110237157Y-76952844D01*
X110237785Y-76952817D01*
X110239501Y-76953528D01*
X110240775Y-76953899D01*
X110240777Y-76953900D01*
X110290909Y-76960500D01*
X110378000Y-76960499D01*
X110430325Y-76982173D01*
X110452000Y-77034498D01*
X110452000Y-77121589D01*
X110458599Y-77171720D01*
X110460185Y-77177160D01*
X110457603Y-77177912D01*
X110459557Y-77222660D01*
X110460184Y-77222843D01*
X110459645Y-77224689D01*
X110459673Y-77225310D01*
X110458970Y-77227004D01*
X110458599Y-77228277D01*
X110452000Y-77278410D01*
X110452000Y-77621589D01*
X110458599Y-77671720D01*
X110460185Y-77677160D01*
X110457603Y-77677912D01*
X110459557Y-77722660D01*
X110460184Y-77722843D01*
X110459645Y-77724689D01*
X110459673Y-77725310D01*
X110458970Y-77727004D01*
X110458599Y-77728277D01*
X110452000Y-77778410D01*
X110452000Y-78121589D01*
X110458599Y-78171720D01*
X110460185Y-78177160D01*
X110457603Y-78177912D01*
X110459557Y-78222660D01*
X110460184Y-78222843D01*
X110459645Y-78224689D01*
X110459673Y-78225310D01*
X110458970Y-78227004D01*
X110458599Y-78228277D01*
X110452000Y-78278410D01*
X110452000Y-78621589D01*
X110458599Y-78671720D01*
X110460185Y-78677160D01*
X110457603Y-78677912D01*
X110459557Y-78722660D01*
X110460184Y-78722843D01*
X110459645Y-78724689D01*
X110459673Y-78725310D01*
X110458970Y-78727004D01*
X110458599Y-78728277D01*
X110452000Y-78778410D01*
X110452000Y-79121589D01*
X110458599Y-79171720D01*
X110460185Y-79177160D01*
X110457603Y-79177912D01*
X110459557Y-79222660D01*
X110460184Y-79222843D01*
X110459645Y-79224689D01*
X110459673Y-79225310D01*
X110458970Y-79227004D01*
X110458599Y-79228277D01*
X110452000Y-79278410D01*
X110452000Y-79621589D01*
X110458599Y-79671720D01*
X110460185Y-79677160D01*
X110457603Y-79677912D01*
X110459557Y-79722660D01*
X110460184Y-79722843D01*
X110459645Y-79724689D01*
X110459673Y-79725310D01*
X110458970Y-79727004D01*
X110458599Y-79728277D01*
X110452000Y-79778410D01*
X110452000Y-80121589D01*
X110458599Y-80171720D01*
X110460185Y-80177160D01*
X110457603Y-80177912D01*
X110459557Y-80222660D01*
X110460184Y-80222843D01*
X110459645Y-80224689D01*
X110459673Y-80225310D01*
X110458970Y-80227004D01*
X110458599Y-80228277D01*
X110452000Y-80278410D01*
X110452000Y-80621589D01*
X110458599Y-80671720D01*
X110460185Y-80677160D01*
X110457603Y-80677912D01*
X110459557Y-80722660D01*
X110460184Y-80722843D01*
X110459645Y-80724689D01*
X110459673Y-80725310D01*
X110458970Y-80727004D01*
X110458599Y-80728277D01*
X110452000Y-80778410D01*
X110452000Y-81121589D01*
X110458599Y-81171720D01*
X110460185Y-81177160D01*
X110457603Y-81177912D01*
X110459557Y-81222660D01*
X110460184Y-81222843D01*
X110459645Y-81224689D01*
X110459673Y-81225310D01*
X110458970Y-81227004D01*
X110458599Y-81228277D01*
X110453613Y-81266158D01*
X110452477Y-81274790D01*
X110452000Y-81278410D01*
X110452000Y-81621589D01*
X110458599Y-81671720D01*
X110460185Y-81677160D01*
X110457603Y-81677912D01*
X110459557Y-81722660D01*
X110460184Y-81722843D01*
X110459645Y-81724689D01*
X110459673Y-81725310D01*
X110458970Y-81727004D01*
X110458599Y-81728277D01*
X110452000Y-81778410D01*
X110452000Y-82121589D01*
X110458599Y-82171720D01*
X110460185Y-82177160D01*
X110457603Y-82177912D01*
X110459557Y-82222660D01*
X110460184Y-82222843D01*
X110459645Y-82224689D01*
X110459673Y-82225310D01*
X110458970Y-82227004D01*
X110458599Y-82228277D01*
X110452000Y-82278410D01*
X110452000Y-82365500D01*
X110430326Y-82417826D01*
X110378001Y-82439500D01*
X110290910Y-82439500D01*
X110240779Y-82446099D01*
X110235340Y-82447685D01*
X110234587Y-82445103D01*
X110189839Y-82447057D01*
X110189657Y-82447684D01*
X110187810Y-82447145D01*
X110187190Y-82447173D01*
X110185495Y-82446470D01*
X110184222Y-82446099D01*
X110145753Y-82441035D01*
X110134091Y-82439500D01*
X110134089Y-82439500D01*
X109790910Y-82439500D01*
X109740779Y-82446099D01*
X109735340Y-82447685D01*
X109734587Y-82445103D01*
X109689839Y-82447057D01*
X109689657Y-82447684D01*
X109687810Y-82447145D01*
X109687190Y-82447173D01*
X109685495Y-82446470D01*
X109684222Y-82446099D01*
X109645753Y-82441035D01*
X109634091Y-82439500D01*
X109634089Y-82439500D01*
X109290910Y-82439500D01*
X109240779Y-82446099D01*
X109235340Y-82447685D01*
X109234587Y-82445103D01*
X109189839Y-82447057D01*
X109189657Y-82447684D01*
X109187810Y-82447145D01*
X109187190Y-82447173D01*
X109185495Y-82446470D01*
X109184222Y-82446099D01*
X109145753Y-82441035D01*
X109134091Y-82439500D01*
X109134089Y-82439500D01*
X108790910Y-82439500D01*
X108740779Y-82446099D01*
X108735340Y-82447685D01*
X108734587Y-82445103D01*
X108689839Y-82447057D01*
X108689657Y-82447684D01*
X108687810Y-82447145D01*
X108687190Y-82447173D01*
X108685495Y-82446470D01*
X108684222Y-82446099D01*
X108645753Y-82441035D01*
X108634091Y-82439500D01*
X108634089Y-82439500D01*
X108290910Y-82439500D01*
X108240779Y-82446099D01*
X108235340Y-82447685D01*
X108234587Y-82445103D01*
X108189839Y-82447057D01*
X108189657Y-82447684D01*
X108187810Y-82447145D01*
X108187190Y-82447173D01*
X108185495Y-82446470D01*
X108184222Y-82446099D01*
X108145753Y-82441035D01*
X108134091Y-82439500D01*
X108134089Y-82439500D01*
X107790910Y-82439500D01*
X107740779Y-82446099D01*
X107735340Y-82447685D01*
X107734587Y-82445103D01*
X107689839Y-82447057D01*
X107689657Y-82447684D01*
X107687810Y-82447145D01*
X107687190Y-82447173D01*
X107685495Y-82446470D01*
X107684222Y-82446099D01*
X107645753Y-82441035D01*
X107634091Y-82439500D01*
X107634089Y-82439500D01*
X107290910Y-82439500D01*
X107240779Y-82446099D01*
X107235340Y-82447685D01*
X107234587Y-82445103D01*
X107189839Y-82447057D01*
X107189657Y-82447684D01*
X107187810Y-82447145D01*
X107187190Y-82447173D01*
X107185495Y-82446470D01*
X107184222Y-82446099D01*
X107145753Y-82441035D01*
X107134091Y-82439500D01*
X107134089Y-82439500D01*
X106790915Y-82439500D01*
X106779263Y-82441033D01*
X106774104Y-82441712D01*
X106724054Y-82430346D01*
X106709891Y-82421118D01*
X106701759Y-82417750D01*
X106701737Y-82417741D01*
X106701710Y-82417730D01*
X106695224Y-82415131D01*
X106695221Y-82415130D01*
X106695220Y-82415130D01*
X106651076Y-82406878D01*
X106584864Y-82394500D01*
X106584861Y-82394500D01*
X105840138Y-82394500D01*
X105821832Y-82395399D01*
X105810176Y-82395972D01*
X105807941Y-82396192D01*
X105771402Y-82402044D01*
X105690782Y-82436530D01*
X105652023Y-82441860D01*
X105634091Y-82439500D01*
X105290910Y-82439500D01*
X105240779Y-82446099D01*
X105235340Y-82447685D01*
X105234587Y-82445103D01*
X105189839Y-82447057D01*
X105189657Y-82447684D01*
X105187810Y-82447145D01*
X105187190Y-82447173D01*
X105185495Y-82446470D01*
X105184222Y-82446099D01*
X105145753Y-82441035D01*
X105134091Y-82439500D01*
X105134089Y-82439500D01*
X105046999Y-82439500D01*
X104994673Y-82417826D01*
X104972999Y-82365500D01*
X104972999Y-82278410D01*
X104970946Y-82262817D01*
X104966400Y-82228277D01*
X104966396Y-82228270D01*
X104964815Y-82222842D01*
X104967401Y-82222088D01*
X104965432Y-82177335D01*
X104964816Y-82177156D01*
X104965344Y-82175342D01*
X104965317Y-82174715D01*
X104966028Y-82172998D01*
X104966398Y-82171726D01*
X104966400Y-82171723D01*
X104973000Y-82121591D01*
X104972999Y-81778410D01*
X104966400Y-81728277D01*
X104966396Y-81728270D01*
X104964815Y-81722842D01*
X104967401Y-81722088D01*
X104965432Y-81677335D01*
X104964816Y-81677156D01*
X104965344Y-81675342D01*
X104965317Y-81674715D01*
X104966028Y-81672998D01*
X104966398Y-81671726D01*
X104966400Y-81671723D01*
X104973000Y-81621591D01*
X104972999Y-81278410D01*
X104966400Y-81228277D01*
X104966396Y-81228270D01*
X104964815Y-81222842D01*
X104967401Y-81222088D01*
X104965432Y-81177335D01*
X104964816Y-81177156D01*
X104965344Y-81175342D01*
X104965317Y-81174715D01*
X104966028Y-81172998D01*
X104966398Y-81171726D01*
X104966400Y-81171723D01*
X104973000Y-81121591D01*
X104972999Y-80778410D01*
X104966400Y-80728277D01*
X104966396Y-80728270D01*
X104964815Y-80722842D01*
X104967401Y-80722088D01*
X104965432Y-80677335D01*
X104964816Y-80677156D01*
X104965344Y-80675342D01*
X104965317Y-80674715D01*
X104966028Y-80672998D01*
X104966398Y-80671726D01*
X104966400Y-80671723D01*
X104973000Y-80621591D01*
X104972999Y-80278410D01*
X104966400Y-80228277D01*
X104966396Y-80228270D01*
X104964815Y-80222842D01*
X104967401Y-80222088D01*
X104965432Y-80177335D01*
X104964816Y-80177156D01*
X104965344Y-80175342D01*
X104965317Y-80174715D01*
X104966028Y-80172998D01*
X104966398Y-80171726D01*
X104966400Y-80171723D01*
X104973000Y-80121591D01*
X104972999Y-79778410D01*
X104966400Y-79728277D01*
X104966396Y-79728270D01*
X104964815Y-79722842D01*
X104967401Y-79722088D01*
X104965432Y-79677335D01*
X104964816Y-79677156D01*
X104965344Y-79675342D01*
X104965317Y-79674715D01*
X104966028Y-79672998D01*
X104966398Y-79671726D01*
X104966400Y-79671723D01*
X104973000Y-79621591D01*
X104972999Y-79278410D01*
X104966400Y-79228277D01*
X104966396Y-79228270D01*
X104964815Y-79222842D01*
X104967401Y-79222088D01*
X104965432Y-79177335D01*
X104964816Y-79177156D01*
X104965344Y-79175342D01*
X104965317Y-79174715D01*
X104966028Y-79172998D01*
X104966398Y-79171726D01*
X104966400Y-79171723D01*
X104973000Y-79121591D01*
X104972999Y-78778410D01*
X104966400Y-78728277D01*
X104966396Y-78728270D01*
X104964815Y-78722842D01*
X104967401Y-78722088D01*
X104965432Y-78677335D01*
X104964816Y-78677156D01*
X104965344Y-78675342D01*
X104965317Y-78674715D01*
X104966028Y-78672998D01*
X104966398Y-78671726D01*
X104966400Y-78671723D01*
X104973000Y-78621591D01*
X104972999Y-78278410D01*
X104966400Y-78228277D01*
X104966396Y-78228270D01*
X104964815Y-78222842D01*
X104967401Y-78222088D01*
X104965432Y-78177335D01*
X104964816Y-78177156D01*
X104965344Y-78175342D01*
X104965317Y-78174715D01*
X104966028Y-78172998D01*
X104966398Y-78171726D01*
X104966400Y-78171723D01*
X104973000Y-78121591D01*
X104972999Y-77778410D01*
X104966400Y-77728277D01*
X104966396Y-77728270D01*
X104964815Y-77722842D01*
X104967401Y-77722088D01*
X104965432Y-77677335D01*
X104964816Y-77677156D01*
X104965344Y-77675342D01*
X104965317Y-77674715D01*
X104966028Y-77672998D01*
X104966398Y-77671726D01*
X104966400Y-77671723D01*
X104973000Y-77621591D01*
X104972999Y-77278410D01*
X104966400Y-77228277D01*
X104966396Y-77228270D01*
X104964815Y-77222842D01*
X104967401Y-77222088D01*
X104965432Y-77177335D01*
X104964816Y-77177156D01*
X104965344Y-77175342D01*
X104965317Y-77174715D01*
X104966028Y-77172998D01*
X104966398Y-77171726D01*
X104966400Y-77171723D01*
X104973000Y-77121591D01*
X104972999Y-77034498D01*
X104994673Y-76982174D01*
X105046998Y-76960499D01*
X105134090Y-76960499D01*
X105184223Y-76953900D01*
X105184231Y-76953896D01*
X105189658Y-76952315D01*
X105190411Y-76954901D01*
X105235164Y-76952932D01*
X105235344Y-76952316D01*
X105237157Y-76952844D01*
X105237785Y-76952817D01*
X105239501Y-76953528D01*
X105240775Y-76953899D01*
X105240777Y-76953900D01*
X105290909Y-76960500D01*
X105634090Y-76960499D01*
X105684223Y-76953900D01*
X105684231Y-76953896D01*
X105689658Y-76952315D01*
X105690411Y-76954901D01*
X105735164Y-76952932D01*
X105735344Y-76952316D01*
X105737157Y-76952844D01*
X105737785Y-76952817D01*
X105739501Y-76953528D01*
X105740775Y-76953899D01*
X105740777Y-76953900D01*
X105790909Y-76960500D01*
X106134090Y-76960499D01*
X106184223Y-76953900D01*
X106184231Y-76953896D01*
X106189658Y-76952315D01*
X106190411Y-76954901D01*
X106235164Y-76952932D01*
X106235344Y-76952316D01*
X106237157Y-76952844D01*
X106237785Y-76952817D01*
X106239501Y-76953528D01*
X106240775Y-76953899D01*
X106240777Y-76953900D01*
X106290909Y-76960500D01*
X106634090Y-76960499D01*
X106684223Y-76953900D01*
X106684231Y-76953896D01*
X106689658Y-76952315D01*
X106690411Y-76954901D01*
X106735164Y-76952932D01*
X106735344Y-76952316D01*
X106737157Y-76952844D01*
X106737785Y-76952817D01*
X106739501Y-76953528D01*
X106740775Y-76953899D01*
X106740777Y-76953900D01*
X106790909Y-76960500D01*
X107134090Y-76960499D01*
X107184223Y-76953900D01*
X107184231Y-76953896D01*
X107189658Y-76952315D01*
X107190411Y-76954901D01*
X107235164Y-76952932D01*
X107235344Y-76952316D01*
X107237157Y-76952844D01*
X107237785Y-76952817D01*
X107239501Y-76953528D01*
X107240775Y-76953899D01*
X107240777Y-76953900D01*
X107290909Y-76960500D01*
X107634090Y-76960499D01*
X107684223Y-76953900D01*
X107684231Y-76953896D01*
X107689658Y-76952315D01*
X107690411Y-76954901D01*
X107735164Y-76952932D01*
X107735344Y-76952316D01*
X107737157Y-76952844D01*
X107737785Y-76952817D01*
X107739501Y-76953528D01*
X107740775Y-76953899D01*
X107740777Y-76953900D01*
X107790909Y-76960500D01*
X108134090Y-76960499D01*
X108184223Y-76953900D01*
X108184231Y-76953896D01*
X108189658Y-76952315D01*
X108190411Y-76954901D01*
X108235164Y-76952932D01*
X108235344Y-76952316D01*
X108237157Y-76952844D01*
X108237785Y-76952817D01*
X108239501Y-76953528D01*
X108240775Y-76953899D01*
X108240777Y-76953900D01*
X108290909Y-76960500D01*
X108634090Y-76960499D01*
X108684223Y-76953900D01*
X108684231Y-76953896D01*
X108689658Y-76952315D01*
X108690411Y-76954901D01*
X108735164Y-76952932D01*
X108735344Y-76952316D01*
X108737157Y-76952844D01*
X108737785Y-76952817D01*
X108739501Y-76953528D01*
X108740775Y-76953899D01*
X108740777Y-76953900D01*
X108790909Y-76960500D01*
X109134090Y-76960499D01*
X109184223Y-76953900D01*
X109184231Y-76953896D01*
X109189658Y-76952315D01*
X109190411Y-76954901D01*
X109235164Y-76952932D01*
X109235344Y-76952316D01*
X109237157Y-76952844D01*
X109237785Y-76952817D01*
X109239501Y-76953528D01*
X109240775Y-76953899D01*
X109240777Y-76953900D01*
X109290909Y-76960500D01*
X109634090Y-76960499D01*
X109684223Y-76953900D01*
X109684231Y-76953896D01*
X109689658Y-76952315D01*
X109690411Y-76954901D01*
X109735164Y-76952932D01*
X109735344Y-76952316D01*
X109737157Y-76952844D01*
X109737785Y-76952817D01*
X109739501Y-76953528D01*
X109740775Y-76953899D01*
X109740777Y-76953900D01*
X109790909Y-76960500D01*
X110134090Y-76960499D01*
X110184223Y-76953900D01*
X110184231Y-76953896D01*
X110189658Y-76952315D01*
X110190411Y-76954901D01*
G37*
%TD.AperFunction*%
%TD*%
%TA.AperFunction,Conductor*%
%TO.N,+3.3V*%
G36*
X106592993Y-82703368D02*
G01*
X106596361Y-82711500D01*
X106596140Y-82713743D01*
X106587000Y-82759695D01*
X106587000Y-83170303D01*
X106599779Y-83234547D01*
X106600000Y-83236790D01*
X106600000Y-83800000D01*
X107288500Y-83800000D01*
X107296632Y-83803368D01*
X107300000Y-83811500D01*
X107300000Y-84838000D01*
X107296632Y-84846132D01*
X107288500Y-84849500D01*
X105811500Y-84849500D01*
X105803368Y-84846132D01*
X105800000Y-84838000D01*
X105800000Y-83280700D01*
X105801937Y-83274313D01*
X105823828Y-83241552D01*
X105838000Y-83170305D01*
X105837999Y-82759696D01*
X105828859Y-82713742D01*
X105830576Y-82705111D01*
X105837895Y-82700221D01*
X105840138Y-82700000D01*
X106584861Y-82700000D01*
X106592993Y-82703368D01*
G37*
%TD.AperFunction*%
%TD*%
%TA.AperFunction,Conductor*%
%TO.N,+3.3V*%
G36*
X104096632Y-74403368D02*
G01*
X104100000Y-74411500D01*
X104100000Y-75588500D01*
X104096632Y-75596632D01*
X104088500Y-75600000D01*
X103800000Y-75600000D01*
X103800000Y-75600001D01*
X103800000Y-77095236D01*
X103796632Y-77103368D01*
X103503368Y-77396632D01*
X103495236Y-77400000D01*
X102700000Y-77400000D01*
X102700000Y-77400001D01*
X102700000Y-77888500D01*
X102696632Y-77896632D01*
X102688500Y-77900000D01*
X101111500Y-77900000D01*
X101103368Y-77896632D01*
X101100000Y-77888500D01*
X101100000Y-76411500D01*
X101103368Y-76403368D01*
X101111500Y-76400000D01*
X102699999Y-76400000D01*
X102700000Y-76400000D01*
X102700000Y-74411500D01*
X102703368Y-74403368D01*
X102711500Y-74400000D01*
X104088500Y-74400000D01*
X104096632Y-74403368D01*
G37*
%TD.AperFunction*%
%TD*%
M02*
