%TF.GenerationSoftware,KiCad,Pcbnew,8.0.6-8.0.6-0~ubuntu24.04.1*%
%TF.CreationDate,2024-10-27T16:32:26+01:00*%
%TF.ProjectId,LoRa,4c6f5261-2e6b-4696-9361-645f70636258,rev?*%
%TF.SameCoordinates,Original*%
%TF.FileFunction,Legend,Top*%
%TF.FilePolarity,Positive*%
%FSLAX46Y46*%
G04 Gerber Fmt 4.6, Leading zero omitted, Abs format (unit mm)*
G04 Created by KiCad (PCBNEW 8.0.6-8.0.6-0~ubuntu24.04.1) date 2024-10-27 16:32:26*
%MOMM*%
%LPD*%
G01*
G04 APERTURE LIST*
%ADD10C,0.150000*%
%ADD11C,0.254000*%
%ADD12C,0.120000*%
%ADD13C,0.200000*%
%ADD14C,0.127000*%
%ADD15C,0.100000*%
%ADD16C,0.250000*%
G04 APERTURE END LIST*
D10*
X116789580Y-81992857D02*
X116837200Y-82040476D01*
X116837200Y-82040476D02*
X116884819Y-82183333D01*
X116884819Y-82183333D02*
X116884819Y-82278571D01*
X116884819Y-82278571D02*
X116837200Y-82421428D01*
X116837200Y-82421428D02*
X116741961Y-82516666D01*
X116741961Y-82516666D02*
X116646723Y-82564285D01*
X116646723Y-82564285D02*
X116456247Y-82611904D01*
X116456247Y-82611904D02*
X116313390Y-82611904D01*
X116313390Y-82611904D02*
X116122914Y-82564285D01*
X116122914Y-82564285D02*
X116027676Y-82516666D01*
X116027676Y-82516666D02*
X115932438Y-82421428D01*
X115932438Y-82421428D02*
X115884819Y-82278571D01*
X115884819Y-82278571D02*
X115884819Y-82183333D01*
X115884819Y-82183333D02*
X115932438Y-82040476D01*
X115932438Y-82040476D02*
X115980057Y-81992857D01*
X116884819Y-81040476D02*
X116884819Y-81611904D01*
X116884819Y-81326190D02*
X115884819Y-81326190D01*
X115884819Y-81326190D02*
X116027676Y-81421428D01*
X116027676Y-81421428D02*
X116122914Y-81516666D01*
X116122914Y-81516666D02*
X116170533Y-81611904D01*
X116218152Y-80183333D02*
X116884819Y-80183333D01*
X115837200Y-80421428D02*
X116551485Y-80659523D01*
X116551485Y-80659523D02*
X116551485Y-80040476D01*
X118566666Y-82951009D02*
X118233333Y-82951009D01*
X118233333Y-83474819D02*
X118233333Y-82474819D01*
X118233333Y-82474819D02*
X118709523Y-82474819D01*
X119423809Y-82951009D02*
X119566666Y-82998628D01*
X119566666Y-82998628D02*
X119614285Y-83046247D01*
X119614285Y-83046247D02*
X119661904Y-83141485D01*
X119661904Y-83141485D02*
X119661904Y-83284342D01*
X119661904Y-83284342D02*
X119614285Y-83379580D01*
X119614285Y-83379580D02*
X119566666Y-83427200D01*
X119566666Y-83427200D02*
X119471428Y-83474819D01*
X119471428Y-83474819D02*
X119090476Y-83474819D01*
X119090476Y-83474819D02*
X119090476Y-82474819D01*
X119090476Y-82474819D02*
X119423809Y-82474819D01*
X119423809Y-82474819D02*
X119519047Y-82522438D01*
X119519047Y-82522438D02*
X119566666Y-82570057D01*
X119566666Y-82570057D02*
X119614285Y-82665295D01*
X119614285Y-82665295D02*
X119614285Y-82760533D01*
X119614285Y-82760533D02*
X119566666Y-82855771D01*
X119566666Y-82855771D02*
X119519047Y-82903390D01*
X119519047Y-82903390D02*
X119423809Y-82951009D01*
X119423809Y-82951009D02*
X119090476Y-82951009D01*
X120042857Y-82570057D02*
X120090476Y-82522438D01*
X120090476Y-82522438D02*
X120185714Y-82474819D01*
X120185714Y-82474819D02*
X120423809Y-82474819D01*
X120423809Y-82474819D02*
X120519047Y-82522438D01*
X120519047Y-82522438D02*
X120566666Y-82570057D01*
X120566666Y-82570057D02*
X120614285Y-82665295D01*
X120614285Y-82665295D02*
X120614285Y-82760533D01*
X120614285Y-82760533D02*
X120566666Y-82903390D01*
X120566666Y-82903390D02*
X119995238Y-83474819D01*
X119995238Y-83474819D02*
X120614285Y-83474819D01*
X123594642Y-84489580D02*
X123547023Y-84537200D01*
X123547023Y-84537200D02*
X123404166Y-84584819D01*
X123404166Y-84584819D02*
X123308928Y-84584819D01*
X123308928Y-84584819D02*
X123166071Y-84537200D01*
X123166071Y-84537200D02*
X123070833Y-84441961D01*
X123070833Y-84441961D02*
X123023214Y-84346723D01*
X123023214Y-84346723D02*
X122975595Y-84156247D01*
X122975595Y-84156247D02*
X122975595Y-84013390D01*
X122975595Y-84013390D02*
X123023214Y-83822914D01*
X123023214Y-83822914D02*
X123070833Y-83727676D01*
X123070833Y-83727676D02*
X123166071Y-83632438D01*
X123166071Y-83632438D02*
X123308928Y-83584819D01*
X123308928Y-83584819D02*
X123404166Y-83584819D01*
X123404166Y-83584819D02*
X123547023Y-83632438D01*
X123547023Y-83632438D02*
X123594642Y-83680057D01*
X123975595Y-83680057D02*
X124023214Y-83632438D01*
X124023214Y-83632438D02*
X124118452Y-83584819D01*
X124118452Y-83584819D02*
X124356547Y-83584819D01*
X124356547Y-83584819D02*
X124451785Y-83632438D01*
X124451785Y-83632438D02*
X124499404Y-83680057D01*
X124499404Y-83680057D02*
X124547023Y-83775295D01*
X124547023Y-83775295D02*
X124547023Y-83870533D01*
X124547023Y-83870533D02*
X124499404Y-84013390D01*
X124499404Y-84013390D02*
X123927976Y-84584819D01*
X123927976Y-84584819D02*
X124547023Y-84584819D01*
X124927976Y-83680057D02*
X124975595Y-83632438D01*
X124975595Y-83632438D02*
X125070833Y-83584819D01*
X125070833Y-83584819D02*
X125308928Y-83584819D01*
X125308928Y-83584819D02*
X125404166Y-83632438D01*
X125404166Y-83632438D02*
X125451785Y-83680057D01*
X125451785Y-83680057D02*
X125499404Y-83775295D01*
X125499404Y-83775295D02*
X125499404Y-83870533D01*
X125499404Y-83870533D02*
X125451785Y-84013390D01*
X125451785Y-84013390D02*
X124880357Y-84584819D01*
X124880357Y-84584819D02*
X125499404Y-84584819D01*
X115429580Y-78692857D02*
X115477200Y-78740476D01*
X115477200Y-78740476D02*
X115524819Y-78883333D01*
X115524819Y-78883333D02*
X115524819Y-78978571D01*
X115524819Y-78978571D02*
X115477200Y-79121428D01*
X115477200Y-79121428D02*
X115381961Y-79216666D01*
X115381961Y-79216666D02*
X115286723Y-79264285D01*
X115286723Y-79264285D02*
X115096247Y-79311904D01*
X115096247Y-79311904D02*
X114953390Y-79311904D01*
X114953390Y-79311904D02*
X114762914Y-79264285D01*
X114762914Y-79264285D02*
X114667676Y-79216666D01*
X114667676Y-79216666D02*
X114572438Y-79121428D01*
X114572438Y-79121428D02*
X114524819Y-78978571D01*
X114524819Y-78978571D02*
X114524819Y-78883333D01*
X114524819Y-78883333D02*
X114572438Y-78740476D01*
X114572438Y-78740476D02*
X114620057Y-78692857D01*
X115524819Y-77740476D02*
X115524819Y-78311904D01*
X115524819Y-78026190D02*
X114524819Y-78026190D01*
X114524819Y-78026190D02*
X114667676Y-78121428D01*
X114667676Y-78121428D02*
X114762914Y-78216666D01*
X114762914Y-78216666D02*
X114810533Y-78311904D01*
X114524819Y-76835714D02*
X114524819Y-77311904D01*
X114524819Y-77311904D02*
X115001009Y-77359523D01*
X115001009Y-77359523D02*
X114953390Y-77311904D01*
X114953390Y-77311904D02*
X114905771Y-77216666D01*
X114905771Y-77216666D02*
X114905771Y-76978571D01*
X114905771Y-76978571D02*
X114953390Y-76883333D01*
X114953390Y-76883333D02*
X115001009Y-76835714D01*
X115001009Y-76835714D02*
X115096247Y-76788095D01*
X115096247Y-76788095D02*
X115334342Y-76788095D01*
X115334342Y-76788095D02*
X115429580Y-76835714D01*
X115429580Y-76835714D02*
X115477200Y-76883333D01*
X115477200Y-76883333D02*
X115524819Y-76978571D01*
X115524819Y-76978571D02*
X115524819Y-77216666D01*
X115524819Y-77216666D02*
X115477200Y-77311904D01*
X115477200Y-77311904D02*
X115429580Y-77359523D01*
X118339580Y-82005357D02*
X118387200Y-82052976D01*
X118387200Y-82052976D02*
X118434819Y-82195833D01*
X118434819Y-82195833D02*
X118434819Y-82291071D01*
X118434819Y-82291071D02*
X118387200Y-82433928D01*
X118387200Y-82433928D02*
X118291961Y-82529166D01*
X118291961Y-82529166D02*
X118196723Y-82576785D01*
X118196723Y-82576785D02*
X118006247Y-82624404D01*
X118006247Y-82624404D02*
X117863390Y-82624404D01*
X117863390Y-82624404D02*
X117672914Y-82576785D01*
X117672914Y-82576785D02*
X117577676Y-82529166D01*
X117577676Y-82529166D02*
X117482438Y-82433928D01*
X117482438Y-82433928D02*
X117434819Y-82291071D01*
X117434819Y-82291071D02*
X117434819Y-82195833D01*
X117434819Y-82195833D02*
X117482438Y-82052976D01*
X117482438Y-82052976D02*
X117530057Y-82005357D01*
X118434819Y-81052976D02*
X118434819Y-81624404D01*
X118434819Y-81338690D02*
X117434819Y-81338690D01*
X117434819Y-81338690D02*
X117577676Y-81433928D01*
X117577676Y-81433928D02*
X117672914Y-81529166D01*
X117672914Y-81529166D02*
X117720533Y-81624404D01*
X117434819Y-80719642D02*
X117434819Y-80100595D01*
X117434819Y-80100595D02*
X117815771Y-80433928D01*
X117815771Y-80433928D02*
X117815771Y-80291071D01*
X117815771Y-80291071D02*
X117863390Y-80195833D01*
X117863390Y-80195833D02*
X117911009Y-80148214D01*
X117911009Y-80148214D02*
X118006247Y-80100595D01*
X118006247Y-80100595D02*
X118244342Y-80100595D01*
X118244342Y-80100595D02*
X118339580Y-80148214D01*
X118339580Y-80148214D02*
X118387200Y-80195833D01*
X118387200Y-80195833D02*
X118434819Y-80291071D01*
X118434819Y-80291071D02*
X118434819Y-80576785D01*
X118434819Y-80576785D02*
X118387200Y-80672023D01*
X118387200Y-80672023D02*
X118339580Y-80719642D01*
X120208333Y-69529580D02*
X120160714Y-69577200D01*
X120160714Y-69577200D02*
X120017857Y-69624819D01*
X120017857Y-69624819D02*
X119922619Y-69624819D01*
X119922619Y-69624819D02*
X119779762Y-69577200D01*
X119779762Y-69577200D02*
X119684524Y-69481961D01*
X119684524Y-69481961D02*
X119636905Y-69386723D01*
X119636905Y-69386723D02*
X119589286Y-69196247D01*
X119589286Y-69196247D02*
X119589286Y-69053390D01*
X119589286Y-69053390D02*
X119636905Y-68862914D01*
X119636905Y-68862914D02*
X119684524Y-68767676D01*
X119684524Y-68767676D02*
X119779762Y-68672438D01*
X119779762Y-68672438D02*
X119922619Y-68624819D01*
X119922619Y-68624819D02*
X120017857Y-68624819D01*
X120017857Y-68624819D02*
X120160714Y-68672438D01*
X120160714Y-68672438D02*
X120208333Y-68720057D01*
X120684524Y-69624819D02*
X120875000Y-69624819D01*
X120875000Y-69624819D02*
X120970238Y-69577200D01*
X120970238Y-69577200D02*
X121017857Y-69529580D01*
X121017857Y-69529580D02*
X121113095Y-69386723D01*
X121113095Y-69386723D02*
X121160714Y-69196247D01*
X121160714Y-69196247D02*
X121160714Y-68815295D01*
X121160714Y-68815295D02*
X121113095Y-68720057D01*
X121113095Y-68720057D02*
X121065476Y-68672438D01*
X121065476Y-68672438D02*
X120970238Y-68624819D01*
X120970238Y-68624819D02*
X120779762Y-68624819D01*
X120779762Y-68624819D02*
X120684524Y-68672438D01*
X120684524Y-68672438D02*
X120636905Y-68720057D01*
X120636905Y-68720057D02*
X120589286Y-68815295D01*
X120589286Y-68815295D02*
X120589286Y-69053390D01*
X120589286Y-69053390D02*
X120636905Y-69148628D01*
X120636905Y-69148628D02*
X120684524Y-69196247D01*
X120684524Y-69196247D02*
X120779762Y-69243866D01*
X120779762Y-69243866D02*
X120970238Y-69243866D01*
X120970238Y-69243866D02*
X121065476Y-69196247D01*
X121065476Y-69196247D02*
X121113095Y-69148628D01*
X121113095Y-69148628D02*
X121160714Y-69053390D01*
X98366666Y-75559819D02*
X98366666Y-76274104D01*
X98366666Y-76274104D02*
X98319047Y-76416961D01*
X98319047Y-76416961D02*
X98223809Y-76512200D01*
X98223809Y-76512200D02*
X98080952Y-76559819D01*
X98080952Y-76559819D02*
X97985714Y-76559819D01*
X99366666Y-76559819D02*
X98795238Y-76559819D01*
X99080952Y-76559819D02*
X99080952Y-75559819D01*
X99080952Y-75559819D02*
X98985714Y-75702676D01*
X98985714Y-75702676D02*
X98890476Y-75797914D01*
X98890476Y-75797914D02*
X98795238Y-75845533D01*
X121745833Y-75784819D02*
X121412500Y-75308628D01*
X121174405Y-75784819D02*
X121174405Y-74784819D01*
X121174405Y-74784819D02*
X121555357Y-74784819D01*
X121555357Y-74784819D02*
X121650595Y-74832438D01*
X121650595Y-74832438D02*
X121698214Y-74880057D01*
X121698214Y-74880057D02*
X121745833Y-74975295D01*
X121745833Y-74975295D02*
X121745833Y-75118152D01*
X121745833Y-75118152D02*
X121698214Y-75213390D01*
X121698214Y-75213390D02*
X121650595Y-75261009D01*
X121650595Y-75261009D02*
X121555357Y-75308628D01*
X121555357Y-75308628D02*
X121174405Y-75308628D01*
X122317262Y-75213390D02*
X122222024Y-75165771D01*
X122222024Y-75165771D02*
X122174405Y-75118152D01*
X122174405Y-75118152D02*
X122126786Y-75022914D01*
X122126786Y-75022914D02*
X122126786Y-74975295D01*
X122126786Y-74975295D02*
X122174405Y-74880057D01*
X122174405Y-74880057D02*
X122222024Y-74832438D01*
X122222024Y-74832438D02*
X122317262Y-74784819D01*
X122317262Y-74784819D02*
X122507738Y-74784819D01*
X122507738Y-74784819D02*
X122602976Y-74832438D01*
X122602976Y-74832438D02*
X122650595Y-74880057D01*
X122650595Y-74880057D02*
X122698214Y-74975295D01*
X122698214Y-74975295D02*
X122698214Y-75022914D01*
X122698214Y-75022914D02*
X122650595Y-75118152D01*
X122650595Y-75118152D02*
X122602976Y-75165771D01*
X122602976Y-75165771D02*
X122507738Y-75213390D01*
X122507738Y-75213390D02*
X122317262Y-75213390D01*
X122317262Y-75213390D02*
X122222024Y-75261009D01*
X122222024Y-75261009D02*
X122174405Y-75308628D01*
X122174405Y-75308628D02*
X122126786Y-75403866D01*
X122126786Y-75403866D02*
X122126786Y-75594342D01*
X122126786Y-75594342D02*
X122174405Y-75689580D01*
X122174405Y-75689580D02*
X122222024Y-75737200D01*
X122222024Y-75737200D02*
X122317262Y-75784819D01*
X122317262Y-75784819D02*
X122507738Y-75784819D01*
X122507738Y-75784819D02*
X122602976Y-75737200D01*
X122602976Y-75737200D02*
X122650595Y-75689580D01*
X122650595Y-75689580D02*
X122698214Y-75594342D01*
X122698214Y-75594342D02*
X122698214Y-75403866D01*
X122698214Y-75403866D02*
X122650595Y-75308628D01*
X122650595Y-75308628D02*
X122602976Y-75261009D01*
X122602976Y-75261009D02*
X122507738Y-75213390D01*
D11*
X113760237Y-73824318D02*
X113760237Y-72554318D01*
X115090714Y-73703365D02*
X115030238Y-73763842D01*
X115030238Y-73763842D02*
X114848809Y-73824318D01*
X114848809Y-73824318D02*
X114727857Y-73824318D01*
X114727857Y-73824318D02*
X114546428Y-73763842D01*
X114546428Y-73763842D02*
X114425476Y-73642889D01*
X114425476Y-73642889D02*
X114364999Y-73521937D01*
X114364999Y-73521937D02*
X114304523Y-73280032D01*
X114304523Y-73280032D02*
X114304523Y-73098603D01*
X114304523Y-73098603D02*
X114364999Y-72856699D01*
X114364999Y-72856699D02*
X114425476Y-72735746D01*
X114425476Y-72735746D02*
X114546428Y-72614794D01*
X114546428Y-72614794D02*
X114727857Y-72554318D01*
X114727857Y-72554318D02*
X114848809Y-72554318D01*
X114848809Y-72554318D02*
X115030238Y-72614794D01*
X115030238Y-72614794D02*
X115090714Y-72675270D01*
X116179285Y-72977651D02*
X116179285Y-73824318D01*
X115876904Y-72493842D02*
X115574523Y-73400984D01*
X115574523Y-73400984D02*
X116360714Y-73400984D01*
D10*
X110870833Y-74039580D02*
X110823214Y-74087200D01*
X110823214Y-74087200D02*
X110680357Y-74134819D01*
X110680357Y-74134819D02*
X110585119Y-74134819D01*
X110585119Y-74134819D02*
X110442262Y-74087200D01*
X110442262Y-74087200D02*
X110347024Y-73991961D01*
X110347024Y-73991961D02*
X110299405Y-73896723D01*
X110299405Y-73896723D02*
X110251786Y-73706247D01*
X110251786Y-73706247D02*
X110251786Y-73563390D01*
X110251786Y-73563390D02*
X110299405Y-73372914D01*
X110299405Y-73372914D02*
X110347024Y-73277676D01*
X110347024Y-73277676D02*
X110442262Y-73182438D01*
X110442262Y-73182438D02*
X110585119Y-73134819D01*
X110585119Y-73134819D02*
X110680357Y-73134819D01*
X110680357Y-73134819D02*
X110823214Y-73182438D01*
X110823214Y-73182438D02*
X110870833Y-73230057D01*
X111775595Y-73134819D02*
X111299405Y-73134819D01*
X111299405Y-73134819D02*
X111251786Y-73611009D01*
X111251786Y-73611009D02*
X111299405Y-73563390D01*
X111299405Y-73563390D02*
X111394643Y-73515771D01*
X111394643Y-73515771D02*
X111632738Y-73515771D01*
X111632738Y-73515771D02*
X111727976Y-73563390D01*
X111727976Y-73563390D02*
X111775595Y-73611009D01*
X111775595Y-73611009D02*
X111823214Y-73706247D01*
X111823214Y-73706247D02*
X111823214Y-73944342D01*
X111823214Y-73944342D02*
X111775595Y-74039580D01*
X111775595Y-74039580D02*
X111727976Y-74087200D01*
X111727976Y-74087200D02*
X111632738Y-74134819D01*
X111632738Y-74134819D02*
X111394643Y-74134819D01*
X111394643Y-74134819D02*
X111299405Y-74087200D01*
X111299405Y-74087200D02*
X111251786Y-74039580D01*
X127829580Y-72142857D02*
X127877200Y-72190476D01*
X127877200Y-72190476D02*
X127924819Y-72333333D01*
X127924819Y-72333333D02*
X127924819Y-72428571D01*
X127924819Y-72428571D02*
X127877200Y-72571428D01*
X127877200Y-72571428D02*
X127781961Y-72666666D01*
X127781961Y-72666666D02*
X127686723Y-72714285D01*
X127686723Y-72714285D02*
X127496247Y-72761904D01*
X127496247Y-72761904D02*
X127353390Y-72761904D01*
X127353390Y-72761904D02*
X127162914Y-72714285D01*
X127162914Y-72714285D02*
X127067676Y-72666666D01*
X127067676Y-72666666D02*
X126972438Y-72571428D01*
X126972438Y-72571428D02*
X126924819Y-72428571D01*
X126924819Y-72428571D02*
X126924819Y-72333333D01*
X126924819Y-72333333D02*
X126972438Y-72190476D01*
X126972438Y-72190476D02*
X127020057Y-72142857D01*
X127020057Y-71761904D02*
X126972438Y-71714285D01*
X126972438Y-71714285D02*
X126924819Y-71619047D01*
X126924819Y-71619047D02*
X126924819Y-71380952D01*
X126924819Y-71380952D02*
X126972438Y-71285714D01*
X126972438Y-71285714D02*
X127020057Y-71238095D01*
X127020057Y-71238095D02*
X127115295Y-71190476D01*
X127115295Y-71190476D02*
X127210533Y-71190476D01*
X127210533Y-71190476D02*
X127353390Y-71238095D01*
X127353390Y-71238095D02*
X127924819Y-71809523D01*
X127924819Y-71809523D02*
X127924819Y-71190476D01*
X126924819Y-70333333D02*
X126924819Y-70523809D01*
X126924819Y-70523809D02*
X126972438Y-70619047D01*
X126972438Y-70619047D02*
X127020057Y-70666666D01*
X127020057Y-70666666D02*
X127162914Y-70761904D01*
X127162914Y-70761904D02*
X127353390Y-70809523D01*
X127353390Y-70809523D02*
X127734342Y-70809523D01*
X127734342Y-70809523D02*
X127829580Y-70761904D01*
X127829580Y-70761904D02*
X127877200Y-70714285D01*
X127877200Y-70714285D02*
X127924819Y-70619047D01*
X127924819Y-70619047D02*
X127924819Y-70428571D01*
X127924819Y-70428571D02*
X127877200Y-70333333D01*
X127877200Y-70333333D02*
X127829580Y-70285714D01*
X127829580Y-70285714D02*
X127734342Y-70238095D01*
X127734342Y-70238095D02*
X127496247Y-70238095D01*
X127496247Y-70238095D02*
X127401009Y-70285714D01*
X127401009Y-70285714D02*
X127353390Y-70333333D01*
X127353390Y-70333333D02*
X127305771Y-70428571D01*
X127305771Y-70428571D02*
X127305771Y-70619047D01*
X127305771Y-70619047D02*
X127353390Y-70714285D01*
X127353390Y-70714285D02*
X127401009Y-70761904D01*
X127401009Y-70761904D02*
X127496247Y-70809523D01*
D11*
X96023809Y-87071461D02*
X96628571Y-87071461D01*
X95902857Y-87434318D02*
X96326190Y-86164318D01*
X96326190Y-86164318D02*
X96749524Y-87434318D01*
X97172856Y-87434318D02*
X97172856Y-86164318D01*
X97172856Y-86164318D02*
X97898571Y-87434318D01*
X97898571Y-87434318D02*
X97898571Y-86164318D01*
X98321904Y-86164318D02*
X99047618Y-86164318D01*
X98684761Y-87434318D02*
X98684761Y-86164318D01*
X100136190Y-87434318D02*
X99410475Y-87434318D01*
X99773332Y-87434318D02*
X99773332Y-86164318D01*
X99773332Y-86164318D02*
X99652380Y-86345746D01*
X99652380Y-86345746D02*
X99531428Y-86466699D01*
X99531428Y-86466699D02*
X99410475Y-86527175D01*
D10*
X120856514Y-74349953D02*
X121231467Y-74349953D01*
X120444065Y-74612420D02*
X120856514Y-74349953D01*
X120856514Y-74349953D02*
X120444065Y-74087485D01*
X120519056Y-73862513D02*
X120481560Y-73825018D01*
X120481560Y-73825018D02*
X120444065Y-73750027D01*
X120444065Y-73750027D02*
X120444065Y-73562551D01*
X120444065Y-73562551D02*
X120481560Y-73487560D01*
X120481560Y-73487560D02*
X120519056Y-73450065D01*
X120519056Y-73450065D02*
X120594046Y-73412569D01*
X120594046Y-73412569D02*
X120669037Y-73412569D01*
X120669037Y-73412569D02*
X120781523Y-73450065D01*
X120781523Y-73450065D02*
X121231467Y-73900009D01*
X121231467Y-73900009D02*
X121231467Y-73412569D01*
X116041666Y-69101009D02*
X115708333Y-69101009D01*
X115708333Y-69624819D02*
X115708333Y-68624819D01*
X115708333Y-68624819D02*
X116184523Y-68624819D01*
X116898809Y-69101009D02*
X117041666Y-69148628D01*
X117041666Y-69148628D02*
X117089285Y-69196247D01*
X117089285Y-69196247D02*
X117136904Y-69291485D01*
X117136904Y-69291485D02*
X117136904Y-69434342D01*
X117136904Y-69434342D02*
X117089285Y-69529580D01*
X117089285Y-69529580D02*
X117041666Y-69577200D01*
X117041666Y-69577200D02*
X116946428Y-69624819D01*
X116946428Y-69624819D02*
X116565476Y-69624819D01*
X116565476Y-69624819D02*
X116565476Y-68624819D01*
X116565476Y-68624819D02*
X116898809Y-68624819D01*
X116898809Y-68624819D02*
X116994047Y-68672438D01*
X116994047Y-68672438D02*
X117041666Y-68720057D01*
X117041666Y-68720057D02*
X117089285Y-68815295D01*
X117089285Y-68815295D02*
X117089285Y-68910533D01*
X117089285Y-68910533D02*
X117041666Y-69005771D01*
X117041666Y-69005771D02*
X116994047Y-69053390D01*
X116994047Y-69053390D02*
X116898809Y-69101009D01*
X116898809Y-69101009D02*
X116565476Y-69101009D01*
X117470238Y-68624819D02*
X118089285Y-68624819D01*
X118089285Y-68624819D02*
X117755952Y-69005771D01*
X117755952Y-69005771D02*
X117898809Y-69005771D01*
X117898809Y-69005771D02*
X117994047Y-69053390D01*
X117994047Y-69053390D02*
X118041666Y-69101009D01*
X118041666Y-69101009D02*
X118089285Y-69196247D01*
X118089285Y-69196247D02*
X118089285Y-69434342D01*
X118089285Y-69434342D02*
X118041666Y-69529580D01*
X118041666Y-69529580D02*
X117994047Y-69577200D01*
X117994047Y-69577200D02*
X117898809Y-69624819D01*
X117898809Y-69624819D02*
X117613095Y-69624819D01*
X117613095Y-69624819D02*
X117517857Y-69577200D01*
X117517857Y-69577200D02*
X117470238Y-69529580D01*
X98366666Y-80859819D02*
X98366666Y-81574104D01*
X98366666Y-81574104D02*
X98319047Y-81716961D01*
X98319047Y-81716961D02*
X98223809Y-81812200D01*
X98223809Y-81812200D02*
X98080952Y-81859819D01*
X98080952Y-81859819D02*
X97985714Y-81859819D01*
X98795238Y-80955057D02*
X98842857Y-80907438D01*
X98842857Y-80907438D02*
X98938095Y-80859819D01*
X98938095Y-80859819D02*
X99176190Y-80859819D01*
X99176190Y-80859819D02*
X99271428Y-80907438D01*
X99271428Y-80907438D02*
X99319047Y-80955057D01*
X99319047Y-80955057D02*
X99366666Y-81050295D01*
X99366666Y-81050295D02*
X99366666Y-81145533D01*
X99366666Y-81145533D02*
X99319047Y-81288390D01*
X99319047Y-81288390D02*
X98747619Y-81859819D01*
X98747619Y-81859819D02*
X99366666Y-81859819D01*
X112207142Y-72439580D02*
X112159523Y-72487200D01*
X112159523Y-72487200D02*
X112016666Y-72534819D01*
X112016666Y-72534819D02*
X111921428Y-72534819D01*
X111921428Y-72534819D02*
X111778571Y-72487200D01*
X111778571Y-72487200D02*
X111683333Y-72391961D01*
X111683333Y-72391961D02*
X111635714Y-72296723D01*
X111635714Y-72296723D02*
X111588095Y-72106247D01*
X111588095Y-72106247D02*
X111588095Y-71963390D01*
X111588095Y-71963390D02*
X111635714Y-71772914D01*
X111635714Y-71772914D02*
X111683333Y-71677676D01*
X111683333Y-71677676D02*
X111778571Y-71582438D01*
X111778571Y-71582438D02*
X111921428Y-71534819D01*
X111921428Y-71534819D02*
X112016666Y-71534819D01*
X112016666Y-71534819D02*
X112159523Y-71582438D01*
X112159523Y-71582438D02*
X112207142Y-71630057D01*
X113159523Y-72534819D02*
X112588095Y-72534819D01*
X112873809Y-72534819D02*
X112873809Y-71534819D01*
X112873809Y-71534819D02*
X112778571Y-71677676D01*
X112778571Y-71677676D02*
X112683333Y-71772914D01*
X112683333Y-71772914D02*
X112588095Y-71820533D01*
X113730952Y-71963390D02*
X113635714Y-71915771D01*
X113635714Y-71915771D02*
X113588095Y-71868152D01*
X113588095Y-71868152D02*
X113540476Y-71772914D01*
X113540476Y-71772914D02*
X113540476Y-71725295D01*
X113540476Y-71725295D02*
X113588095Y-71630057D01*
X113588095Y-71630057D02*
X113635714Y-71582438D01*
X113635714Y-71582438D02*
X113730952Y-71534819D01*
X113730952Y-71534819D02*
X113921428Y-71534819D01*
X113921428Y-71534819D02*
X114016666Y-71582438D01*
X114016666Y-71582438D02*
X114064285Y-71630057D01*
X114064285Y-71630057D02*
X114111904Y-71725295D01*
X114111904Y-71725295D02*
X114111904Y-71772914D01*
X114111904Y-71772914D02*
X114064285Y-71868152D01*
X114064285Y-71868152D02*
X114016666Y-71915771D01*
X114016666Y-71915771D02*
X113921428Y-71963390D01*
X113921428Y-71963390D02*
X113730952Y-71963390D01*
X113730952Y-71963390D02*
X113635714Y-72011009D01*
X113635714Y-72011009D02*
X113588095Y-72058628D01*
X113588095Y-72058628D02*
X113540476Y-72153866D01*
X113540476Y-72153866D02*
X113540476Y-72344342D01*
X113540476Y-72344342D02*
X113588095Y-72439580D01*
X113588095Y-72439580D02*
X113635714Y-72487200D01*
X113635714Y-72487200D02*
X113730952Y-72534819D01*
X113730952Y-72534819D02*
X113921428Y-72534819D01*
X113921428Y-72534819D02*
X114016666Y-72487200D01*
X114016666Y-72487200D02*
X114064285Y-72439580D01*
X114064285Y-72439580D02*
X114111904Y-72344342D01*
X114111904Y-72344342D02*
X114111904Y-72153866D01*
X114111904Y-72153866D02*
X114064285Y-72058628D01*
X114064285Y-72058628D02*
X114016666Y-72011009D01*
X114016666Y-72011009D02*
X113921428Y-71963390D01*
X126957142Y-81629580D02*
X126909523Y-81677200D01*
X126909523Y-81677200D02*
X126766666Y-81724819D01*
X126766666Y-81724819D02*
X126671428Y-81724819D01*
X126671428Y-81724819D02*
X126528571Y-81677200D01*
X126528571Y-81677200D02*
X126433333Y-81581961D01*
X126433333Y-81581961D02*
X126385714Y-81486723D01*
X126385714Y-81486723D02*
X126338095Y-81296247D01*
X126338095Y-81296247D02*
X126338095Y-81153390D01*
X126338095Y-81153390D02*
X126385714Y-80962914D01*
X126385714Y-80962914D02*
X126433333Y-80867676D01*
X126433333Y-80867676D02*
X126528571Y-80772438D01*
X126528571Y-80772438D02*
X126671428Y-80724819D01*
X126671428Y-80724819D02*
X126766666Y-80724819D01*
X126766666Y-80724819D02*
X126909523Y-80772438D01*
X126909523Y-80772438D02*
X126957142Y-80820057D01*
X127338095Y-80820057D02*
X127385714Y-80772438D01*
X127385714Y-80772438D02*
X127480952Y-80724819D01*
X127480952Y-80724819D02*
X127719047Y-80724819D01*
X127719047Y-80724819D02*
X127814285Y-80772438D01*
X127814285Y-80772438D02*
X127861904Y-80820057D01*
X127861904Y-80820057D02*
X127909523Y-80915295D01*
X127909523Y-80915295D02*
X127909523Y-81010533D01*
X127909523Y-81010533D02*
X127861904Y-81153390D01*
X127861904Y-81153390D02*
X127290476Y-81724819D01*
X127290476Y-81724819D02*
X127909523Y-81724819D01*
X128861904Y-81724819D02*
X128290476Y-81724819D01*
X128576190Y-81724819D02*
X128576190Y-80724819D01*
X128576190Y-80724819D02*
X128480952Y-80867676D01*
X128480952Y-80867676D02*
X128385714Y-80962914D01*
X128385714Y-80962914D02*
X128290476Y-81010533D01*
X140166666Y-71874819D02*
X140166666Y-72589104D01*
X140166666Y-72589104D02*
X140119047Y-72731961D01*
X140119047Y-72731961D02*
X140023809Y-72827200D01*
X140023809Y-72827200D02*
X139880952Y-72874819D01*
X139880952Y-72874819D02*
X139785714Y-72874819D01*
X141071428Y-71874819D02*
X140880952Y-71874819D01*
X140880952Y-71874819D02*
X140785714Y-71922438D01*
X140785714Y-71922438D02*
X140738095Y-71970057D01*
X140738095Y-71970057D02*
X140642857Y-72112914D01*
X140642857Y-72112914D02*
X140595238Y-72303390D01*
X140595238Y-72303390D02*
X140595238Y-72684342D01*
X140595238Y-72684342D02*
X140642857Y-72779580D01*
X140642857Y-72779580D02*
X140690476Y-72827200D01*
X140690476Y-72827200D02*
X140785714Y-72874819D01*
X140785714Y-72874819D02*
X140976190Y-72874819D01*
X140976190Y-72874819D02*
X141071428Y-72827200D01*
X141071428Y-72827200D02*
X141119047Y-72779580D01*
X141119047Y-72779580D02*
X141166666Y-72684342D01*
X141166666Y-72684342D02*
X141166666Y-72446247D01*
X141166666Y-72446247D02*
X141119047Y-72351009D01*
X141119047Y-72351009D02*
X141071428Y-72303390D01*
X141071428Y-72303390D02*
X140976190Y-72255771D01*
X140976190Y-72255771D02*
X140785714Y-72255771D01*
X140785714Y-72255771D02*
X140690476Y-72303390D01*
X140690476Y-72303390D02*
X140642857Y-72351009D01*
X140642857Y-72351009D02*
X140595238Y-72446247D01*
X134811009Y-72333333D02*
X134811009Y-72666666D01*
X135334819Y-72666666D02*
X134334819Y-72666666D01*
X134334819Y-72666666D02*
X134334819Y-72190476D01*
X134811009Y-71476190D02*
X134858628Y-71333333D01*
X134858628Y-71333333D02*
X134906247Y-71285714D01*
X134906247Y-71285714D02*
X135001485Y-71238095D01*
X135001485Y-71238095D02*
X135144342Y-71238095D01*
X135144342Y-71238095D02*
X135239580Y-71285714D01*
X135239580Y-71285714D02*
X135287200Y-71333333D01*
X135287200Y-71333333D02*
X135334819Y-71428571D01*
X135334819Y-71428571D02*
X135334819Y-71809523D01*
X135334819Y-71809523D02*
X134334819Y-71809523D01*
X134334819Y-71809523D02*
X134334819Y-71476190D01*
X134334819Y-71476190D02*
X134382438Y-71380952D01*
X134382438Y-71380952D02*
X134430057Y-71333333D01*
X134430057Y-71333333D02*
X134525295Y-71285714D01*
X134525295Y-71285714D02*
X134620533Y-71285714D01*
X134620533Y-71285714D02*
X134715771Y-71333333D01*
X134715771Y-71333333D02*
X134763390Y-71380952D01*
X134763390Y-71380952D02*
X134811009Y-71476190D01*
X134811009Y-71476190D02*
X134811009Y-71809523D01*
X135334819Y-70285714D02*
X135334819Y-70857142D01*
X135334819Y-70571428D02*
X134334819Y-70571428D01*
X134334819Y-70571428D02*
X134477676Y-70666666D01*
X134477676Y-70666666D02*
X134572914Y-70761904D01*
X134572914Y-70761904D02*
X134620533Y-70857142D01*
X123329580Y-72142857D02*
X123377200Y-72190476D01*
X123377200Y-72190476D02*
X123424819Y-72333333D01*
X123424819Y-72333333D02*
X123424819Y-72428571D01*
X123424819Y-72428571D02*
X123377200Y-72571428D01*
X123377200Y-72571428D02*
X123281961Y-72666666D01*
X123281961Y-72666666D02*
X123186723Y-72714285D01*
X123186723Y-72714285D02*
X122996247Y-72761904D01*
X122996247Y-72761904D02*
X122853390Y-72761904D01*
X122853390Y-72761904D02*
X122662914Y-72714285D01*
X122662914Y-72714285D02*
X122567676Y-72666666D01*
X122567676Y-72666666D02*
X122472438Y-72571428D01*
X122472438Y-72571428D02*
X122424819Y-72428571D01*
X122424819Y-72428571D02*
X122424819Y-72333333D01*
X122424819Y-72333333D02*
X122472438Y-72190476D01*
X122472438Y-72190476D02*
X122520057Y-72142857D01*
X122520057Y-71761904D02*
X122472438Y-71714285D01*
X122472438Y-71714285D02*
X122424819Y-71619047D01*
X122424819Y-71619047D02*
X122424819Y-71380952D01*
X122424819Y-71380952D02*
X122472438Y-71285714D01*
X122472438Y-71285714D02*
X122520057Y-71238095D01*
X122520057Y-71238095D02*
X122615295Y-71190476D01*
X122615295Y-71190476D02*
X122710533Y-71190476D01*
X122710533Y-71190476D02*
X122853390Y-71238095D01*
X122853390Y-71238095D02*
X123424819Y-71809523D01*
X123424819Y-71809523D02*
X123424819Y-71190476D01*
X122424819Y-70571428D02*
X122424819Y-70476190D01*
X122424819Y-70476190D02*
X122472438Y-70380952D01*
X122472438Y-70380952D02*
X122520057Y-70333333D01*
X122520057Y-70333333D02*
X122615295Y-70285714D01*
X122615295Y-70285714D02*
X122805771Y-70238095D01*
X122805771Y-70238095D02*
X123043866Y-70238095D01*
X123043866Y-70238095D02*
X123234342Y-70285714D01*
X123234342Y-70285714D02*
X123329580Y-70333333D01*
X123329580Y-70333333D02*
X123377200Y-70380952D01*
X123377200Y-70380952D02*
X123424819Y-70476190D01*
X123424819Y-70476190D02*
X123424819Y-70571428D01*
X123424819Y-70571428D02*
X123377200Y-70666666D01*
X123377200Y-70666666D02*
X123329580Y-70714285D01*
X123329580Y-70714285D02*
X123234342Y-70761904D01*
X123234342Y-70761904D02*
X123043866Y-70809523D01*
X123043866Y-70809523D02*
X122805771Y-70809523D01*
X122805771Y-70809523D02*
X122615295Y-70761904D01*
X122615295Y-70761904D02*
X122520057Y-70714285D01*
X122520057Y-70714285D02*
X122472438Y-70666666D01*
X122472438Y-70666666D02*
X122424819Y-70571428D01*
X121833333Y-77339580D02*
X121785714Y-77387200D01*
X121785714Y-77387200D02*
X121642857Y-77434819D01*
X121642857Y-77434819D02*
X121547619Y-77434819D01*
X121547619Y-77434819D02*
X121404762Y-77387200D01*
X121404762Y-77387200D02*
X121309524Y-77291961D01*
X121309524Y-77291961D02*
X121261905Y-77196723D01*
X121261905Y-77196723D02*
X121214286Y-77006247D01*
X121214286Y-77006247D02*
X121214286Y-76863390D01*
X121214286Y-76863390D02*
X121261905Y-76672914D01*
X121261905Y-76672914D02*
X121309524Y-76577676D01*
X121309524Y-76577676D02*
X121404762Y-76482438D01*
X121404762Y-76482438D02*
X121547619Y-76434819D01*
X121547619Y-76434819D02*
X121642857Y-76434819D01*
X121642857Y-76434819D02*
X121785714Y-76482438D01*
X121785714Y-76482438D02*
X121833333Y-76530057D01*
X122404762Y-76863390D02*
X122309524Y-76815771D01*
X122309524Y-76815771D02*
X122261905Y-76768152D01*
X122261905Y-76768152D02*
X122214286Y-76672914D01*
X122214286Y-76672914D02*
X122214286Y-76625295D01*
X122214286Y-76625295D02*
X122261905Y-76530057D01*
X122261905Y-76530057D02*
X122309524Y-76482438D01*
X122309524Y-76482438D02*
X122404762Y-76434819D01*
X122404762Y-76434819D02*
X122595238Y-76434819D01*
X122595238Y-76434819D02*
X122690476Y-76482438D01*
X122690476Y-76482438D02*
X122738095Y-76530057D01*
X122738095Y-76530057D02*
X122785714Y-76625295D01*
X122785714Y-76625295D02*
X122785714Y-76672914D01*
X122785714Y-76672914D02*
X122738095Y-76768152D01*
X122738095Y-76768152D02*
X122690476Y-76815771D01*
X122690476Y-76815771D02*
X122595238Y-76863390D01*
X122595238Y-76863390D02*
X122404762Y-76863390D01*
X122404762Y-76863390D02*
X122309524Y-76911009D01*
X122309524Y-76911009D02*
X122261905Y-76958628D01*
X122261905Y-76958628D02*
X122214286Y-77053866D01*
X122214286Y-77053866D02*
X122214286Y-77244342D01*
X122214286Y-77244342D02*
X122261905Y-77339580D01*
X122261905Y-77339580D02*
X122309524Y-77387200D01*
X122309524Y-77387200D02*
X122404762Y-77434819D01*
X122404762Y-77434819D02*
X122595238Y-77434819D01*
X122595238Y-77434819D02*
X122690476Y-77387200D01*
X122690476Y-77387200D02*
X122738095Y-77339580D01*
X122738095Y-77339580D02*
X122785714Y-77244342D01*
X122785714Y-77244342D02*
X122785714Y-77053866D01*
X122785714Y-77053866D02*
X122738095Y-76958628D01*
X122738095Y-76958628D02*
X122690476Y-76911009D01*
X122690476Y-76911009D02*
X122595238Y-76863390D01*
X102532319Y-80761904D02*
X103341842Y-80761904D01*
X103341842Y-80761904D02*
X103437080Y-80714285D01*
X103437080Y-80714285D02*
X103484700Y-80666666D01*
X103484700Y-80666666D02*
X103532319Y-80571428D01*
X103532319Y-80571428D02*
X103532319Y-80380952D01*
X103532319Y-80380952D02*
X103484700Y-80285714D01*
X103484700Y-80285714D02*
X103437080Y-80238095D01*
X103437080Y-80238095D02*
X103341842Y-80190476D01*
X103341842Y-80190476D02*
X102532319Y-80190476D01*
X103532319Y-79190476D02*
X103532319Y-79761904D01*
X103532319Y-79476190D02*
X102532319Y-79476190D01*
X102532319Y-79476190D02*
X102675176Y-79571428D01*
X102675176Y-79571428D02*
X102770414Y-79666666D01*
X102770414Y-79666666D02*
X102818033Y-79761904D01*
X107420833Y-83524819D02*
X107087500Y-83048628D01*
X106849405Y-83524819D02*
X106849405Y-82524819D01*
X106849405Y-82524819D02*
X107230357Y-82524819D01*
X107230357Y-82524819D02*
X107325595Y-82572438D01*
X107325595Y-82572438D02*
X107373214Y-82620057D01*
X107373214Y-82620057D02*
X107420833Y-82715295D01*
X107420833Y-82715295D02*
X107420833Y-82858152D01*
X107420833Y-82858152D02*
X107373214Y-82953390D01*
X107373214Y-82953390D02*
X107325595Y-83001009D01*
X107325595Y-83001009D02*
X107230357Y-83048628D01*
X107230357Y-83048628D02*
X106849405Y-83048628D01*
X107801786Y-82620057D02*
X107849405Y-82572438D01*
X107849405Y-82572438D02*
X107944643Y-82524819D01*
X107944643Y-82524819D02*
X108182738Y-82524819D01*
X108182738Y-82524819D02*
X108277976Y-82572438D01*
X108277976Y-82572438D02*
X108325595Y-82620057D01*
X108325595Y-82620057D02*
X108373214Y-82715295D01*
X108373214Y-82715295D02*
X108373214Y-82810533D01*
X108373214Y-82810533D02*
X108325595Y-82953390D01*
X108325595Y-82953390D02*
X107754167Y-83524819D01*
X107754167Y-83524819D02*
X108373214Y-83524819D01*
D11*
X121260237Y-83424318D02*
X121260237Y-82154318D01*
X122590714Y-83303365D02*
X122530238Y-83363842D01*
X122530238Y-83363842D02*
X122348809Y-83424318D01*
X122348809Y-83424318D02*
X122227857Y-83424318D01*
X122227857Y-83424318D02*
X122046428Y-83363842D01*
X122046428Y-83363842D02*
X121925476Y-83242889D01*
X121925476Y-83242889D02*
X121864999Y-83121937D01*
X121864999Y-83121937D02*
X121804523Y-82880032D01*
X121804523Y-82880032D02*
X121804523Y-82698603D01*
X121804523Y-82698603D02*
X121864999Y-82456699D01*
X121864999Y-82456699D02*
X121925476Y-82335746D01*
X121925476Y-82335746D02*
X122046428Y-82214794D01*
X122046428Y-82214794D02*
X122227857Y-82154318D01*
X122227857Y-82154318D02*
X122348809Y-82154318D01*
X122348809Y-82154318D02*
X122530238Y-82214794D01*
X122530238Y-82214794D02*
X122590714Y-82275270D01*
X123800238Y-83424318D02*
X123074523Y-83424318D01*
X123437380Y-83424318D02*
X123437380Y-82154318D01*
X123437380Y-82154318D02*
X123316428Y-82335746D01*
X123316428Y-82335746D02*
X123195476Y-82456699D01*
X123195476Y-82456699D02*
X123074523Y-82517175D01*
D10*
X130829580Y-72155357D02*
X130877200Y-72202976D01*
X130877200Y-72202976D02*
X130924819Y-72345833D01*
X130924819Y-72345833D02*
X130924819Y-72441071D01*
X130924819Y-72441071D02*
X130877200Y-72583928D01*
X130877200Y-72583928D02*
X130781961Y-72679166D01*
X130781961Y-72679166D02*
X130686723Y-72726785D01*
X130686723Y-72726785D02*
X130496247Y-72774404D01*
X130496247Y-72774404D02*
X130353390Y-72774404D01*
X130353390Y-72774404D02*
X130162914Y-72726785D01*
X130162914Y-72726785D02*
X130067676Y-72679166D01*
X130067676Y-72679166D02*
X129972438Y-72583928D01*
X129972438Y-72583928D02*
X129924819Y-72441071D01*
X129924819Y-72441071D02*
X129924819Y-72345833D01*
X129924819Y-72345833D02*
X129972438Y-72202976D01*
X129972438Y-72202976D02*
X130020057Y-72155357D01*
X130020057Y-71774404D02*
X129972438Y-71726785D01*
X129972438Y-71726785D02*
X129924819Y-71631547D01*
X129924819Y-71631547D02*
X129924819Y-71393452D01*
X129924819Y-71393452D02*
X129972438Y-71298214D01*
X129972438Y-71298214D02*
X130020057Y-71250595D01*
X130020057Y-71250595D02*
X130115295Y-71202976D01*
X130115295Y-71202976D02*
X130210533Y-71202976D01*
X130210533Y-71202976D02*
X130353390Y-71250595D01*
X130353390Y-71250595D02*
X130924819Y-71822023D01*
X130924819Y-71822023D02*
X130924819Y-71202976D01*
X130258152Y-70345833D02*
X130924819Y-70345833D01*
X129877200Y-70583928D02*
X130591485Y-70822023D01*
X130591485Y-70822023D02*
X130591485Y-70202976D01*
X124829580Y-72142857D02*
X124877200Y-72190476D01*
X124877200Y-72190476D02*
X124924819Y-72333333D01*
X124924819Y-72333333D02*
X124924819Y-72428571D01*
X124924819Y-72428571D02*
X124877200Y-72571428D01*
X124877200Y-72571428D02*
X124781961Y-72666666D01*
X124781961Y-72666666D02*
X124686723Y-72714285D01*
X124686723Y-72714285D02*
X124496247Y-72761904D01*
X124496247Y-72761904D02*
X124353390Y-72761904D01*
X124353390Y-72761904D02*
X124162914Y-72714285D01*
X124162914Y-72714285D02*
X124067676Y-72666666D01*
X124067676Y-72666666D02*
X123972438Y-72571428D01*
X123972438Y-72571428D02*
X123924819Y-72428571D01*
X123924819Y-72428571D02*
X123924819Y-72333333D01*
X123924819Y-72333333D02*
X123972438Y-72190476D01*
X123972438Y-72190476D02*
X124020057Y-72142857D01*
X124924819Y-71190476D02*
X124924819Y-71761904D01*
X124924819Y-71476190D02*
X123924819Y-71476190D01*
X123924819Y-71476190D02*
X124067676Y-71571428D01*
X124067676Y-71571428D02*
X124162914Y-71666666D01*
X124162914Y-71666666D02*
X124210533Y-71761904D01*
X124924819Y-70714285D02*
X124924819Y-70523809D01*
X124924819Y-70523809D02*
X124877200Y-70428571D01*
X124877200Y-70428571D02*
X124829580Y-70380952D01*
X124829580Y-70380952D02*
X124686723Y-70285714D01*
X124686723Y-70285714D02*
X124496247Y-70238095D01*
X124496247Y-70238095D02*
X124115295Y-70238095D01*
X124115295Y-70238095D02*
X124020057Y-70285714D01*
X124020057Y-70285714D02*
X123972438Y-70333333D01*
X123972438Y-70333333D02*
X123924819Y-70428571D01*
X123924819Y-70428571D02*
X123924819Y-70619047D01*
X123924819Y-70619047D02*
X123972438Y-70714285D01*
X123972438Y-70714285D02*
X124020057Y-70761904D01*
X124020057Y-70761904D02*
X124115295Y-70809523D01*
X124115295Y-70809523D02*
X124353390Y-70809523D01*
X124353390Y-70809523D02*
X124448628Y-70761904D01*
X124448628Y-70761904D02*
X124496247Y-70714285D01*
X124496247Y-70714285D02*
X124543866Y-70619047D01*
X124543866Y-70619047D02*
X124543866Y-70428571D01*
X124543866Y-70428571D02*
X124496247Y-70333333D01*
X124496247Y-70333333D02*
X124448628Y-70285714D01*
X124448628Y-70285714D02*
X124353390Y-70238095D01*
X100879580Y-73029166D02*
X100927200Y-73076785D01*
X100927200Y-73076785D02*
X100974819Y-73219642D01*
X100974819Y-73219642D02*
X100974819Y-73314880D01*
X100974819Y-73314880D02*
X100927200Y-73457737D01*
X100927200Y-73457737D02*
X100831961Y-73552975D01*
X100831961Y-73552975D02*
X100736723Y-73600594D01*
X100736723Y-73600594D02*
X100546247Y-73648213D01*
X100546247Y-73648213D02*
X100403390Y-73648213D01*
X100403390Y-73648213D02*
X100212914Y-73600594D01*
X100212914Y-73600594D02*
X100117676Y-73552975D01*
X100117676Y-73552975D02*
X100022438Y-73457737D01*
X100022438Y-73457737D02*
X99974819Y-73314880D01*
X99974819Y-73314880D02*
X99974819Y-73219642D01*
X99974819Y-73219642D02*
X100022438Y-73076785D01*
X100022438Y-73076785D02*
X100070057Y-73029166D01*
X100308152Y-72172023D02*
X100974819Y-72172023D01*
X99927200Y-72410118D02*
X100641485Y-72648213D01*
X100641485Y-72648213D02*
X100641485Y-72029166D01*
D11*
X134837619Y-77409080D02*
X134414285Y-77409080D01*
X134414285Y-78074318D02*
X134414285Y-76804318D01*
X134414285Y-76804318D02*
X135019047Y-76804318D01*
X136107618Y-78074318D02*
X135502856Y-78074318D01*
X135502856Y-78074318D02*
X135502856Y-76804318D01*
X137196190Y-78074318D02*
X136470475Y-78074318D01*
X136833332Y-78074318D02*
X136833332Y-76804318D01*
X136833332Y-76804318D02*
X136712380Y-76985746D01*
X136712380Y-76985746D02*
X136591428Y-77106699D01*
X136591428Y-77106699D02*
X136470475Y-77167175D01*
D10*
X121779580Y-72142857D02*
X121827200Y-72190476D01*
X121827200Y-72190476D02*
X121874819Y-72333333D01*
X121874819Y-72333333D02*
X121874819Y-72428571D01*
X121874819Y-72428571D02*
X121827200Y-72571428D01*
X121827200Y-72571428D02*
X121731961Y-72666666D01*
X121731961Y-72666666D02*
X121636723Y-72714285D01*
X121636723Y-72714285D02*
X121446247Y-72761904D01*
X121446247Y-72761904D02*
X121303390Y-72761904D01*
X121303390Y-72761904D02*
X121112914Y-72714285D01*
X121112914Y-72714285D02*
X121017676Y-72666666D01*
X121017676Y-72666666D02*
X120922438Y-72571428D01*
X120922438Y-72571428D02*
X120874819Y-72428571D01*
X120874819Y-72428571D02*
X120874819Y-72333333D01*
X120874819Y-72333333D02*
X120922438Y-72190476D01*
X120922438Y-72190476D02*
X120970057Y-72142857D01*
X121874819Y-71190476D02*
X121874819Y-71761904D01*
X121874819Y-71476190D02*
X120874819Y-71476190D01*
X120874819Y-71476190D02*
X121017676Y-71571428D01*
X121017676Y-71571428D02*
X121112914Y-71666666D01*
X121112914Y-71666666D02*
X121160533Y-71761904D01*
X120874819Y-70857142D02*
X120874819Y-70190476D01*
X120874819Y-70190476D02*
X121874819Y-70619047D01*
X118757142Y-84739580D02*
X118709523Y-84787200D01*
X118709523Y-84787200D02*
X118566666Y-84834819D01*
X118566666Y-84834819D02*
X118471428Y-84834819D01*
X118471428Y-84834819D02*
X118328571Y-84787200D01*
X118328571Y-84787200D02*
X118233333Y-84691961D01*
X118233333Y-84691961D02*
X118185714Y-84596723D01*
X118185714Y-84596723D02*
X118138095Y-84406247D01*
X118138095Y-84406247D02*
X118138095Y-84263390D01*
X118138095Y-84263390D02*
X118185714Y-84072914D01*
X118185714Y-84072914D02*
X118233333Y-83977676D01*
X118233333Y-83977676D02*
X118328571Y-83882438D01*
X118328571Y-83882438D02*
X118471428Y-83834819D01*
X118471428Y-83834819D02*
X118566666Y-83834819D01*
X118566666Y-83834819D02*
X118709523Y-83882438D01*
X118709523Y-83882438D02*
X118757142Y-83930057D01*
X119709523Y-84834819D02*
X119138095Y-84834819D01*
X119423809Y-84834819D02*
X119423809Y-83834819D01*
X119423809Y-83834819D02*
X119328571Y-83977676D01*
X119328571Y-83977676D02*
X119233333Y-84072914D01*
X119233333Y-84072914D02*
X119138095Y-84120533D01*
X120566666Y-83834819D02*
X120376190Y-83834819D01*
X120376190Y-83834819D02*
X120280952Y-83882438D01*
X120280952Y-83882438D02*
X120233333Y-83930057D01*
X120233333Y-83930057D02*
X120138095Y-84072914D01*
X120138095Y-84072914D02*
X120090476Y-84263390D01*
X120090476Y-84263390D02*
X120090476Y-84644342D01*
X120090476Y-84644342D02*
X120138095Y-84739580D01*
X120138095Y-84739580D02*
X120185714Y-84787200D01*
X120185714Y-84787200D02*
X120280952Y-84834819D01*
X120280952Y-84834819D02*
X120471428Y-84834819D01*
X120471428Y-84834819D02*
X120566666Y-84787200D01*
X120566666Y-84787200D02*
X120614285Y-84739580D01*
X120614285Y-84739580D02*
X120661904Y-84644342D01*
X120661904Y-84644342D02*
X120661904Y-84406247D01*
X120661904Y-84406247D02*
X120614285Y-84311009D01*
X120614285Y-84311009D02*
X120566666Y-84263390D01*
X120566666Y-84263390D02*
X120471428Y-84215771D01*
X120471428Y-84215771D02*
X120280952Y-84215771D01*
X120280952Y-84215771D02*
X120185714Y-84263390D01*
X120185714Y-84263390D02*
X120138095Y-84311009D01*
X120138095Y-84311009D02*
X120090476Y-84406247D01*
X129329580Y-72142857D02*
X129377200Y-72190476D01*
X129377200Y-72190476D02*
X129424819Y-72333333D01*
X129424819Y-72333333D02*
X129424819Y-72428571D01*
X129424819Y-72428571D02*
X129377200Y-72571428D01*
X129377200Y-72571428D02*
X129281961Y-72666666D01*
X129281961Y-72666666D02*
X129186723Y-72714285D01*
X129186723Y-72714285D02*
X128996247Y-72761904D01*
X128996247Y-72761904D02*
X128853390Y-72761904D01*
X128853390Y-72761904D02*
X128662914Y-72714285D01*
X128662914Y-72714285D02*
X128567676Y-72666666D01*
X128567676Y-72666666D02*
X128472438Y-72571428D01*
X128472438Y-72571428D02*
X128424819Y-72428571D01*
X128424819Y-72428571D02*
X128424819Y-72333333D01*
X128424819Y-72333333D02*
X128472438Y-72190476D01*
X128472438Y-72190476D02*
X128520057Y-72142857D01*
X128520057Y-71761904D02*
X128472438Y-71714285D01*
X128472438Y-71714285D02*
X128424819Y-71619047D01*
X128424819Y-71619047D02*
X128424819Y-71380952D01*
X128424819Y-71380952D02*
X128472438Y-71285714D01*
X128472438Y-71285714D02*
X128520057Y-71238095D01*
X128520057Y-71238095D02*
X128615295Y-71190476D01*
X128615295Y-71190476D02*
X128710533Y-71190476D01*
X128710533Y-71190476D02*
X128853390Y-71238095D01*
X128853390Y-71238095D02*
X129424819Y-71809523D01*
X129424819Y-71809523D02*
X129424819Y-71190476D01*
X128424819Y-70285714D02*
X128424819Y-70761904D01*
X128424819Y-70761904D02*
X128901009Y-70809523D01*
X128901009Y-70809523D02*
X128853390Y-70761904D01*
X128853390Y-70761904D02*
X128805771Y-70666666D01*
X128805771Y-70666666D02*
X128805771Y-70428571D01*
X128805771Y-70428571D02*
X128853390Y-70333333D01*
X128853390Y-70333333D02*
X128901009Y-70285714D01*
X128901009Y-70285714D02*
X128996247Y-70238095D01*
X128996247Y-70238095D02*
X129234342Y-70238095D01*
X129234342Y-70238095D02*
X129329580Y-70285714D01*
X129329580Y-70285714D02*
X129377200Y-70333333D01*
X129377200Y-70333333D02*
X129424819Y-70428571D01*
X129424819Y-70428571D02*
X129424819Y-70666666D01*
X129424819Y-70666666D02*
X129377200Y-70761904D01*
X129377200Y-70761904D02*
X129329580Y-70809523D01*
X126329580Y-72142857D02*
X126377200Y-72190476D01*
X126377200Y-72190476D02*
X126424819Y-72333333D01*
X126424819Y-72333333D02*
X126424819Y-72428571D01*
X126424819Y-72428571D02*
X126377200Y-72571428D01*
X126377200Y-72571428D02*
X126281961Y-72666666D01*
X126281961Y-72666666D02*
X126186723Y-72714285D01*
X126186723Y-72714285D02*
X125996247Y-72761904D01*
X125996247Y-72761904D02*
X125853390Y-72761904D01*
X125853390Y-72761904D02*
X125662914Y-72714285D01*
X125662914Y-72714285D02*
X125567676Y-72666666D01*
X125567676Y-72666666D02*
X125472438Y-72571428D01*
X125472438Y-72571428D02*
X125424819Y-72428571D01*
X125424819Y-72428571D02*
X125424819Y-72333333D01*
X125424819Y-72333333D02*
X125472438Y-72190476D01*
X125472438Y-72190476D02*
X125520057Y-72142857D01*
X125520057Y-71761904D02*
X125472438Y-71714285D01*
X125472438Y-71714285D02*
X125424819Y-71619047D01*
X125424819Y-71619047D02*
X125424819Y-71380952D01*
X125424819Y-71380952D02*
X125472438Y-71285714D01*
X125472438Y-71285714D02*
X125520057Y-71238095D01*
X125520057Y-71238095D02*
X125615295Y-71190476D01*
X125615295Y-71190476D02*
X125710533Y-71190476D01*
X125710533Y-71190476D02*
X125853390Y-71238095D01*
X125853390Y-71238095D02*
X126424819Y-71809523D01*
X126424819Y-71809523D02*
X126424819Y-71190476D01*
X125424819Y-70857142D02*
X125424819Y-70238095D01*
X125424819Y-70238095D02*
X125805771Y-70571428D01*
X125805771Y-70571428D02*
X125805771Y-70428571D01*
X125805771Y-70428571D02*
X125853390Y-70333333D01*
X125853390Y-70333333D02*
X125901009Y-70285714D01*
X125901009Y-70285714D02*
X125996247Y-70238095D01*
X125996247Y-70238095D02*
X126234342Y-70238095D01*
X126234342Y-70238095D02*
X126329580Y-70285714D01*
X126329580Y-70285714D02*
X126377200Y-70333333D01*
X126377200Y-70333333D02*
X126424819Y-70428571D01*
X126424819Y-70428571D02*
X126424819Y-70714285D01*
X126424819Y-70714285D02*
X126377200Y-70809523D01*
X126377200Y-70809523D02*
X126329580Y-70857142D01*
X110833333Y-83429580D02*
X110785714Y-83477200D01*
X110785714Y-83477200D02*
X110642857Y-83524819D01*
X110642857Y-83524819D02*
X110547619Y-83524819D01*
X110547619Y-83524819D02*
X110404762Y-83477200D01*
X110404762Y-83477200D02*
X110309524Y-83381961D01*
X110309524Y-83381961D02*
X110261905Y-83286723D01*
X110261905Y-83286723D02*
X110214286Y-83096247D01*
X110214286Y-83096247D02*
X110214286Y-82953390D01*
X110214286Y-82953390D02*
X110261905Y-82762914D01*
X110261905Y-82762914D02*
X110309524Y-82667676D01*
X110309524Y-82667676D02*
X110404762Y-82572438D01*
X110404762Y-82572438D02*
X110547619Y-82524819D01*
X110547619Y-82524819D02*
X110642857Y-82524819D01*
X110642857Y-82524819D02*
X110785714Y-82572438D01*
X110785714Y-82572438D02*
X110833333Y-82620057D01*
X111166667Y-82524819D02*
X111785714Y-82524819D01*
X111785714Y-82524819D02*
X111452381Y-82905771D01*
X111452381Y-82905771D02*
X111595238Y-82905771D01*
X111595238Y-82905771D02*
X111690476Y-82953390D01*
X111690476Y-82953390D02*
X111738095Y-83001009D01*
X111738095Y-83001009D02*
X111785714Y-83096247D01*
X111785714Y-83096247D02*
X111785714Y-83334342D01*
X111785714Y-83334342D02*
X111738095Y-83429580D01*
X111738095Y-83429580D02*
X111690476Y-83477200D01*
X111690476Y-83477200D02*
X111595238Y-83524819D01*
X111595238Y-83524819D02*
X111309524Y-83524819D01*
X111309524Y-83524819D02*
X111214286Y-83477200D01*
X111214286Y-83477200D02*
X111166667Y-83429580D01*
D12*
%TO.C,C14*%
X114490000Y-81203733D02*
X114490000Y-81496267D01*
X115510000Y-81203733D02*
X115510000Y-81496267D01*
%TO.C,JP1*%
X114445000Y-83320000D02*
X117245000Y-83320000D01*
X114445000Y-85320000D02*
X114445000Y-83320000D01*
X117245000Y-83320000D02*
X117245000Y-85320000D01*
X117245000Y-85320000D02*
X114445000Y-85320000D01*
%TO.C,FB2*%
X119145276Y-83927500D02*
X119654724Y-83927500D01*
X119145276Y-84972500D02*
X119654724Y-84972500D01*
%TO.C,C22*%
X124383767Y-82190000D02*
X124091233Y-82190000D01*
X124383767Y-83210000D02*
X124091233Y-83210000D01*
%TO.C,C15*%
X115990000Y-78196267D02*
X115990000Y-77903733D01*
X117010000Y-78196267D02*
X117010000Y-77903733D01*
%TO.C,C13*%
X116090000Y-81216233D02*
X116090000Y-81508767D01*
X117110000Y-81216233D02*
X117110000Y-81508767D01*
%TO.C,C9*%
X120228733Y-70090000D02*
X120521267Y-70090000D01*
X120228733Y-71110000D02*
X120521267Y-71110000D01*
%TO.C,J1*%
X97370000Y-72505000D02*
X97370000Y-69905000D01*
X100030000Y-69905000D02*
X97370000Y-69905000D01*
X100030000Y-72505000D02*
X97370000Y-72505000D01*
X100030000Y-72505000D02*
X100030000Y-69905000D01*
X100030000Y-73775000D02*
X100030000Y-75105000D01*
X100030000Y-75105000D02*
X98700000Y-75105000D01*
%TO.C,R8*%
X122317224Y-73377500D02*
X121807776Y-73377500D01*
X122317224Y-74422500D02*
X121807776Y-74422500D01*
D13*
%TO.C,IC4*%
X113150000Y-71750000D02*
X114350000Y-71750000D01*
X114700000Y-71800000D02*
X115300000Y-71800000D01*
X114700000Y-74700000D02*
X114700000Y-71800000D01*
X115300000Y-71800000D02*
X115300000Y-74700000D01*
X115300000Y-74700000D02*
X114700000Y-74700000D01*
D12*
%TO.C,C5*%
X111183767Y-71740000D02*
X110891233Y-71740000D01*
X111183767Y-72760000D02*
X110891233Y-72760000D01*
%TO.C,C26*%
X128390000Y-71646267D02*
X128390000Y-71353733D01*
X129410000Y-71646267D02*
X129410000Y-71353733D01*
D13*
%TO.C,ANT1*%
X97450000Y-85425000D02*
X99875000Y-85425000D01*
X99875000Y-83775000D02*
X97450000Y-83775000D01*
X99875000Y-85425000D02*
X99875000Y-83775000D01*
D14*
%TO.C,Y2*%
X118075000Y-73225000D02*
X118075000Y-72675000D01*
X119675000Y-72675000D02*
X119675000Y-73225000D01*
D13*
X118362500Y-70950000D02*
G75*
G02*
X118162500Y-70950000I-100000J0D01*
G01*
X118162500Y-70950000D02*
G75*
G02*
X118362500Y-70950000I100000J0D01*
G01*
D12*
%TO.C,FB3*%
X116620276Y-70077500D02*
X117129724Y-70077500D01*
X116620276Y-71122500D02*
X117129724Y-71122500D01*
%TO.C,J2*%
X97370000Y-77805000D02*
X97370000Y-75205000D01*
X100030000Y-75205000D02*
X97370000Y-75205000D01*
X100030000Y-77805000D02*
X97370000Y-77805000D01*
X100030000Y-77805000D02*
X100030000Y-75205000D01*
X100030000Y-79075000D02*
X100030000Y-80405000D01*
X100030000Y-80405000D02*
X98700000Y-80405000D01*
%TO.C,C18*%
X112996267Y-70140000D02*
X112703733Y-70140000D01*
X112996267Y-71160000D02*
X112703733Y-71160000D01*
D15*
%TO.C,IC3*%
X124300000Y-75600000D02*
X124300000Y-75600000D01*
X124400000Y-75600000D02*
X124400000Y-75600000D01*
D13*
X125000000Y-74700000D02*
X125400000Y-74700000D01*
X125000000Y-75100000D02*
X125000000Y-74700000D01*
X125000000Y-80300000D02*
X125000000Y-80700000D01*
X125000000Y-80700000D02*
X125400000Y-80700000D01*
X130600000Y-74700000D02*
X131000000Y-74700000D01*
X130600000Y-80700000D02*
X131000000Y-80700000D01*
X131000000Y-74700000D02*
X131000000Y-75100000D01*
X131000000Y-80700000D02*
X131000000Y-80300000D01*
D15*
X124300000Y-75600000D02*
G75*
G02*
X124400000Y-75600000I50000J0D01*
G01*
X124400000Y-75600000D02*
G75*
G02*
X124300000Y-75600000I-50000J0D01*
G01*
D12*
%TO.C,C21*%
X127453733Y-82190000D02*
X127746267Y-82190000D01*
X127453733Y-83210000D02*
X127746267Y-83210000D01*
%TO.C,J6*%
X137740000Y-77250000D02*
X137740000Y-77750000D01*
X137740000Y-77750000D02*
X138240000Y-77500000D01*
X138240000Y-77500000D02*
X137740000Y-77250000D01*
X138790000Y-76660000D02*
X138790000Y-75550000D01*
X138790000Y-79450000D02*
X138790000Y-78340000D01*
X142040000Y-76660000D02*
X142040000Y-75550000D01*
X142040000Y-79450000D02*
X142040000Y-78340000D01*
%TO.C,FB1*%
X132927500Y-71245276D02*
X132927500Y-71754724D01*
X133972500Y-71245276D02*
X133972500Y-71754724D01*
%TO.C,C20*%
X123890000Y-71646267D02*
X123890000Y-71353733D01*
X124910000Y-71646267D02*
X124910000Y-71353733D01*
%TO.C,C8*%
X122196267Y-74790000D02*
X121903733Y-74790000D01*
X122196267Y-75810000D02*
X121903733Y-75810000D01*
D14*
%TO.C,U1*%
X104212500Y-76200000D02*
X104212500Y-76455000D01*
X104212500Y-83200000D02*
X104212500Y-82945000D01*
X104467500Y-76200000D02*
X104212500Y-76200000D01*
X104467500Y-83200000D02*
X104212500Y-83200000D01*
X110957500Y-76200000D02*
X111212500Y-76200000D01*
X110957500Y-83200000D02*
X111212500Y-83200000D01*
X111212500Y-76200000D02*
X111212500Y-76455000D01*
X111212500Y-83200000D02*
X111212500Y-82945000D01*
D13*
X105012500Y-83900000D02*
G75*
G02*
X104812500Y-83900000I-100000J0D01*
G01*
X104812500Y-83900000D02*
G75*
G02*
X105012500Y-83900000I100000J0D01*
G01*
D12*
%TO.C,R2*%
X107332776Y-83977500D02*
X107842224Y-83977500D01*
X107332776Y-85022500D02*
X107842224Y-85022500D01*
D16*
%TO.C,IC1*%
X122775000Y-76825000D02*
G75*
G02*
X122525000Y-76825000I-125000J0D01*
G01*
X122525000Y-76825000D02*
G75*
G02*
X122775000Y-76825000I125000J0D01*
G01*
D12*
%TO.C,C24*%
X131390000Y-71658767D02*
X131390000Y-71366233D01*
X132410000Y-71658767D02*
X132410000Y-71366233D01*
%TO.C,C19*%
X125390000Y-71646267D02*
X125390000Y-71353733D01*
X126410000Y-71646267D02*
X126410000Y-71353733D01*
%TO.C,C4*%
X101440000Y-73008767D02*
X101440000Y-72716233D01*
X102460000Y-73008767D02*
X102460000Y-72716233D01*
D15*
%TO.C,FL1*%
X134275000Y-77500000D02*
X134275000Y-77500000D01*
X134375000Y-77500000D02*
X134375000Y-77500000D01*
X134975000Y-76875000D02*
X135075000Y-76875000D01*
X134975000Y-76900000D02*
X134975000Y-76875000D01*
X134975000Y-77100000D02*
X134975000Y-76900000D01*
X134975000Y-77900000D02*
X134975000Y-78125000D01*
X134975000Y-78125000D02*
X135075000Y-78125000D01*
X136975000Y-76875000D02*
X136875000Y-76875000D01*
X136975000Y-77100000D02*
X136975000Y-76875000D01*
X136975000Y-77900000D02*
X136975000Y-78125000D01*
X136975000Y-78125000D02*
X136875000Y-78125000D01*
X134275000Y-77500000D02*
G75*
G02*
X134375000Y-77500000I50000J0D01*
G01*
X134375000Y-77500000D02*
G75*
G02*
X134275000Y-77500000I-50000J0D01*
G01*
D12*
%TO.C,C17*%
X122340000Y-71646267D02*
X122340000Y-71353733D01*
X123360000Y-71646267D02*
X123360000Y-71353733D01*
%TO.C,C16*%
X119546267Y-82440000D02*
X119253733Y-82440000D01*
X119546267Y-83460000D02*
X119253733Y-83460000D01*
%TO.C,C25*%
X129890000Y-71646267D02*
X129890000Y-71353733D01*
X130910000Y-71646267D02*
X130910000Y-71353733D01*
%TO.C,C23*%
X126890000Y-71646267D02*
X126890000Y-71353733D01*
X127910000Y-71646267D02*
X127910000Y-71353733D01*
%TO.C,C3*%
X110853733Y-83990000D02*
X111146267Y-83990000D01*
X110853733Y-85010000D02*
X111146267Y-85010000D01*
%TD*%
M02*
