M48
; DRILL file {KiCad 8.0.6-8.0.6-0~ubuntu24.04.1} date 2024-10-27T16:32:23+0100
; FORMAT={-:-/ absolute / inch / decimal}
; #@! TF.CreationDate,2024-10-27T16:32:23+01:00
; #@! TF.GenerationSoftware,Kicad,Pcbnew,8.0.6-8.0.6-0~ubuntu24.04.1
; #@! TF.FileFunction,Plated,1,4,PTH
FMAT,2
INCH
; #@! TA.AperFunction,Plated,PTH,ViaDrill
T1C0.0118
; #@! TA.AperFunction,Plated,PTH,ComponentDrill
T2C0.0394
%
G90
G05
T1
X3.8583Y-3.1693
X3.9173Y-3.1693
X3.937Y-2.9724
X3.9372Y-2.9045
X3.9567Y-2.7559
X3.9567Y-2.8543
X3.9567Y-3.0118
X3.9724Y-2.9045
X3.9764Y-2.9724
X3.9764Y-3.0512
X3.9764Y-3.1693
X3.9961Y-2.7559
X4.0079Y-2.904
X4.0157Y-2.9724
X4.0157Y-3.0118
X4.0157Y-3.0512
X4.0354Y-2.7559
X4.0354Y-2.7953
X4.0354Y-2.8543
X4.0354Y-3.1693
X4.0512Y-2.9055
X4.0648Y-3.0394
X4.0787Y-3.2087
X4.0787Y-3.2362
X4.0814Y-3.2651
X4.0827Y-2.9902
X4.0846Y-3.0217
X4.0945Y-2.7559
X4.1004Y-2.8524
X4.1161Y-2.9803
X4.1535Y-2.7559
X4.1555Y-2.8602
X4.1555Y-2.9774
X4.1772Y-3.3268
X4.1831Y-2.9804
X4.1835Y-3.303
X4.1998Y-3.3268
X4.2028Y-2.7559
X4.2081Y-2.9474
X4.2106Y-2.8602
X4.211Y-2.8043
X4.3921Y-3.2925
X4.404Y-3.3268
X4.4094Y-3.126
X4.4469Y-3.2933
X4.4646Y-3.3307
X4.4769Y-2.7815
X4.4783Y-2.8465
X4.4783Y-2.8465
X4.5236Y-2.7638
X4.5236Y-2.7913
X4.5894Y-3.3197
X4.5906Y-3.1224
X4.6161Y-3.2941
X4.6169Y-3.3291
X4.6437Y-3.1929
X4.6437Y-3.2244
X4.6649Y-3.3248
X4.7136Y-2.9655
X4.7162Y-3.2311
X4.7512Y-2.8283
X4.763Y-3.0001
X4.7697Y-2.9094
X4.7874Y-3.0079
X4.7878Y-2.8303
X4.7953Y-2.9224
X4.8031Y-2.7559
X4.8031Y-3.252
X4.8189Y-3.2244
X4.8366Y-2.8489
X4.8425Y-3.0463
X4.8583Y-3.1673
X4.8583Y-3.1949
X4.8622Y-2.7559
X4.8622Y-3.0709
X4.8681Y-3.0079
X4.8839Y-3.0315
X4.8919Y-3.1397
X4.8957Y-2.9311
X4.9016Y-3.1102
X4.9213Y-2.7559
X4.9803Y-2.7559
X4.9803Y-3.3268
X5.0Y-3.2087
X5.0394Y-2.7559
X5.0394Y-3.2087
X5.0394Y-3.3268
X5.0787Y-3.2087
X5.0984Y-2.7559
X5.0984Y-3.3268
X5.1181Y-3.2087
X5.1378Y-3.189
X5.1378Y-3.2283
X5.1378Y-3.2677
X5.1378Y-3.3071
X5.1575Y-2.7559
X5.315Y-2.7795
X5.315Y-2.8071
X5.315Y-2.8386
X5.315Y-2.8701
X5.3543Y-2.9921
X5.3543Y-3.1102
X5.4724Y-2.874
X5.4724Y-3.2283
X5.5217Y-2.874
X5.5217Y-3.2283
X5.5709Y-2.874
X5.5709Y-3.2283
T2
X3.8858Y-2.8045
X3.8858Y-2.9045
X3.8858Y-3.0132
X3.8858Y-3.1132
M30
